<svg width="80" height="80" viewBox="0 0 80 80" fill="none" xmlns="http://www.w3.org/2000/svg">
<g clip-path="url(#clip0_385_57)">
<path fillRule="evenodd" clipRule="evenodd" d="M47.103 0.156105C46.5267 0.156105 45.9881 0.278942 45.4967 0.439575C46.5503 1.14825 47.1267 2.06953 47.4196 3.12309C47.4385 3.26483 47.481 3.36877 47.4999 3.51523C47.5188 3.66169 47.5471 3.7609 47.5471 3.89319C47.6322 5.71212 47.0747 5.9389 46.6778 7.01136C46.0778 8.39564 46.2432 9.88386 46.9613 11.0744C47.0271 11.2338 47.1094 11.3858 47.207 11.528C46.4227 6.30268 50.7834 5.51369 51.5866 3.88374C51.648 2.45694 50.4716 1.50731 49.5409 0.845882C48.6527 0.307289 47.8401 0.137207 47.103 0.137207V0.156105ZM53.6701 1.33723C53.5851 1.80968 53.6512 1.68684 53.6229 1.93724L53.5756 2.47584L53.4339 2.97191C53.3866 3.13727 53.3299 3.30262 53.2685 3.46798L53.0417 3.94043C52.9803 4.02547 52.9378 4.10579 52.8764 4.18611L52.7536 4.37509L52.4417 4.78612C52.3189 4.90895 52.215 5.05541 52.0638 5.16408C51.9126 5.27274 51.8181 5.40975 51.6716 5.51369C51.237 5.84441 50.7409 6.09008 50.2874 6.4019C50.1456 6.50584 50.0039 6.59088 49.8763 6.71371C49.7365 6.81265 49.6053 6.92328 49.4842 7.04443C49.3425 7.16727 49.2385 7.2901 49.1062 7.43656C48.9739 7.58302 48.8795 7.70586 48.7944 7.8476L48.5109 8.28225L48.2842 8.7547L48.1188 9.22715L47.9771 9.74685C47.9582 9.83189 47.9582 9.93582 47.9298 10.0161C47.9015 10.0965 47.9109 10.1815 47.8826 10.2618L47.8637 10.7815C47.8637 10.9043 47.8637 11.0272 47.8826 11.1595C47.8826 11.3248 47.9015 11.4902 47.944 11.6792C47.9865 11.8681 48.0054 12.0099 48.0479 12.1752L48.2133 12.6713C48.2605 12.7753 48.3172 12.8792 48.355 12.9548L43.6022 11.1122L41.2069 10.498L39.9029 10.1862C38.6593 9.93835 37.4042 9.7523 36.1422 9.62873C36.095 9.62873 36.0808 9.60983 36.0383 9.60983L32.339 9.42085L29.6318 9.52479C28.3704 9.60983 27.109 9.77047 25.8522 9.97835L24.9215 10.1437L23.0601 10.5547L22.1293 10.8004L21.2411 11.1925L20.5608 11.5044C20.5135 11.5233 20.4757 11.5233 20.4569 11.5516L19.8805 11.8351C19.819 11.854 19.7765 11.8823 19.7387 11.8965L19.0962 12.2272C18.9545 12.2886 18.8127 12.3689 18.6852 12.4351C18.6237 12.4823 18.5434 12.5154 18.4962 12.539L17.9576 12.8508C17.7865 12.9454 17.6209 13.0495 17.4615 13.1627L17.0505 13.4461L16.5969 13.7768L16.2473 14.0603C16.2001 14.0792 16.1623 14.1217 16.1245 14.1454L15.8127 14.4147C15.7938 14.4619 15.7512 14.4761 15.7276 14.4997L15.3497 14.8493L14.9386 15.2414L14.589 15.6194C14.5418 15.6666 14.4851 15.7044 14.4473 15.7422C14.3363 15.8717 14.2196 15.9963 14.0977 16.1155C14.0788 16.1627 14.0363 16.1769 14.0126 16.2194L13.5402 16.7155L12.4252 17.7879C12.0472 18.1187 11.6598 18.4305 11.2677 18.6951L10.0299 19.4793C9.61884 19.7061 9.17947 19.914 8.72591 20.0935C8.28687 20.2803 7.8391 20.4458 7.38415 20.5896C6.51485 20.7786 5.62664 21.1282 4.86127 21.1896C4.69591 21.1896 4.51166 21.2368 4.34157 21.251L3.82188 21.3738L3.32581 21.5628C3.15666 21.6298 2.99108 21.7055 2.82973 21.7896C2.688 21.8935 2.51792 21.9786 2.37618 22.0731C2.23445 22.1676 2.09271 22.2998 1.96515 22.4227C1.83759 22.5455 1.68168 22.6684 1.55412 22.8006L1.2045 23.2117C1.10057 23.377 0.977729 23.5235 0.892688 23.6841C0.78456 23.8356 0.688212 23.9951 0.604493 24.1613L0.377717 24.6999L0.188737 25.2385L0.0847977 25.7346C0.0233792 25.9802 0.0233792 26.2306 -0.000243293 26.3487C-0.0238658 26.4669 -0.000243293 26.6228 -0.000243293 26.7692C-0.00425681 26.8594 0.00208393 26.9498 0.0186547 27.0385C0.0375527 27.1803 0.0658997 27.3078 0.103696 27.4307L0.245431 27.8086C0.306849 27.9504 0.387166 28.0779 0.472207 28.2008L0.741504 28.5787L1.09112 28.9094C1.21222 29.0306 1.34341 29.1412 1.48325 29.2401C1.97932 29.6748 2.09744 29.8165 2.74469 30.1472C2.84863 30.2087 2.95257 30.2512 3.07541 30.3126C3.13683 30.374 3.13683 30.3929 3.16045 30.4354C3.17935 30.6008 3.22187 30.7662 3.26439 30.9315C3.30384 31.1017 3.3592 31.2678 3.42975 31.4276L3.5951 31.8055C3.614 31.8528 3.64235 31.8906 3.65652 31.9095L3.9022 32.363L4.21401 32.7977L4.56363 33.1898C4.68646 33.3127 4.8093 33.4166 4.95576 33.5394L5.36679 33.8513C5.50853 33.9552 5.65026 34.0402 5.82034 34.1206C5.97319 34.2086 6.13275 34.2844 6.29752 34.3473C6.42036 34.4087 6.56681 34.4513 6.70855 34.4891C6.85029 34.5269 6.97785 34.5741 7.05816 34.593C6.99674 35.708 6.97312 36.7663 7.1432 37.1348C7.33218 37.5458 8.23929 36.2844 9.14639 34.8434C9.02356 36.2702 8.93852 37.9427 9.14639 38.434C9.35427 38.9254 10.611 37.3379 11.6882 35.5615C26.3341 32.1741 39.7045 42.2987 41.1077 56.595C40.8384 54.365 38.0934 53.1225 36.832 53.4296C36.2178 54.9603 35.1595 56.9257 33.4634 58.1399C33.6051 56.7698 33.5437 55.3714 33.2555 54.006C32.7934 55.908 31.9192 57.6853 30.6949 59.2124C28.7342 59.3541 26.7735 58.4092 25.7341 56.9824C25.6491 56.921 25.6302 56.7934 25.5688 56.7131L25.4034 56.2785C25.342 56.1367 25.2995 55.995 25.2806 55.8438C25.2617 55.6926 25.2617 55.5603 25.2617 55.3903V55.0784C25.2806 54.9367 25.3231 54.795 25.3656 54.6438L25.5073 54.2091C25.5924 54.0674 25.6491 53.9257 25.753 53.7745C26.1026 52.8296 26.1026 51.9792 25.4695 51.5067C25.3467 51.4217 25.2239 51.365 25.0774 51.2988C24.9924 51.2799 24.8884 51.2374 24.8081 51.2138L24.6428 51.1524L24.2081 51.0484C24.0668 51.0076 23.9205 50.9869 23.7735 50.987C23.6234 50.9626 23.4719 50.9484 23.3199 50.9445C23.216 50.9445 23.112 50.9634 23.0081 50.9634C22.8547 50.9621 22.702 50.9828 22.5545 51.0248L22.1199 51.1051L21.6852 51.2469L21.2742 51.4359L20.8821 51.6437C16.0631 54.7855 18.945 62.1321 22.2238 64.2676C20.986 64.4944 19.7198 64.7637 19.3749 65.033C20.2254 65.6094 21.1514 66.0724 22.1246 66.4598L25.4695 67.4047C27.1845 67.7826 28.9184 67.9007 30.676 67.7968C35.1403 67.4699 39.3593 65.6288 42.6351 62.5781C45.9109 59.5275 48.0471 55.4499 48.6905 51.0201L48.8133 51.5587L49.0023 52.7162L49.0873 53.2737L49.1346 53.8879L49.1818 54.5682V54.8989C49.1818 55.0029 49.2007 55.1257 49.2007 55.2296C49.2007 55.3336 49.1818 55.4753 49.1818 55.6076V55.8911C49.1818 56.0328 49.1629 56.1604 49.1629 56.3021C49.1629 56.3824 49.1629 56.4674 49.144 56.5714L49.1251 57.0249C49.1062 57.0864 49.1062 57.1478 49.1062 57.2139L49.0448 57.6864C49.0448 57.7478 49.0448 57.8092 49.0259 57.8754L48.9456 58.4754V58.5226L48.8228 59.099L48.6999 59.7132L48.5346 60.3557L48.3692 60.9982L48.1613 61.6597L47.7078 62.8597L47.4621 63.4597L47.1786 64.0361C47.1597 64.0975 47.1314 64.14 47.1172 64.1778C45.7329 66.9464 43.7486 69.3275 41.2683 71.1796C41.1029 71.2835 40.9376 71.4063 40.7722 71.5292C40.725 71.5764 40.6683 71.5906 40.6305 71.6331L40.1769 71.9449L40.2383 72.0678H40.2572L41.1265 71.9449H41.1454L42.7518 71.6615C42.8935 71.6426 43.0636 71.6 43.2053 71.5575L43.4888 71.4961L43.9235 71.4158L44.3014 71.3118C46.366 70.8158 48.3645 70.1307 50.2921 69.3275C47.0086 73.8158 42.6053 77.4254 37.4603 79.8018C39.8368 79.6364 42.2132 79.2443 44.4998 78.5828C52.8244 76.1261 59.8309 70.5276 64.0262 62.9825C63.1755 67.7662 61.2783 72.3028 58.4702 76.2678C60.4734 74.945 62.3112 73.419 63.9884 71.6851C68.6126 66.8567 71.6479 60.7285 72.6862 54.1241C73.3949 57.384 73.5933 60.7573 73.2862 64.0833C88.2015 43.2766 74.5241 21.7046 68.798 16.0257C68.7791 15.9785 68.7507 15.9643 68.7507 15.9218C68.7035 16.1674 68.6893 16.4178 68.6704 16.6635C68.609 17.136 68.5476 17.5942 68.4625 18.0478C68.3775 18.5013 68.2357 18.9549 68.1129 19.4179C67.9901 19.8809 67.8011 20.3061 67.6168 20.7408C67.4326 21.1754 67.2247 21.5912 67.0027 22.0022C66.7749 22.4063 66.5274 22.7989 66.2609 23.1786C65.9916 23.5707 65.7034 23.944 65.4105 24.2936C65.1021 24.6532 64.7774 24.9985 64.4372 25.3283C64.2294 25.5172 64.0451 25.6779 63.8372 25.848L63.3648 26.259C62.9958 26.5517 62.6093 26.8215 62.2073 27.0669C61.8128 27.3214 61.406 27.5563 60.9884 27.7708C60.5537 27.9787 60.1191 28.163 59.6844 28.3472C59.2444 28.5137 58.7967 28.6588 58.3426 28.7819C57.8891 28.9047 57.4119 29.0086 56.9584 29.0937C56.5048 29.1787 56.0135 29.2165 55.5552 29.259C55.2245 29.2779 54.8938 29.3063 54.6103 29.3063C54.1378 29.3063 53.6654 29.259 53.2071 29.2212C52.7488 29.1834 52.2622 29.1173 51.7992 29.0134C51.3303 28.9286 50.8678 28.8117 50.4149 28.6638H50.396C50.8496 28.6165 51.3031 28.5787 51.7661 28.4984C52.2291 28.4181 52.6969 28.3094 53.1504 28.1866C53.604 28.0637 54.0575 27.9173 54.4922 27.7519C54.9268 27.5866 55.3804 27.374 55.7961 27.1755C56.2196 26.9691 56.6327 26.742 57.0339 26.4952C57.4261 26.2259 57.8182 25.9566 58.1915 25.6684C58.5616 25.3804 58.9135 25.0695 59.245 24.7377C59.5946 24.4259 59.9064 24.0763 60.2183 23.7266C60.5301 23.377 60.8183 22.9849 61.0876 22.6117C61.1348 22.5502 61.1726 22.4699 61.2104 22.4038L61.8104 21.4589C62.0372 21.0479 62.2451 20.6321 62.4246 20.1974C62.6041 19.7628 62.7742 19.3281 62.9207 18.8746C63.0671 18.421 63.1664 17.9864 63.2703 17.5328C63.3742 17.0793 63.4356 16.6021 63.4782 16.1485C63.5207 15.695 63.5585 15.2036 63.5585 14.7454C63.5585 14.4147 63.5396 14.0839 63.5112 13.8005C63.464 13.328 63.4073 12.8697 63.3459 12.4162C63.2637 11.9501 63.1596 11.4882 63.0341 11.0319C62.8923 10.5973 62.7506 10.1437 62.5805 9.70905C62.4104 9.27439 62.2026 8.83974 62.0041 8.43343C61.8057 8.02713 61.5506 7.60665 61.2955 7.21451C61.0403 6.82238 60.7569 6.44914 60.4687 6.08063L59.5238 5.02707C59.3492 4.85026 59.1696 4.67853 58.9852 4.5121C58.0594 3.79258 57.1009 3.11625 56.1127 2.48529C55.9709 2.40497 55.8434 2.34355 55.7016 2.27741C55.0213 1.84275 54.3788 1.61598 53.741 1.4081L53.6701 1.33723Z" fill="white" fill-opacity="0.3"/>
</g>
<defs>
<clipPath id="clip0_385_57">
<rect width="80" height="80" fill="white"/>
</clipPath>
</defs>
</svg>
