<svg width="150" height="150" viewBox="0 0 150 150" fill="none" xmlns="http://www.w3.org/2000/svg">
<path fillRule="evenodd" clipRule="evenodd" d="M20.4064 33.2626C21.5303 32.0443 23.0921 31.3224 24.7483 31.2556C26.4044 31.1888 28.0193 31.7826 29.2377 32.9063L66.7377 67.5251C67.3419 68.0826 67.8302 68.7539 68.1746 69.5004C68.5189 70.247 68.7126 71.0541 68.7446 71.8756C68.7765 72.6972 68.646 73.5169 68.3606 74.2879C68.0753 75.059 67.6406 75.7661 67.0814 76.3688L29.5814 116.756C28.4534 117.971 26.889 118.689 25.2322 118.75C23.5754 118.812 21.9621 118.212 20.7471 117.084C19.532 115.956 18.8149 114.392 18.7533 112.735C18.6918 111.078 19.2909 109.465 20.4189 108.25L53.6564 72.4563L20.7627 42.0938C19.5444 40.9699 18.8225 39.4082 18.7557 37.752C18.6889 36.0958 19.2826 34.481 20.4064 33.2626ZM56.2502 112.5C56.2502 110.842 56.9087 109.253 58.0808 108.081C59.2529 106.909 60.8426 106.25 62.5002 106.25H125C126.658 106.25 128.248 106.909 129.42 108.081C130.592 109.253 131.25 110.842 131.25 112.5C131.25 114.158 130.592 115.747 129.42 116.92C128.248 118.092 126.658 118.75 125 118.75H62.5002C60.8426 118.75 59.2529 118.092 58.0808 116.92C56.9087 115.747 56.2502 114.158 56.2502 112.5Z" fill="white" fill-opacity="0.3"/>
</svg>
