<svg width="114" height="36" viewBox="0 0 114 36" fill="none" xmlns="http://www.w3.org/2000/svg">
<path d="M12.776 35.48C5.384 35.48 0.296 30.008 0.296 22.184C0.296 14.504 5.576 8.888 12.776 8.888C19.448 8.888 24.392 13.4 25.208 20.312H18.2C17.864 16.904 15.8 14.792 12.776 14.792C9.32 14.792 7.112 17.624 7.112 22.184C7.112 26.792 9.272 29.576 12.776 29.576C15.848 29.576 17.816 27.56 18.2 24.056H25.208C24.44 31.112 19.64 35.48 12.776 35.48ZM40.9659 35.48C33.5259 35.48 27.9579 29.624 27.9579 22.184C27.9579 14.696 33.5259 8.888 40.9659 8.888C48.4059 8.888 53.9739 14.696 53.9739 22.184C53.9739 29.624 48.4059 35.48 40.9659 35.48ZM40.9659 29.576C44.2779 29.576 47.1099 26.936 47.1099 22.184C47.1099 17.432 44.2779 14.84 40.9659 14.84C37.6539 14.84 34.8219 17.432 34.8219 22.184C34.8219 26.936 37.6539 29.576 40.9659 29.576ZM56.7916 22.184C56.7916 14.6 61.2556 8.888 68.1676 8.888C71.2396 8.888 73.8316 10.232 75.7516 12.68V0.535997H82.3756V35H76.2796V31.304C74.2636 33.992 71.4796 35.48 68.1676 35.48C61.2556 35.48 56.7916 29.672 56.7916 22.184ZM63.6556 22.184C63.6556 26.984 66.3916 29.528 69.6556 29.528C72.9676 29.528 75.7036 26.936 75.7036 22.088C75.7036 17.24 72.9196 14.792 69.6556 14.792C66.3916 14.792 63.6556 17.288 63.6556 22.184ZM99.707 35.432C92.027 35.432 86.891 30.104 86.891 22.088C86.891 14.456 92.219 8.888 99.611 8.888C107.723 8.888 113.099 15.464 111.899 23.816H93.707C94.139 27.992 96.155 30.296 99.563 30.296C102.491 30.296 104.459 28.856 105.227 26.312H111.851C110.411 32.12 105.947 35.432 99.707 35.432ZM99.467 13.784C96.347 13.784 94.379 15.8 93.803 19.592H104.843C104.651 16.04 102.635 13.784 99.467 13.784Z" fill="white" fillOpacity="0.3"/>
</svg>
