<svg width="70" height="70" viewBox="0 0 70 70" fill="none" xmlns="http://www.w3.org/2000/svg">
<g clip-path="url(#clip0_385_45)">
<path d="M32.7102 0.0544643C32.5598 0.0681349 32.0813 0.115982 31.6507 0.150158C21.7191 1.04558 12.4163 6.40443 6.52427 14.6409C3.24334 19.2206 1.14491 24.4154 0.35202 29.9178C0.071774 31.8385 0.0375977 32.4058 0.0375977 35.01C0.0375977 37.6143 0.071774 38.1816 0.35202 40.1023C2.25223 53.2329 11.596 64.265 24.2686 68.3525C26.5379 69.0839 28.9303 69.5828 31.6507 69.8836C32.7102 69.9998 37.2898 69.9998 38.3493 69.8836C43.0451 69.3641 47.0232 68.2021 50.9467 66.1994C51.5482 65.8918 51.6644 65.8098 51.5824 65.7414C51.5277 65.7004 48.9645 62.2623 45.8886 58.1064L40.2973 50.5534L33.2912 40.1843C29.4361 34.4837 26.2645 29.8221 26.2372 29.8221C26.2098 29.8152 26.1825 34.4222 26.1688 40.0476C26.1483 49.8973 26.1415 50.2937 26.0185 50.5261C25.8407 50.861 25.704 50.9977 25.417 51.1481C25.1982 51.2575 25.0068 51.278 23.9747 51.278H22.7922L22.4778 51.0798C22.2727 50.9499 22.1224 50.779 22.0198 50.5808L21.8763 50.2732L21.89 36.5685L21.9105 22.8569L22.1224 22.5903C22.2317 22.4468 22.4641 22.2623 22.6282 22.1734C22.9084 22.0367 23.0178 22.023 24.2003 22.023C25.5947 22.023 25.8271 22.0777 26.1893 22.4741C26.2919 22.5835 30.0854 28.2978 34.6241 35.1809C39.1627 42.064 45.3691 51.4625 48.4176 56.0763L53.9542 64.4632L54.2345 64.2787C56.7157 62.6655 59.3404 60.3689 61.4183 57.9765C65.8407 52.8979 68.691 46.7052 69.648 40.1023C69.9282 38.1816 69.9624 37.6143 69.9624 35.01C69.9624 32.4058 69.9282 31.8385 69.648 29.9178C67.7478 16.7872 58.404 5.75508 45.7314 1.66759C43.4962 0.943049 41.1176 0.444075 38.4518 0.143323C37.7956 0.0749701 33.2775 -0.000217844 32.7102 0.0544643ZM47.0232 21.2028C47.3513 21.3668 47.6179 21.6813 47.7136 22.0093C47.7683 22.1871 47.782 25.9875 47.7683 34.5521L47.7478 46.8419L45.581 43.5199L43.4074 40.198V31.2643C43.4074 25.4885 43.4347 22.2417 43.4757 22.0845C43.5851 21.7018 43.8243 21.401 44.1524 21.2233C44.4327 21.0798 44.5352 21.0661 45.6083 21.0661C46.62 21.0661 46.7977 21.0798 47.0232 21.2028Z" fill="white" fill-opacity="0.3"/>
<path d="M53.6123 64.6138C53.373 64.7641 53.2978 64.8667 53.5097 64.7505C53.6601 64.6616 53.9062 64.4771 53.8652 64.4702C53.8447 64.4702 53.7285 64.5386 53.6123 64.6138ZM53.1406 64.9213C53.0176 65.017 53.0176 65.0239 53.168 64.9487C53.25 64.9077 53.3183 64.8598 53.3183 64.8462C53.3183 64.7915 53.2842 64.8051 53.1406 64.9213ZM52.7989 65.1264C52.6758 65.2221 52.6758 65.2289 52.8262 65.1537C52.9082 65.1127 52.9766 65.0649 52.9766 65.0512C52.9766 64.9965 52.9424 65.0102 52.7989 65.1264ZM52.4571 65.3315C52.3341 65.4272 52.3341 65.434 52.4844 65.3588C52.5665 65.3178 52.6348 65.2699 52.6348 65.2563C52.6348 65.2016 52.6006 65.2153 52.4571 65.3315ZM51.9376 65.6049C51.6779 65.7416 51.6915 65.7963 51.9513 65.6664C52.0675 65.6049 52.1563 65.5434 52.1563 65.5297C52.1563 65.4818 52.1495 65.4887 51.9376 65.6049Z" fill="white" fill-opacity="0.3"/>
</g>
<defs>
<clipPath id="clip0_385_45">
<rect width="70" height="70" fill="white"/>
</clipPath>
</defs>
</svg>
