<svg width="500" height="500" viewBox="0 0 500 500" fill="none" xmlns="http://www.w3.org/2000/svg">
<rect width="500" height="500" rx="20" fill="white"/>
<rect x="28" y="29" width="60" height="60" fill="url(#paint0_linear_138_11)" fillOpacity="0.6"/>
<path d="M46.208 73H40.832V49.624H46.208V56.008C47.072 52.312 49.472 49.144 54.128 49.144C58.688 49.144 61.472 51.88 61.472 56.728V73H56.048V58.36C56.048 55.48 55.088 53.512 51.488 53.512C47.552 53.512 46.208 56.056 46.208 59.896V73ZM81.5323 76.648H65.4043V73H81.5323V76.648Z" fill="white"/>
<path d="M115.136 52H112.716V36.204H122.308V38.316H115.136V43.464H121.252V45.576H115.136V52ZM131.461 47.204V40.34H133.683V52H131.615V50.152C130.999 51.362 129.635 52.22 128.051 52.22C125.697 52.22 124.069 50.834 124.069 47.842V40.34H126.291V47.402C126.291 49.426 127.303 50.262 128.755 50.262C130.251 50.262 131.461 49.03 131.461 47.204ZM138.793 52H136.549V36.204H138.793V52ZM143.901 52H141.657V36.204H143.901V52ZM156.005 48.524C156.005 50.812 154.223 52.22 151.121 52.22C148.041 52.22 146.215 50.702 145.995 48.194H148.129C148.217 49.646 149.383 50.548 151.165 50.548C152.727 50.548 153.761 49.998 153.761 48.898C153.761 47.93 153.167 47.512 151.715 47.226L149.823 46.874C147.667 46.456 146.457 45.356 146.457 43.596C146.457 41.55 148.239 40.12 150.945 40.12C153.739 40.12 155.631 41.616 155.829 44.014H153.695C153.563 42.606 152.529 41.792 150.967 41.792C149.559 41.792 148.613 42.386 148.613 43.398C148.613 44.344 149.207 44.784 150.615 45.048L152.595 45.422C154.905 45.84 156.005 46.852 156.005 48.524ZM164.639 49.844V51.802C163.957 52.11 163.363 52.22 162.659 52.22C160.503 52.22 159.007 51.054 159.007 48.48V42.232H156.433V40.34H159.007V36.886H161.229V40.34H164.749V42.232H161.229V47.974C161.229 49.58 161.999 50.152 163.187 50.152C163.715 50.152 164.177 50.064 164.639 49.844ZM173.712 52V50.196C172.986 51.494 171.688 52.22 169.972 52.22C167.552 52.22 165.968 50.834 165.968 48.7C165.968 46.412 167.794 45.224 171.27 45.224C171.952 45.224 172.502 45.246 173.448 45.356V44.498C173.448 42.826 172.546 41.88 171.006 41.88C169.378 41.88 168.388 42.848 168.322 44.476H166.298C166.408 41.858 168.278 40.12 171.006 40.12C173.888 40.12 175.56 41.748 175.56 44.52V52H173.712ZM168.08 48.634C168.08 49.844 168.982 50.636 170.412 50.636C172.282 50.636 173.448 49.47 173.448 47.688V46.742C172.59 46.632 171.974 46.61 171.402 46.61C169.18 46.61 168.08 47.27 168.08 48.634ZM182.909 52.242C179.719 52.242 177.475 49.734 177.475 46.17C177.475 42.65 179.763 40.12 182.909 40.12C185.791 40.12 187.881 42.034 188.299 45.07H185.967C185.725 43.2 184.559 42.078 182.931 42.078C181.017 42.078 179.763 43.706 179.763 46.17C179.763 48.656 181.017 50.262 182.931 50.262C184.581 50.262 185.725 49.162 185.989 47.27H188.299C187.903 50.35 185.835 52.242 182.909 52.242ZM192.537 52H190.315V36.204H192.537V45.554L197.531 40.34H200.149L194.759 45.994L200.655 52H197.795L192.537 46.478V52ZM211.545 52H206.551V36.204H211.545C216.583 36.204 219.487 39.416 219.487 44.036C219.487 48.59 216.473 52 211.545 52ZM208.971 38.294V49.91H211.435C215.065 49.91 217.023 47.666 217.023 44.036C217.023 40.472 215.087 38.294 211.435 38.294H208.971ZM226.42 52.22C223.054 52.22 220.788 49.778 220.788 46.104C220.788 42.65 223.142 40.12 226.354 40.12C229.83 40.12 232.14 42.936 231.744 46.72H223.054C223.23 49.096 224.418 50.482 226.376 50.482C228.026 50.482 229.17 49.58 229.544 48.062H231.744C231.172 50.658 229.17 52.22 226.42 52.22ZM226.31 41.792C224.528 41.792 223.318 43.068 223.076 45.246H229.39C229.28 43.09 228.114 41.792 226.31 41.792ZM243.201 40.34L238.823 52H236.403L232.025 40.34H234.423L237.657 49.448L240.935 40.34H243.201ZM248.99 52.22C245.624 52.22 243.358 49.778 243.358 46.104C243.358 42.65 245.712 40.12 248.924 40.12C252.4 40.12 254.71 42.936 254.314 46.72H245.624C245.8 49.096 246.988 50.482 248.946 50.482C250.596 50.482 251.74 49.58 252.114 48.062H254.314C253.742 50.658 251.74 52.22 248.99 52.22ZM248.88 41.792C247.098 41.792 245.888 43.068 245.646 45.246H251.96C251.85 43.09 250.684 41.792 248.88 41.792ZM258.7 52H256.456V36.204H258.7V52ZM266.448 52.22C263.148 52.22 260.728 49.624 260.728 46.17C260.728 42.716 263.148 40.12 266.448 40.12C269.748 40.12 272.168 42.716 272.168 46.17C272.168 49.624 269.748 52.22 266.448 52.22ZM266.448 50.262C268.362 50.262 269.88 48.722 269.88 46.17C269.88 43.618 268.362 42.1 266.448 42.1C264.534 42.1 263.038 43.618 263.038 46.17C263.038 48.722 264.534 50.262 266.448 50.262ZM285.345 46.17C285.345 49.69 283.321 52.22 280.197 52.22C278.613 52.22 277.271 51.428 276.435 50.02V56.246H274.213V40.34H276.281V42.474C277.117 40.978 278.547 40.12 280.197 40.12C283.299 40.12 285.345 42.65 285.345 46.17ZM283.035 46.17C283.035 43.552 281.649 42.078 279.735 42.078C277.887 42.078 276.435 43.552 276.435 46.17C276.435 48.744 277.865 50.24 279.735 50.24C281.649 50.24 283.035 48.788 283.035 46.17ZM289.6 52H287.378V40.34H289.446V42.276C290.238 40.934 291.492 40.12 293.098 40.12C294.814 40.12 296.112 41 296.64 42.54C297.454 41.044 298.796 40.12 300.578 40.12C302.976 40.12 304.516 41.682 304.516 44.454V52H302.294V45.158C302.294 43.222 301.436 42.078 299.808 42.078C298.29 42.078 297.058 43.354 297.058 45.312V52H294.836V45.158C294.836 43.222 293.978 42.078 292.35 42.078C290.81 42.078 289.6 43.354 289.6 45.312V52ZM312.063 52.22C308.697 52.22 306.431 49.778 306.431 46.104C306.431 42.65 308.785 40.12 311.997 40.12C315.473 40.12 317.783 42.936 317.387 46.72H308.697C308.873 49.096 310.061 50.482 312.019 50.482C313.669 50.482 314.813 49.58 315.187 48.062H317.387C316.815 50.658 314.813 52.22 312.063 52.22ZM311.953 41.792C310.171 41.792 308.961 43.068 308.719 45.246H315.033C314.923 43.09 313.757 41.792 311.953 41.792ZM321.752 45.422V52H319.53V40.34H321.598V42.276C322.39 40.978 323.71 40.12 325.316 40.12C327.714 40.12 329.298 41.66 329.298 44.454V52H327.076V45.202C327.076 43.2 326.196 42.078 324.546 42.078C323.028 42.078 321.752 43.354 321.752 45.422ZM338.564 49.844V51.802C337.882 52.11 337.288 52.22 336.584 52.22C334.428 52.22 332.932 51.054 332.932 48.48V42.232H330.358V40.34H332.932V36.886H335.154V40.34H338.674V42.232H335.154V47.974C335.154 49.58 335.924 50.152 337.112 50.152C337.64 50.152 338.102 50.064 338.564 49.844ZM347.548 52H345.128V36.204H347.548V52ZM352.798 45.422V52H350.576V40.34H352.644V42.276C353.436 40.978 354.756 40.12 356.362 40.12C358.76 40.12 360.344 41.66 360.344 44.454V52H358.122V45.202C358.122 43.2 357.242 42.078 355.592 42.078C354.074 42.078 352.798 43.354 352.798 45.422ZM369.609 49.844V51.802C368.927 52.11 368.333 52.22 367.629 52.22C365.473 52.22 363.977 51.054 363.977 48.48V42.232H361.403V40.34H363.977V36.886H366.199V40.34H369.719V42.232H366.199V47.974C366.199 49.58 366.969 50.152 368.157 50.152C368.685 50.152 369.147 50.064 369.609 49.844ZM376.094 52.22C372.728 52.22 370.462 49.778 370.462 46.104C370.462 42.65 372.816 40.12 376.028 40.12C379.504 40.12 381.814 42.936 381.418 46.72H372.728C372.904 49.096 374.092 50.482 376.05 50.482C377.7 50.482 378.844 49.58 379.218 48.062H381.418C380.846 50.658 378.844 52.22 376.094 52.22ZM375.984 41.792C374.202 41.792 372.992 43.068 372.75 45.246H379.064C378.954 43.09 377.788 41.792 375.984 41.792ZM385.782 46.038V52H383.56V40.34H385.628V42.804C386.442 41.198 388.202 40.186 390.116 40.186V42.496C387.608 42.364 385.782 43.464 385.782 46.038ZM393.877 45.422V52H391.655V40.34H393.723V42.276C394.515 40.978 395.835 40.12 397.441 40.12C399.839 40.12 401.423 41.66 401.423 44.454V52H399.201V45.202C399.201 43.2 398.321 42.078 396.671 42.078C395.153 42.078 393.877 43.354 393.877 45.422Z" fill="#544D49"/>
<path d="M122.16 91L114.6 79.78V91H112.56V76.64H114.96L122.34 87.56V76.64H124.38V91H122.16ZM131.562 91.2C128.562 91.2 126.362 88.84 126.362 85.7C126.362 82.56 128.562 80.2 131.562 80.2C134.562 80.2 136.762 82.56 136.762 85.7C136.762 88.84 134.562 91.2 131.562 91.2ZM131.562 89.42C133.302 89.42 134.682 88.02 134.682 85.7C134.682 83.38 133.302 82 131.562 82C129.822 82 128.462 83.38 128.462 85.7C128.462 88.02 129.822 89.42 131.562 89.42ZM143.061 91.2C140.061 91.2 137.861 88.84 137.861 85.7C137.861 82.56 140.061 80.2 143.061 80.2C146.061 80.2 148.261 82.56 148.261 85.7C148.261 88.84 146.061 91.2 143.061 91.2ZM143.061 89.42C144.801 89.42 146.181 88.02 146.181 85.7C146.181 83.38 144.801 82 143.061 82C141.321 82 139.961 83.38 139.961 85.7C139.961 88.02 141.321 89.42 143.061 89.42ZM160.24 85.7C160.24 88.88 158.4 91.2 155.54 91.2C154.04 91.2 152.76 90.44 152 89.1V91H150.12V76.64H152.14V82.22C152.88 80.92 154.1 80.2 155.54 80.2C158.38 80.2 160.24 82.48 160.24 85.7ZM158.14 85.7C158.14 83.3 156.88 81.98 155.14 81.98C153.46 81.98 152.14 83.28 152.14 85.66C152.14 88 153.42 89.4 155.14 89.4C156.88 89.4 158.14 88.06 158.14 85.7ZM166.788 91H162.248V76.64H166.788C171.368 76.64 174.008 79.56 174.008 83.76C174.008 87.9 171.268 91 166.788 91ZM164.448 78.54V89.1H166.688C169.988 89.1 171.768 87.06 171.768 83.76C171.768 80.52 170.008 78.54 166.688 78.54H164.448ZM180.311 91.2C177.251 91.2 175.191 88.98 175.191 85.64C175.191 82.5 177.331 80.2 180.251 80.2C183.411 80.2 185.511 82.76 185.151 86.2H177.251C177.411 88.36 178.491 89.62 180.271 89.62C181.771 89.62 182.811 88.8 183.151 87.42H185.151C184.631 89.78 182.811 91.2 180.311 91.2ZM180.211 81.72C178.591 81.72 177.491 82.88 177.271 84.86H183.011C182.911 82.9 181.851 81.72 180.211 81.72ZM195.566 80.4L191.586 91H189.386L185.406 80.4H187.586L190.526 88.68L193.506 80.4H195.566Z" fill="#544D49" fillOpacity="0.8"/>
<path d="M26 143V157H49V143H26ZM30.6 154.667C30.6 153.383 29.565 152.333 28.3 152.333V147.667C29.565 147.667 30.6 146.617 30.6 145.333H44.4C44.4 146.617 45.435 147.667 46.7 147.667V152.333C45.435 152.333 44.4 153.383 44.4 154.667H30.6Z" fill="#544D49" fillOpacity="0.8"/>
<path d="M37.4998 153.5C39.4052 153.5 40.9498 151.933 40.9498 150C40.9498 148.067 39.4052 146.5 37.4998 146.5C35.5944 146.5 34.0498 148.067 34.0498 150C34.0498 151.933 35.5944 153.5 37.4998 153.5Z" fill="#544D49" fillOpacity="0.8"/>
<path d="M31.7506 151.167C32.3857 151.167 32.9006 150.644 32.9006 150C32.9006 149.356 32.3857 148.833 31.7506 148.833C31.1155 148.833 30.6006 149.356 30.6006 150C30.6006 150.644 31.1155 151.167 31.7506 151.167Z" fill="#544D49" fillOpacity="0.8"/>
<path d="M43.2506 151.167C43.8857 151.167 44.4006 150.644 44.4006 150C44.4006 149.356 43.8857 148.833 43.2506 148.833C42.6155 148.833 42.1006 149.356 42.1006 150C42.1006 150.644 42.6155 151.167 43.2506 151.167Z" fill="#544D49" fillOpacity="0.8"/>
<path d="M64.384 156H62.404V143.076H67.228C70.198 143.076 71.98 144.534 71.98 147.108C71.98 148.962 70.81 150.384 68.848 150.852L72.358 156H69.982L66.76 151.14H64.384V156ZM64.384 144.732V149.484H67.102C68.938 149.484 69.982 148.674 69.982 147.108C69.982 145.56 68.938 144.732 67.102 144.732H64.384ZM81.1537 153.156C81.1537 155.028 79.6957 156.18 77.1577 156.18C74.6377 156.18 73.1437 154.938 72.9637 152.886H74.7097C74.7817 154.074 75.7357 154.812 77.1937 154.812C78.4717 154.812 79.3177 154.362 79.3177 153.462C79.3177 152.67 78.8317 152.328 77.6437 152.094L76.0957 151.806C74.3317 151.464 73.3417 150.564 73.3417 149.124C73.3417 147.45 74.7997 146.28 77.0137 146.28C79.2997 146.28 80.8477 147.504 81.0097 149.466H79.2637C79.1557 148.314 78.3097 147.648 77.0317 147.648C75.8797 147.648 75.1057 148.134 75.1057 148.962C75.1057 149.736 75.5917 150.096 76.7437 150.312L78.3637 150.618C80.2537 150.96 81.1537 151.788 81.1537 153.156ZM85.4246 154.704C85.4246 155.514 84.8666 156.09 84.0386 156.09C83.2286 156.09 82.6526 155.514 82.6526 154.704C82.6526 153.858 83.2286 153.282 84.0386 153.282C84.8666 153.282 85.4246 153.858 85.4246 154.704ZM99.5141 153.318H97.8581V156H96.0401V153.318H90.1901V152.04L96.4541 143.832H97.8581V151.734H99.5141V153.318ZM92.2241 151.734H96.0401V146.586L92.2241 151.734ZM104.9 156.18C102.524 156.18 100.706 154.632 100.616 152.472H102.434C102.56 153.768 103.55 154.542 104.9 154.542C106.574 154.542 107.402 153.498 107.402 152.112C107.402 150.852 106.502 149.754 104.882 149.754C103.802 149.754 102.992 150.204 102.488 151.086L101.012 150.618L102.092 143.832H108.59V145.452H103.406L102.866 148.962C103.55 148.422 104.324 148.17 105.152 148.17C107.834 148.17 109.292 150.042 109.292 152.112C109.292 154.29 107.726 156.18 104.9 156.18ZM113.375 155.226C113.375 156.936 112.025 158.268 110.045 158.304V157.278C111.215 157.242 112.007 156.612 112.115 155.73C111.953 155.784 111.845 155.802 111.719 155.802C111.035 155.802 110.531 155.244 110.531 154.578C110.531 153.804 111.107 153.3 111.845 153.3C112.835 153.3 113.375 154.02 113.375 155.226ZM114.675 149.934C114.675 145.902 116.277 143.652 119.157 143.652C122.037 143.652 123.657 145.902 123.657 149.934C123.657 153.966 122.073 156.18 119.157 156.18C116.241 156.18 114.675 153.966 114.675 149.934ZM116.547 149.934C116.547 152.94 117.447 154.542 119.157 154.542C120.867 154.542 121.785 152.958 121.785 149.934C121.785 146.892 120.867 145.29 119.157 145.29C117.483 145.29 116.547 146.892 116.547 149.934ZM125.235 149.934C125.235 145.902 126.837 143.652 129.717 143.652C132.597 143.652 134.217 145.902 134.217 149.934C134.217 153.966 132.633 156.18 129.717 156.18C126.801 156.18 125.235 153.966 125.235 149.934ZM127.107 149.934C127.107 152.94 128.007 154.542 129.717 154.542C131.427 154.542 132.345 152.958 132.345 149.934C132.345 146.892 131.427 145.29 129.717 145.29C128.043 145.29 127.107 146.892 127.107 149.934ZM135.795 149.934C135.795 145.902 137.397 143.652 140.277 143.652C143.157 143.652 144.777 145.902 144.777 149.934C144.777 153.966 143.193 156.18 140.277 156.18C137.361 156.18 135.795 153.966 135.795 149.934ZM137.667 149.934C137.667 152.94 138.567 154.542 140.277 154.542C141.987 154.542 142.905 152.958 142.905 149.934C142.905 146.892 141.987 145.29 140.277 145.29C138.603 145.29 137.667 146.892 137.667 149.934ZM145.752 159.474H143.934L151.908 143.076H153.708L145.752 159.474ZM156.176 156H154.358V146.46H156.05V148.044C156.698 146.946 157.724 146.28 159.038 146.28C160.442 146.28 161.504 147 161.936 148.26C162.602 147.036 163.7 146.28 165.158 146.28C167.12 146.28 168.38 147.558 168.38 149.826V156H166.562V150.402C166.562 148.818 165.86 147.882 164.528 147.882C163.286 147.882 162.278 148.926 162.278 150.528V156H160.46V150.402C160.46 148.818 159.758 147.882 158.426 147.882C157.166 147.882 156.176 148.926 156.176 150.528V156ZM174.627 156.18C171.927 156.18 169.947 154.056 169.947 151.23C169.947 148.404 171.927 146.28 174.627 146.28C177.327 146.28 179.307 148.404 179.307 151.23C179.307 154.056 177.327 156.18 174.627 156.18ZM174.627 154.578C176.193 154.578 177.435 153.318 177.435 151.23C177.435 149.142 176.193 147.9 174.627 147.9C173.061 147.9 171.837 149.142 171.837 151.23C171.837 153.318 173.061 154.578 174.627 154.578ZM182.799 150.618V156H180.981V146.46H182.673V148.044C183.321 146.982 184.401 146.28 185.715 146.28C187.677 146.28 188.973 147.54 188.973 149.826V156H187.155V150.438C187.155 148.8 186.435 147.882 185.085 147.882C183.843 147.882 182.799 148.926 182.799 150.618ZM196.554 154.236V155.838C195.996 156.09 195.51 156.18 194.934 156.18C193.17 156.18 191.946 155.226 191.946 153.12V148.008H189.84V146.46H191.946V143.634H193.764V146.46H196.644V148.008H193.764V152.706C193.764 154.02 194.394 154.488 195.366 154.488C195.798 154.488 196.176 154.416 196.554 154.236ZM200.017 150.618V156H198.199V143.076H200.017V147.99C200.647 146.964 201.619 146.28 202.933 146.28C204.895 146.28 206.191 147.54 206.191 149.826V156H204.373V150.438C204.373 148.8 203.653 147.882 202.303 147.882C201.061 147.882 200.017 148.926 200.017 150.618Z" fill="#544D49" fillOpacity="0.7"/>
<line x1="28" y1="115.5" x2="448" y2="115.5" stroke="#544D49" stroke-opacity="0.2"/>
<path d="M38.3125 245L35.8045 235.71L33.28 245H31.4155L28.33 233.153H30.112L32.389 242.277L34.8805 233.153H36.7615L39.22 242.294L41.497 233.153H43.279L40.1935 245H38.3125ZM47.6246 245.165C45.1001 245.165 43.4006 243.333 43.4006 240.578C43.4006 237.987 45.1661 236.09 47.5751 236.09C50.1821 236.09 51.9146 238.202 51.6176 241.04H45.1001C45.2321 242.822 46.1231 243.861 47.5916 243.861C48.8291 243.861 49.6871 243.185 49.9676 242.046H51.6176C51.1886 243.993 49.6871 245.165 47.6246 245.165ZM47.5421 237.344C46.2056 237.344 45.2981 238.301 45.1166 239.934H49.8521C49.7696 238.317 48.8951 237.344 47.5421 237.344ZM58.5041 240.528V245H56.8376V236.255H58.3886V238.103C58.9991 236.898 60.3191 236.139 61.7546 236.139V237.872C59.8736 237.773 58.5041 238.598 58.5041 240.528ZM66.6382 245.165C64.1137 245.165 62.4142 243.333 62.4142 240.578C62.4142 237.987 64.1797 236.09 66.5887 236.09C69.1957 236.09 70.9282 238.202 70.6312 241.04H64.1137C64.2457 242.822 65.1367 243.861 66.6052 243.861C67.8427 243.861 68.7007 243.185 68.9812 242.046H70.6312C70.2022 243.993 68.7007 245.165 66.6382 245.165ZM66.5557 237.344C65.2192 237.344 64.3117 238.301 64.1302 239.934H68.8657C68.7832 238.317 67.9087 237.344 66.5557 237.344ZM75.6904 245.182C73.2979 245.182 71.6149 243.3 71.6149 240.627C71.6149 237.987 73.3309 236.09 75.6904 236.09C77.8519 236.09 79.4194 237.525 79.7329 239.802H77.9839C77.8024 238.4 76.9279 237.558 75.7069 237.558C74.2714 237.558 73.3309 238.779 73.3309 240.627C73.3309 242.492 74.2714 243.696 75.7069 243.696C76.9444 243.696 77.8024 242.871 78.0004 241.452H79.7329C79.4359 243.762 77.8849 245.182 75.6904 245.182ZM84.9268 245.165C82.4023 245.165 80.7028 243.333 80.7028 240.578C80.7028 237.987 82.4683 236.09 84.8773 236.09C87.4843 236.09 89.2168 238.202 88.9198 241.04H82.4023C82.5343 242.822 83.4253 243.861 84.8938 243.861C86.1313 243.861 86.9893 243.185 87.2698 242.046H88.9198C88.4908 243.993 86.9893 245.165 84.9268 245.165ZM84.8443 237.344C83.5078 237.344 82.6003 238.301 82.4188 239.934H87.1543C87.0718 238.317 86.1973 237.344 84.8443 237.344ZM92.3581 240.066V245H90.6916V236.255H92.2426V237.707C92.8366 236.733 93.8266 236.09 95.0311 236.09C96.8296 236.09 98.0176 237.245 98.0176 239.34V245H96.3511V239.901C96.3511 238.4 95.6911 237.558 94.4536 237.558C93.3151 237.558 92.3581 238.515 92.3581 240.066ZM105.132 243.383V244.851C104.62 245.083 104.175 245.165 103.647 245.165C102.03 245.165 100.908 244.29 100.908 242.36V237.674H98.9775V236.255H100.908V233.664H102.574V236.255H105.214V237.674H102.574V241.98C102.574 243.185 103.152 243.614 104.043 243.614C104.439 243.614 104.785 243.548 105.132 243.383ZM108.488 245H106.805V233.153H108.488V245ZM118.061 236.255L113.688 248.185H111.873L113.127 244.884L109.679 236.255H111.477L114.018 242.921L116.378 236.255H118.061ZM126.141 245.182C123.749 245.182 122.066 243.3 122.066 240.627C122.066 237.987 123.782 236.09 126.141 236.09C128.303 236.09 129.87 237.525 130.184 239.802H128.435C128.253 238.4 127.379 237.558 126.158 237.558C124.722 237.558 123.782 238.779 123.782 240.627C123.782 242.492 124.722 243.696 126.158 243.696C127.395 243.696 128.253 242.871 128.451 241.452H130.184C129.887 243.762 128.336 245.182 126.141 245.182ZM137.158 245V243.647C136.613 244.62 135.64 245.165 134.353 245.165C132.538 245.165 131.35 244.125 131.35 242.525C131.35 240.809 132.719 239.918 135.326 239.918C135.838 239.918 136.25 239.934 136.96 240.017V239.373C136.96 238.119 136.283 237.41 135.128 237.41C133.907 237.41 133.165 238.136 133.115 239.357H131.597C131.68 237.393 133.082 236.09 135.128 236.09C137.29 236.09 138.544 237.311 138.544 239.39V245H137.158ZM132.934 242.475C132.934 243.383 133.61 243.977 134.683 243.977C136.085 243.977 136.96 243.102 136.96 241.766V241.056C136.316 240.974 135.854 240.957 135.425 240.957C133.759 240.957 132.934 241.452 132.934 242.475ZM142.438 245H140.772V236.255H142.323V237.707C142.917 236.7 143.857 236.09 145.062 236.09C146.349 236.09 147.322 236.75 147.718 237.905C148.329 236.783 149.335 236.09 150.672 236.09C152.47 236.09 153.625 237.261 153.625 239.34V245H151.959V239.868C151.959 238.416 151.315 237.558 150.094 237.558C148.956 237.558 148.032 238.515 148.032 239.984V245H146.365V239.868C146.365 238.416 145.722 237.558 144.501 237.558C143.346 237.558 142.438 238.515 142.438 239.984V245ZM159.451 245.165C156.926 245.165 155.227 243.333 155.227 240.578C155.227 237.987 156.992 236.09 159.401 236.09C162.008 236.09 163.741 238.202 163.444 241.04H156.926C157.058 242.822 157.949 243.861 159.418 243.861C160.655 243.861 161.513 243.185 161.794 242.046H163.444C163.015 243.993 161.513 245.165 159.451 245.165ZM159.368 237.344C158.032 237.344 157.124 238.301 156.943 239.934H161.678C161.596 238.317 160.721 237.344 159.368 237.344ZM173.96 245V243.647C173.416 244.62 172.442 245.165 171.155 245.165C169.34 245.165 168.152 244.125 168.152 242.525C168.152 240.809 169.522 239.918 172.129 239.918C172.64 239.918 173.053 239.934 173.762 240.017V239.373C173.762 238.119 173.086 237.41 171.931 237.41C170.71 237.41 169.967 238.136 169.918 239.357H168.4C168.482 237.393 169.885 236.09 171.931 236.09C174.092 236.09 175.346 237.311 175.346 239.39V245H173.96ZM169.736 242.475C169.736 243.383 170.413 243.977 171.485 243.977C172.888 243.977 173.762 243.102 173.762 241.766V241.056C173.119 240.974 172.657 240.957 172.228 240.957C170.561 240.957 169.736 241.452 169.736 242.475ZM181.023 245.182C178.63 245.182 176.947 243.3 176.947 240.627C176.947 237.987 178.663 236.09 181.023 236.09C183.184 236.09 184.752 237.525 185.065 239.802H183.316C183.135 238.4 182.26 237.558 181.039 237.558C179.604 237.558 178.663 238.779 178.663 240.627C178.663 242.492 179.604 243.696 181.039 243.696C182.277 243.696 183.135 242.871 183.333 241.452H185.065C184.768 243.762 183.217 245.182 181.023 245.182ZM188.409 240.528V245H186.743V236.255H188.294V238.103C188.904 236.898 190.224 236.139 191.66 236.139V237.872C189.779 237.773 188.409 238.598 188.409 240.528ZM196.61 245.165C194.135 245.165 192.32 243.218 192.32 240.627C192.32 238.037 194.135 236.09 196.61 236.09C199.085 236.09 200.9 238.037 200.9 240.627C200.9 243.218 199.085 245.165 196.61 245.165ZM196.61 243.696C198.045 243.696 199.184 242.541 199.184 240.627C199.184 238.713 198.045 237.575 196.61 237.575C195.174 237.575 194.052 238.713 194.052 240.627C194.052 242.541 195.174 243.696 196.61 243.696ZM209.528 242.393C209.528 244.109 208.192 245.165 205.865 245.165C203.555 245.165 202.186 244.026 202.021 242.145H203.621C203.687 243.234 204.562 243.911 205.898 243.911C207.07 243.911 207.845 243.498 207.845 242.673C207.845 241.947 207.4 241.634 206.311 241.419L204.892 241.155C203.275 240.842 202.367 240.017 202.367 238.697C202.367 237.162 203.704 236.09 205.733 236.09C207.829 236.09 209.248 237.212 209.396 239.01H207.796C207.697 237.954 206.921 237.344 205.75 237.344C204.694 237.344 203.984 237.789 203.984 238.548C203.984 239.258 204.43 239.588 205.486 239.786L206.971 240.066C208.703 240.38 209.528 241.139 209.528 242.393ZM218.278 242.393C218.278 244.109 216.941 245.165 214.615 245.165C212.305 245.165 210.935 244.026 210.77 242.145H212.371C212.437 243.234 213.311 243.911 214.648 243.911C215.819 243.911 216.595 243.498 216.595 242.673C216.595 241.947 216.149 241.634 215.06 241.419L213.641 241.155C212.024 240.842 211.117 240.017 211.117 238.697C211.117 237.162 212.453 236.09 214.483 236.09C216.578 236.09 217.997 237.212 218.146 239.01H216.545C216.446 237.954 215.671 237.344 214.499 237.344C213.443 237.344 212.734 237.789 212.734 238.548C212.734 239.258 213.179 239.588 214.235 239.786L215.72 240.066C217.453 240.38 218.278 241.139 218.278 242.393ZM230.806 236.255L226.433 248.185H224.618L225.872 244.884L222.424 236.255H224.222L226.763 242.921L229.123 236.255H230.806ZM235.378 245.165C232.903 245.165 231.088 243.218 231.088 240.627C231.088 238.037 232.903 236.09 235.378 236.09C237.853 236.09 239.668 238.037 239.668 240.627C239.668 243.218 237.853 245.165 235.378 245.165ZM235.378 243.696C236.814 243.696 237.952 242.541 237.952 240.627C237.952 238.713 236.814 237.575 235.378 237.575C233.943 237.575 232.821 238.713 232.821 240.627C232.821 242.541 233.943 243.696 235.378 243.696ZM246.828 241.403V236.255H248.495V245H246.944V243.614C246.482 244.521 245.459 245.165 244.271 245.165C242.505 245.165 241.284 244.125 241.284 241.881V236.255H242.951V241.551C242.951 243.069 243.71 243.696 244.799 243.696C245.921 243.696 246.828 242.772 246.828 241.403ZM252.476 240.528V245H250.809V236.255H252.36V238.103C252.971 236.898 254.291 236.139 255.726 236.139V237.872C253.845 237.773 252.476 238.598 252.476 240.528ZM262.523 234.225C262.523 234.852 262.028 235.331 261.318 235.331C260.609 235.331 260.097 234.852 260.097 234.225C260.097 233.582 260.609 233.12 261.318 233.12C262.028 233.12 262.523 233.582 262.523 234.225ZM262.16 245H260.493V236.255H262.16V245ZM266.14 245H264.473V236.255H266.024V237.707C266.618 236.7 267.559 236.09 268.763 236.09C270.05 236.09 271.024 236.75 271.42 237.905C272.03 236.783 273.037 236.09 274.373 236.09C276.172 236.09 277.327 237.261 277.327 239.34V245H275.66V239.868C275.66 238.416 275.017 237.558 273.796 237.558C272.657 237.558 271.733 238.515 271.733 239.984V245H270.067V239.868C270.067 238.416 269.423 237.558 268.202 237.558C267.047 237.558 266.14 238.515 266.14 239.984V245ZM287.904 240.627C287.904 243.267 286.386 245.165 284.043 245.165C282.855 245.165 281.849 244.571 281.222 243.515V248.185H279.555V236.255H281.106V237.855C281.733 236.733 282.806 236.09 284.043 236.09C286.37 236.09 287.904 237.987 287.904 240.627ZM286.172 240.627C286.172 238.664 285.132 237.558 283.697 237.558C282.311 237.558 281.222 238.664 281.222 240.627C281.222 242.558 282.294 243.68 283.697 243.68C285.132 243.68 286.172 242.591 286.172 240.627ZM291.26 240.528V245H289.594V236.255H291.145V238.103C291.755 236.898 293.075 236.139 294.511 236.139V237.872C292.63 237.773 291.26 238.598 291.26 240.528ZM299.395 245.165C296.87 245.165 295.171 243.333 295.171 240.578C295.171 237.987 296.936 236.09 299.345 236.09C301.952 236.09 303.685 238.202 303.388 241.04H296.87C297.002 242.822 297.893 243.861 299.362 243.861C300.599 243.861 301.457 243.185 301.738 242.046H303.388C302.959 243.993 301.457 245.165 299.395 245.165ZM299.312 237.344C297.976 237.344 297.068 238.301 296.887 239.934H301.622C301.54 238.317 300.665 237.344 299.312 237.344ZM312.089 242.393C312.089 244.109 310.753 245.165 308.426 245.165C306.116 245.165 304.747 244.026 304.582 242.145H306.182C306.248 243.234 307.123 243.911 308.459 243.911C309.631 243.911 310.406 243.498 310.406 242.673C310.406 241.947 309.961 241.634 308.872 241.419L307.453 241.155C305.836 240.842 304.928 240.017 304.928 238.697C304.928 237.162 306.265 236.09 308.294 236.09C310.39 236.09 311.809 237.212 311.957 239.01H310.357C310.258 237.954 309.482 237.344 308.311 237.344C307.255 237.344 306.545 237.789 306.545 238.548C306.545 239.258 306.991 239.588 308.047 239.786L309.532 240.066C311.264 240.38 312.089 241.139 312.089 242.393ZM320.839 242.393C320.839 244.109 319.502 245.165 317.176 245.165C314.866 245.165 313.496 244.026 313.331 242.145H314.932C314.998 243.234 315.872 243.911 317.209 243.911C318.38 243.911 319.156 243.498 319.156 242.673C319.156 241.947 318.71 241.634 317.621 241.419L316.202 241.155C314.585 240.842 313.678 240.017 313.678 238.697C313.678 237.162 315.014 236.09 317.044 236.09C319.139 236.09 320.558 237.212 320.707 239.01H319.106C319.007 237.954 318.232 237.344 317.06 237.344C316.004 237.344 315.295 237.789 315.295 238.548C315.295 239.258 315.74 239.588 316.796 239.786L318.281 240.066C320.014 240.38 320.839 241.139 320.839 242.393ZM324.688 234.225C324.688 234.852 324.193 235.331 323.483 235.331C322.774 235.331 322.262 234.852 322.262 234.225C322.262 233.582 322.774 233.12 323.483 233.12C324.193 233.12 324.688 233.582 324.688 234.225ZM324.325 245H322.658V236.255H324.325V245ZM333.898 236.255L330.615 245H328.8L325.516 236.255H327.315L329.74 243.086L332.199 236.255H333.898ZM338.405 245.165C335.88 245.165 334.181 243.333 334.181 240.578C334.181 237.987 335.946 236.09 338.355 236.09C340.962 236.09 342.695 238.202 342.398 241.04H335.88C336.012 242.822 336.903 243.861 338.372 243.861C339.609 243.861 340.467 243.185 340.748 242.046H342.398C341.969 243.993 340.467 245.165 338.405 245.165ZM338.322 237.344C336.986 237.344 336.078 238.301 335.897 239.934H340.632C340.55 238.317 339.675 237.344 338.322 237.344ZM355.967 240.627C355.967 243.267 354.449 245.165 352.106 245.165C350.918 245.165 349.911 244.571 349.284 243.515V248.185H347.618V236.255H349.169V237.855C349.796 236.733 350.868 236.09 352.106 236.09C354.432 236.09 355.967 237.987 355.967 240.627ZM354.234 240.627C354.234 238.664 353.195 237.558 351.759 237.558C350.373 237.558 349.284 238.664 349.284 240.627C349.284 242.558 350.357 243.68 351.759 243.68C353.195 243.68 354.234 242.591 354.234 240.627ZM359.323 240.528V245H357.656V236.255H359.207V238.103C359.818 236.898 361.138 236.139 362.573 236.139V237.872C360.692 237.773 359.323 238.598 359.323 240.528ZM367.523 245.165C365.048 245.165 363.233 243.218 363.233 240.627C363.233 238.037 365.048 236.09 367.523 236.09C369.998 236.09 371.813 238.037 371.813 240.627C371.813 243.218 369.998 245.165 367.523 245.165ZM367.523 243.696C368.959 243.696 370.097 242.541 370.097 240.627C370.097 238.713 368.959 237.575 367.523 237.575C366.088 237.575 364.966 238.713 364.966 240.627C364.966 242.541 366.088 243.696 367.523 243.696ZM375.541 234.225C375.541 234.852 375.046 235.331 374.337 235.331C373.627 235.331 373.116 234.852 373.116 234.225C373.116 233.582 373.627 233.12 374.337 233.12C375.046 233.12 375.541 233.582 375.541 234.225ZM375.162 236.255V245.429C375.162 247.425 374.073 248.35 372.472 248.35C372.109 248.35 371.697 248.333 371.317 248.185V246.617C371.598 246.749 371.911 246.799 372.274 246.799C373.017 246.799 373.495 246.403 373.495 245.396V236.255H375.162ZM381.073 245.165C378.548 245.165 376.849 243.333 376.849 240.578C376.849 237.987 378.614 236.09 381.023 236.09C383.63 236.09 385.363 238.202 385.066 241.04H378.548C378.68 242.822 379.571 243.861 381.04 243.861C382.277 243.861 383.135 243.185 383.416 242.046H385.066C384.637 243.993 383.135 245.165 381.073 245.165ZM380.99 237.344C379.654 237.344 378.746 238.301 378.565 239.934H383.3C383.218 238.317 382.343 237.344 380.99 237.344ZM390.125 245.182C387.732 245.182 386.049 243.3 386.049 240.627C386.049 237.987 387.765 236.09 390.125 236.09C392.286 236.09 393.854 237.525 394.167 239.802H392.418C392.237 238.4 391.362 237.558 390.141 237.558C388.706 237.558 387.765 238.779 387.765 240.627C387.765 242.492 388.706 243.696 390.141 243.696C391.379 243.696 392.237 242.871 392.435 241.452H394.167C393.87 243.762 392.319 245.182 390.125 245.182ZM400.778 243.383V244.851C400.267 245.083 399.821 245.165 399.293 245.165C397.676 245.165 396.554 244.29 396.554 242.36V237.674H394.624V236.255H396.554V233.664H398.221V236.255H400.861V237.674H398.221V241.98C398.221 243.185 398.798 243.614 399.689 243.614C400.085 243.614 400.432 243.548 400.778 243.383ZM409.349 242.393C409.349 244.109 408.013 245.165 405.686 245.165C403.376 245.165 402.007 244.026 401.842 242.145H403.442C403.508 243.234 404.383 243.911 405.719 243.911C406.891 243.911 407.666 243.498 407.666 242.673C407.666 241.947 407.221 241.634 406.132 241.419L404.713 241.155C403.096 240.842 402.188 240.017 402.188 238.697C402.188 237.162 403.525 236.09 405.554 236.09C407.65 236.09 409.069 237.212 409.217 239.01H407.617C407.518 237.954 406.742 237.344 405.571 237.344C404.515 237.344 403.805 237.789 403.805 238.548C403.805 239.258 404.251 239.588 405.307 239.786L406.792 240.066C408.524 240.38 409.349 241.139 409.349 242.393ZM28.528 272.627C28.528 269.971 30.046 268.09 32.4055 268.09C33.577 268.09 34.6 268.684 35.2105 269.756V265.153H36.877V277H35.326V275.432C34.699 276.538 33.643 277.165 32.4055 277.165C30.046 277.165 28.528 275.251 28.528 272.627ZM30.2605 272.627C30.2605 274.575 31.2835 275.68 32.7355 275.68C34.1545 275.68 35.2105 274.525 35.2105 272.594C35.2105 270.631 34.1215 269.558 32.7355 269.558C31.2835 269.558 30.2605 270.647 30.2605 272.627ZM42.7906 277.165C40.2661 277.165 38.5666 275.333 38.5666 272.578C38.5666 269.987 40.3321 268.09 42.7411 268.09C45.3481 268.09 47.0806 270.202 46.7836 273.04H40.2661C40.3981 274.822 41.2891 275.861 42.7576 275.861C43.9951 275.861 44.8531 275.185 45.1336 274.046H46.7836C46.3546 275.993 44.8531 277.165 42.7906 277.165ZM42.7081 269.344C41.3716 269.344 40.4641 270.301 40.2826 271.934H45.0181C44.9356 270.317 44.0611 269.344 42.7081 269.344ZM55.5415 268.255L52.258 277H50.443L47.1595 268.255H48.958L51.3835 275.086L53.842 268.255H55.5415ZM60.0479 277.165C57.5234 277.165 55.8239 275.333 55.8239 272.578C55.8239 269.987 57.5894 268.09 59.9984 268.09C62.6054 268.09 64.3379 270.202 64.0409 273.04H57.5234C57.6554 274.822 58.5464 275.861 60.0149 275.861C61.2524 275.861 62.1104 275.185 62.3909 274.046H64.0409C63.6119 275.993 62.1104 277.165 60.0479 277.165ZM59.9654 269.344C58.6289 269.344 57.7214 270.301 57.5399 271.934H62.2754C62.1929 270.317 61.3184 269.344 59.9654 269.344ZM67.4957 277H65.8127V265.153H67.4957V277ZM73.4718 277.165C70.9968 277.165 69.1818 275.218 69.1818 272.627C69.1818 270.037 70.9968 268.09 73.4718 268.09C75.9468 268.09 77.7618 270.037 77.7618 272.627C77.7618 275.218 75.9468 277.165 73.4718 277.165ZM73.4718 275.696C74.9073 275.696 76.0458 274.541 76.0458 272.627C76.0458 270.713 74.9073 269.575 73.4718 269.575C72.0363 269.575 70.9143 270.713 70.9143 272.627C70.9143 274.541 72.0363 275.696 73.4718 275.696ZM87.8097 272.627C87.8097 275.267 86.2917 277.165 83.9487 277.165C82.7607 277.165 81.7542 276.571 81.1272 275.515V280.185H79.4607V268.255H81.0117V269.855C81.6387 268.733 82.7112 268.09 83.9487 268.09C86.2752 268.09 87.8097 269.987 87.8097 272.627ZM86.0772 272.627C86.0772 270.664 85.0377 269.558 83.6022 269.558C82.2162 269.558 81.1272 270.664 81.1272 272.627C81.1272 274.558 82.1997 275.68 83.6022 275.68C85.0377 275.68 86.0772 274.591 86.0772 272.627ZM93.0962 277.165C90.5717 277.165 88.8722 275.333 88.8722 272.578C88.8722 269.987 90.6377 268.09 93.0467 268.09C95.6537 268.09 97.3862 270.202 97.0892 273.04H90.5717C90.7037 274.822 91.5947 275.861 93.0632 275.861C94.3007 275.861 95.1587 275.185 95.4392 274.046H97.0892C96.6602 275.993 95.1587 277.165 93.0962 277.165ZM93.0137 269.344C91.6772 269.344 90.7697 270.301 90.5882 271.934H95.3237C95.2412 270.317 94.3667 269.344 93.0137 269.344ZM98.0729 272.627C98.0729 269.971 99.5909 268.09 101.95 268.09C103.122 268.09 104.145 268.684 104.755 269.756V265.153H106.422V277H104.871V275.432C104.244 276.538 103.188 277.165 101.95 277.165C99.5909 277.165 98.0729 275.251 98.0729 272.627ZM99.8054 272.627C99.8054 274.575 100.828 275.68 102.28 275.68C103.699 275.68 104.755 274.525 104.755 272.594C104.755 270.631 103.666 269.558 102.28 269.558C100.828 269.558 99.8054 270.647 99.8054 272.627ZM117.483 277V275.647C116.939 276.62 115.965 277.165 114.678 277.165C112.863 277.165 111.675 276.125 111.675 274.525C111.675 272.809 113.045 271.918 115.652 271.918C116.163 271.918 116.576 271.934 117.285 272.017V271.373C117.285 270.119 116.609 269.41 115.454 269.41C114.233 269.41 113.49 270.136 113.441 271.357H111.923C112.005 269.393 113.408 268.09 115.454 268.09C117.615 268.09 118.869 269.311 118.869 271.39V277H117.483ZM113.259 274.475C113.259 275.383 113.936 275.977 115.008 275.977C116.411 275.977 117.285 275.102 117.285 273.766V273.056C116.642 272.974 116.18 272.957 115.751 272.957C114.084 272.957 113.259 273.452 113.259 274.475ZM128.027 274.393C128.027 276.109 126.691 277.165 124.364 277.165C122.054 277.165 120.685 276.026 120.52 274.145H122.12C122.186 275.234 123.061 275.911 124.397 275.911C125.569 275.911 126.344 275.498 126.344 274.673C126.344 273.947 125.899 273.634 124.81 273.419L123.391 273.155C121.774 272.842 120.866 272.017 120.866 270.697C120.866 269.162 122.203 268.09 124.232 268.09C126.328 268.09 127.747 269.212 127.895 271.01H126.295C126.196 269.954 125.42 269.344 124.249 269.344C123.193 269.344 122.483 269.789 122.483 270.548C122.483 271.258 122.929 271.588 123.985 271.786L125.47 272.066C127.202 272.38 128.027 273.139 128.027 274.393ZM141.644 272.627C141.644 275.267 140.126 277.165 137.783 277.165C136.595 277.165 135.589 276.571 134.962 275.515V280.185H133.295V268.255H134.846V269.855C135.473 268.733 136.546 268.09 137.783 268.09C140.11 268.09 141.644 269.987 141.644 272.627ZM139.912 272.627C139.912 270.664 138.872 269.558 137.437 269.558C136.051 269.558 134.962 270.664 134.962 272.627C134.962 274.558 136.034 275.68 137.437 275.68C138.872 275.68 139.912 274.591 139.912 272.627ZM148.63 277V275.647C148.086 276.62 147.112 277.165 145.825 277.165C144.01 277.165 142.822 276.125 142.822 274.525C142.822 272.809 144.192 271.918 146.799 271.918C147.31 271.918 147.723 271.934 148.432 272.017V271.373C148.432 270.119 147.756 269.41 146.601 269.41C145.38 269.41 144.637 270.136 144.588 271.357H143.07C143.152 269.393 144.555 268.09 146.601 268.09C148.762 268.09 150.016 269.311 150.016 271.39V277H148.63ZM144.406 274.475C144.406 275.383 145.083 275.977 146.155 275.977C147.558 275.977 148.432 275.102 148.432 273.766V273.056C147.789 272.974 147.327 272.957 146.898 272.957C145.231 272.957 144.406 273.452 144.406 274.475ZM153.911 272.528V277H152.244V268.255H153.795V270.103C154.406 268.898 155.726 268.139 157.161 268.139V269.872C155.28 269.773 153.911 270.598 153.911 272.528ZM163.945 275.383V276.851C163.434 277.083 162.988 277.165 162.46 277.165C160.843 277.165 159.721 276.29 159.721 274.36V269.674H157.791V268.255H159.721V265.664H161.388V268.255H164.028V269.674H161.388V273.98C161.388 275.185 161.965 275.614 162.856 275.614C163.252 275.614 163.599 275.548 163.945 275.383ZM172.73 277.165C170.255 277.165 168.44 275.218 168.44 272.627C168.44 270.037 170.255 268.09 172.73 268.09C175.205 268.09 177.02 270.037 177.02 272.627C177.02 275.218 175.205 277.165 172.73 277.165ZM172.73 275.696C174.165 275.696 175.304 274.541 175.304 272.627C175.304 270.713 174.165 269.575 172.73 269.575C171.294 269.575 170.172 270.713 170.172 272.627C170.172 274.541 171.294 275.696 172.73 275.696ZM180.935 277H179.269V269.674H177.338V268.255H179.269V267.611C179.269 265.928 180.176 265.004 181.826 265.004C182.321 265.004 182.717 265.087 183.047 265.219V266.572C182.783 266.456 182.486 266.423 182.189 266.423C181.397 266.423 180.935 266.786 180.935 267.628V268.255H183.377V269.674H180.935V277ZM193.393 277.248C190.093 277.248 187.535 274.558 187.535 271.06C187.535 267.578 190.093 264.905 193.393 264.905C196.363 264.905 198.739 266.885 199.184 269.806H197.254C196.924 267.892 195.373 266.539 193.409 266.539C191.066 266.539 189.416 268.436 189.416 271.06C189.416 273.716 191.066 275.614 193.409 275.614C195.373 275.614 196.924 274.244 197.254 272.33H199.184C198.739 275.267 196.363 277.248 193.393 277.248ZM204.602 277.165C202.127 277.165 200.312 275.218 200.312 272.627C200.312 270.037 202.127 268.09 204.602 268.09C207.077 268.09 208.892 270.037 208.892 272.627C208.892 275.218 207.077 277.165 204.602 277.165ZM204.602 275.696C206.037 275.696 207.176 274.541 207.176 272.627C207.176 270.713 206.037 269.575 204.602 269.575C203.166 269.575 202.044 270.713 202.044 272.627C202.044 274.541 203.166 275.696 204.602 275.696ZM209.964 272.627C209.964 269.971 211.482 268.09 213.841 268.09C215.013 268.09 216.036 268.684 216.646 269.756V265.153H218.313V277H216.762V275.432C216.135 276.538 215.079 277.165 213.841 277.165C211.482 277.165 209.964 275.251 209.964 272.627ZM211.696 272.627C211.696 274.575 212.719 275.68 214.171 275.68C215.59 275.68 216.646 274.525 216.646 272.594C216.646 270.631 215.557 269.558 214.171 269.558C212.719 269.558 211.696 270.647 211.696 272.627ZM224.226 277.165C221.702 277.165 220.002 275.333 220.002 272.578C220.002 269.987 221.768 268.09 224.177 268.09C226.784 268.09 228.516 270.202 228.219 273.04H221.702C221.834 274.822 222.725 275.861 224.193 275.861C225.431 275.861 226.289 275.185 226.569 274.046H228.219C227.79 275.993 226.289 277.165 224.226 277.165ZM224.144 269.344C222.807 269.344 221.9 270.301 221.718 271.934H226.454C226.371 270.317 225.497 269.344 224.144 269.344ZM231.657 272.528V277H229.991V268.255H231.542V270.103C232.152 268.898 233.472 268.139 234.908 268.139V269.872C233.027 269.773 231.657 270.598 231.657 272.528ZM243.157 274.393C243.157 276.109 241.82 277.165 239.494 277.165C237.184 277.165 235.814 276.026 235.649 274.145H237.25C237.316 275.234 238.19 275.911 239.527 275.911C240.698 275.911 241.474 275.498 241.474 274.673C241.474 273.947 241.028 273.634 239.939 273.419L238.52 273.155C236.903 272.842 235.996 272.017 235.996 270.697C235.996 269.162 237.332 268.09 239.362 268.09C241.457 268.09 242.876 269.212 243.025 271.01H241.424C241.325 269.954 240.55 269.344 239.378 269.344C238.322 269.344 237.613 269.789 237.613 270.548C237.613 271.258 238.058 271.588 239.114 271.786L240.599 272.066C242.332 272.38 243.157 273.139 243.157 274.393ZM246.643 272.066V277H244.976V265.153H246.643V269.657C247.22 268.717 248.111 268.09 249.316 268.09C251.114 268.09 252.302 269.245 252.302 271.34V277H250.636V271.901C250.636 270.4 249.976 269.558 248.738 269.558C247.6 269.558 246.643 270.515 246.643 272.066ZM256.545 266.225C256.545 266.852 256.05 267.331 255.34 267.331C254.631 267.331 254.119 266.852 254.119 266.225C254.119 265.582 254.631 265.12 255.34 265.12C256.05 265.12 256.545 265.582 256.545 266.225ZM256.182 277H254.515V268.255H256.182V277ZM266.844 272.627C266.844 275.267 265.326 277.165 262.983 277.165C261.795 277.165 260.789 276.571 260.162 275.515V280.185H258.495V268.255H260.046V269.855C260.673 268.733 261.746 268.09 262.983 268.09C265.31 268.09 266.844 269.987 266.844 272.627ZM265.112 272.627C265.112 270.664 264.072 269.558 262.637 269.558C261.251 269.558 260.162 270.664 260.162 272.627C260.162 274.558 261.234 275.68 262.637 275.68C264.072 275.68 265.112 274.591 265.112 272.627ZM275.464 274.393C275.464 276.109 274.127 277.165 271.801 277.165C269.491 277.165 268.121 276.026 267.956 274.145H269.557C269.623 275.234 270.497 275.911 271.834 275.911C273.005 275.911 273.781 275.498 273.781 274.673C273.781 273.947 273.335 273.634 272.246 273.419L270.827 273.155C269.21 272.842 268.303 272.017 268.303 270.697C268.303 269.162 269.639 268.09 271.669 268.09C273.764 268.09 275.183 269.212 275.332 271.01H273.731C273.632 269.954 272.857 269.344 271.685 269.344C270.629 269.344 269.92 269.789 269.92 270.548C269.92 271.258 270.365 271.588 271.421 271.786L272.906 272.066C274.639 272.38 275.464 273.139 275.464 274.393ZM279.544 276.29C279.544 277.858 278.306 279.079 276.491 279.112V278.172C277.564 278.139 278.29 277.561 278.389 276.752C278.24 276.802 278.141 276.818 278.026 276.818C277.399 276.818 276.937 276.307 276.937 275.696C276.937 274.987 277.465 274.525 278.141 274.525C279.049 274.525 279.544 275.185 279.544 276.29ZM290.314 277V275.647C289.77 276.62 288.796 277.165 287.509 277.165C285.694 277.165 284.506 276.125 284.506 274.525C284.506 272.809 285.876 271.918 288.483 271.918C288.994 271.918 289.407 271.934 290.116 272.017V271.373C290.116 270.119 289.44 269.41 288.285 269.41C287.064 269.41 286.321 270.136 286.272 271.357H284.754C284.836 269.393 286.239 268.09 288.285 268.09C290.446 268.09 291.7 269.311 291.7 271.39V277H290.314ZM286.09 274.475C286.09 275.383 286.767 275.977 287.839 275.977C289.242 275.977 290.116 275.102 290.116 273.766V273.056C289.473 272.974 289.011 272.957 288.582 272.957C286.915 272.957 286.09 273.452 286.09 274.475ZM295.595 272.066V277H293.928V268.255H295.479V269.707C296.073 268.733 297.063 268.09 298.268 268.09C300.066 268.09 301.254 269.245 301.254 271.34V277H299.588V271.901C299.588 270.4 298.928 269.558 297.69 269.558C296.552 269.558 295.595 270.515 295.595 272.066ZM302.841 272.627C302.841 269.971 304.359 268.09 306.718 268.09C307.89 268.09 308.913 268.684 309.523 269.756V265.153H311.19V277H309.639V275.432C309.012 276.538 307.956 277.165 306.718 277.165C304.359 277.165 302.841 275.251 302.841 272.627ZM304.573 272.627C304.573 274.575 305.596 275.68 307.048 275.68C308.467 275.68 309.523 274.525 309.523 272.594C309.523 270.631 308.434 269.558 307.048 269.558C305.596 269.558 304.573 270.647 304.573 272.627ZM324.181 277L322.201 270.499L320.205 277H318.522L315.997 268.255H317.631L319.396 274.624L321.376 268.255H323.026L324.973 274.64L326.739 268.255H328.389L325.848 277H324.181ZM333.152 277.165C330.627 277.165 328.928 275.333 328.928 272.578C328.928 269.987 330.693 268.09 333.102 268.09C335.709 268.09 337.442 270.202 337.145 273.04H330.627C330.759 274.822 331.65 275.861 333.119 275.861C334.356 275.861 335.214 275.185 335.495 274.046H337.145C336.716 275.993 335.214 277.165 333.152 277.165ZM333.069 269.344C331.733 269.344 330.825 270.301 330.644 271.934H335.379C335.297 270.317 334.422 269.344 333.069 269.344ZM349.592 277L347.612 270.499L345.615 277H343.932L341.408 268.255H343.041L344.807 274.624L346.787 268.255H348.437L350.384 274.64L352.149 268.255H353.799L351.258 277H349.592ZM358.563 277.165C356.038 277.165 354.339 275.333 354.339 272.578C354.339 269.987 356.104 268.09 358.513 268.09C361.12 268.09 362.853 270.202 362.556 273.04H356.038C356.17 274.822 357.061 275.861 358.53 275.861C359.767 275.861 360.625 275.185 360.906 274.046H362.556C362.127 275.993 360.625 277.165 358.563 277.165ZM358.48 269.344C357.144 269.344 356.236 270.301 356.055 271.934H360.79C360.708 270.317 359.833 269.344 358.48 269.344ZM365.994 272.528V277H364.327V268.255H365.878V270.103C366.489 268.898 367.809 268.139 369.244 268.139V269.872C367.363 269.773 365.994 270.598 365.994 272.528ZM374.128 277.165C371.603 277.165 369.904 275.333 369.904 272.578C369.904 269.987 371.669 268.09 374.078 268.09C376.685 268.09 378.418 270.202 378.121 273.04H371.603C371.735 274.822 372.626 275.861 374.095 275.861C375.332 275.861 376.19 275.185 376.471 274.046H378.121C377.692 275.993 376.19 277.165 374.128 277.165ZM374.045 269.344C372.709 269.344 371.801 270.301 371.62 271.934H376.355C376.273 270.317 375.398 269.344 374.045 269.344ZM388.275 275.383V276.851C387.763 277.083 387.318 277.165 386.79 277.165C385.173 277.165 384.051 276.29 384.051 274.36V269.674H382.12V268.255H384.051V265.664H385.717V268.255H388.357V269.674H385.717V273.98C385.717 275.185 386.295 275.614 387.186 275.614C387.582 275.614 387.928 275.548 388.275 275.383ZM391.614 272.528V277H389.947V268.255H391.498V270.103C392.109 268.898 393.429 268.139 394.864 268.139V269.872C392.983 269.773 391.614 270.598 391.614 272.528ZM401.645 273.403V268.255H403.311V277H401.76V275.614C401.298 276.521 400.275 277.165 399.087 277.165C397.322 277.165 396.101 276.125 396.101 273.881V268.255H397.767V273.551C397.767 275.069 398.526 275.696 399.615 275.696C400.737 275.696 401.645 274.772 401.645 273.403ZM407.309 277H405.626V265.153H407.309V277ZM416.882 268.255L412.509 280.185H410.694L411.948 276.884L408.5 268.255H410.298L412.839 274.921L415.199 268.255H416.882ZM31.1845 298.225C31.1845 298.852 30.6895 299.331 29.98 299.331C29.2705 299.331 28.759 298.852 28.759 298.225C28.759 297.582 29.2705 297.12 29.98 297.12C30.6895 297.12 31.1845 297.582 31.1845 298.225ZM30.8215 309H29.155V300.255H30.8215V309ZM34.8015 309H33.135V300.255H34.686V301.707C35.28 300.7 36.2205 300.09 37.425 300.09C38.712 300.09 39.6855 300.75 40.0815 301.905C40.692 300.783 41.6985 300.09 43.035 300.09C44.8335 300.09 45.9885 301.261 45.9885 303.34V309H44.322V303.868C44.322 302.416 43.6785 301.558 42.4575 301.558C41.319 301.558 40.395 302.515 40.395 303.984V309H38.7285V303.868C38.7285 302.416 38.085 301.558 36.864 301.558C35.709 301.558 34.8015 302.515 34.8015 303.984V309ZM56.566 304.627C56.566 307.267 55.048 309.165 52.705 309.165C51.517 309.165 50.5105 308.571 49.8835 307.515V312.185H48.217V300.255H49.768V301.855C50.395 300.733 51.4675 300.09 52.705 300.09C55.0315 300.09 56.566 301.987 56.566 304.627ZM54.8335 304.627C54.8335 302.664 53.794 301.558 52.3585 301.558C50.9725 301.558 49.8835 302.664 49.8835 304.627C49.8835 306.558 50.956 307.68 52.3585 307.68C53.794 307.68 54.8335 306.591 54.8335 304.627ZM59.9221 304.528V309H58.2556V300.255H59.8066V302.103C60.4171 300.898 61.7371 300.139 63.1726 300.139V301.872C61.2916 301.773 59.9221 302.598 59.9221 304.528ZM68.0562 309.165C65.5317 309.165 63.8322 307.333 63.8322 304.578C63.8322 301.987 65.5977 300.09 68.0067 300.09C70.6137 300.09 72.3462 302.202 72.0492 305.04H65.5317C65.6637 306.822 66.5547 307.861 68.0232 307.861C69.2607 307.861 70.1187 307.185 70.3992 306.046H72.0492C71.6202 307.993 70.1187 309.165 68.0562 309.165ZM67.9737 301.344C66.6372 301.344 65.7297 302.301 65.5482 303.934H70.2837C70.2012 302.317 69.3267 301.344 67.9737 301.344ZM80.751 306.393C80.751 308.109 79.4145 309.165 77.088 309.165C74.778 309.165 73.4085 308.026 73.2435 306.145H74.844C74.91 307.234 75.7845 307.911 77.121 307.911C78.2925 307.911 79.068 307.498 79.068 306.673C79.068 305.947 78.6225 305.634 77.5335 305.419L76.1145 305.155C74.4975 304.842 73.59 304.017 73.59 302.697C73.59 301.162 74.9265 300.09 76.956 300.09C79.0515 300.09 80.4705 301.212 80.619 303.01H79.0185C78.9195 301.954 78.144 301.344 76.9725 301.344C75.9165 301.344 75.207 301.789 75.207 302.548C75.207 303.258 75.6525 303.588 76.7085 303.786L78.1935 304.066C79.926 304.38 80.751 305.139 80.751 306.393ZM89.5005 306.393C89.5005 308.109 88.164 309.165 85.8375 309.165C83.5275 309.165 82.158 308.026 81.993 306.145H83.5935C83.6595 307.234 84.534 307.911 85.8705 307.911C87.042 307.911 87.8175 307.498 87.8175 306.673C87.8175 305.947 87.372 305.634 86.283 305.419L84.864 305.155C83.247 304.842 82.3395 304.017 82.3395 302.697C82.3395 301.162 83.676 300.09 85.7055 300.09C87.801 300.09 89.22 301.212 89.3685 303.01H87.768C87.669 301.954 86.8935 301.344 85.722 301.344C84.666 301.344 83.9565 301.789 83.9565 302.548C83.9565 303.258 84.402 303.588 85.458 303.786L86.943 304.066C88.6755 304.38 89.5005 305.139 89.5005 306.393ZM94.917 309.165C92.3925 309.165 90.693 307.333 90.693 304.578C90.693 301.987 92.4585 300.09 94.8675 300.09C97.4745 300.09 99.207 302.202 98.91 305.04H92.3925C92.5245 306.822 93.4155 307.861 94.884 307.861C96.1215 307.861 96.9795 307.185 97.26 306.046H98.91C98.481 307.993 96.9795 309.165 94.917 309.165ZM94.8345 301.344C93.498 301.344 92.5905 302.301 92.409 303.934H97.1445C97.062 302.317 96.1875 301.344 94.8345 301.344ZM99.8937 304.627C99.8937 301.971 101.412 300.09 103.771 300.09C104.943 300.09 105.966 300.684 106.576 301.756V297.153H108.243V309H106.692V307.432C106.065 308.538 105.009 309.165 103.771 309.165C101.412 309.165 99.8937 307.251 99.8937 304.627ZM101.626 304.627C101.626 306.575 102.649 307.68 104.101 307.68C105.52 307.68 106.576 306.525 106.576 304.594C106.576 302.631 105.487 301.558 104.101 301.558C102.649 301.558 101.626 302.647 101.626 304.627ZM122.357 304.627C122.357 307.251 120.839 309.165 118.479 309.165C117.242 309.165 116.186 308.538 115.559 307.432V309H114.008V297.153H115.674V301.756C116.285 300.684 117.291 300.09 118.479 300.09C120.822 300.09 122.357 301.971 122.357 304.627ZM120.624 304.627C120.624 302.647 119.585 301.558 118.149 301.558C116.763 301.558 115.674 302.631 115.674 304.594C115.674 306.525 116.73 307.68 118.149 307.68C119.585 307.68 120.624 306.575 120.624 304.627ZM131.032 300.255L126.66 312.185H124.845L126.099 308.884L122.65 300.255H124.449L126.99 306.921L129.349 300.255H131.032ZM140.597 307.383V308.851C140.086 309.083 139.64 309.165 139.112 309.165C137.495 309.165 136.373 308.29 136.373 306.36V301.674H134.443V300.255H136.373V297.664H138.04V300.255H140.68V301.674H138.04V305.98C138.04 307.185 138.617 307.614 139.508 307.614C139.904 307.614 140.251 307.548 140.597 307.383ZM143.937 304.066V309H142.27V297.153H143.937V301.657C144.514 300.717 145.405 300.09 146.61 300.09C148.408 300.09 149.596 301.245 149.596 303.34V309H147.93V303.901C147.93 302.4 147.27 301.558 146.032 301.558C144.894 301.558 143.937 302.515 143.937 304.066ZM155.406 309.165C152.882 309.165 151.182 307.333 151.182 304.578C151.182 301.987 152.948 300.09 155.357 300.09C157.964 300.09 159.696 302.202 159.399 305.04H152.882C153.014 306.822 153.905 307.861 155.373 307.861C156.611 307.861 157.469 307.185 157.749 306.046H159.399C158.97 307.993 157.469 309.165 155.406 309.165ZM155.324 301.344C153.987 301.344 153.08 302.301 152.898 303.934H157.634C157.551 302.317 156.677 301.344 155.324 301.344ZM163.992 304.627C163.992 301.987 165.51 300.09 167.87 300.09C169.124 300.09 170.18 300.733 170.79 301.872V300.255H172.341V312.185H170.675V307.515C170.048 308.571 169.041 309.165 167.87 309.165C165.51 309.165 163.992 307.267 163.992 304.627ZM165.725 304.627C165.725 306.591 166.748 307.68 168.2 307.68C169.619 307.68 170.675 306.558 170.675 304.627C170.675 302.664 169.602 301.558 168.2 301.558C166.748 301.558 165.725 302.664 165.725 304.627ZM180.119 305.403V300.255H181.786V309H180.235V307.614C179.773 308.521 178.75 309.165 177.562 309.165C175.796 309.165 174.575 308.125 174.575 305.881V300.255H176.242V305.551C176.242 307.069 177.001 307.696 178.09 307.696C179.212 307.696 180.119 306.772 180.119 305.403ZM189.397 309V307.647C188.852 308.62 187.879 309.165 186.592 309.165C184.777 309.165 183.589 308.125 183.589 306.525C183.589 304.809 184.958 303.918 187.565 303.918C188.077 303.918 188.489 303.934 189.199 304.017V303.373C189.199 302.119 188.522 301.41 187.367 301.41C186.146 301.41 185.404 302.136 185.354 303.357H183.836C183.919 301.393 185.321 300.09 187.367 300.09C189.529 300.09 190.783 301.311 190.783 303.39V309H189.397ZM185.173 306.475C185.173 307.383 185.849 307.977 186.922 307.977C188.324 307.977 189.199 307.102 189.199 305.766V305.056C188.555 304.974 188.093 304.957 187.664 304.957C185.998 304.957 185.173 305.452 185.173 306.475ZM194.694 309H193.011V297.153H194.694V309ZM199.037 298.225C199.037 298.852 198.542 299.331 197.832 299.331C197.123 299.331 196.611 298.852 196.611 298.225C196.611 297.582 197.123 297.12 197.832 297.12C198.542 297.12 199.037 297.582 199.037 298.225ZM198.674 309H197.007V300.255H198.674V309ZM205.921 307.383V308.851C205.409 309.083 204.964 309.165 204.436 309.165C202.819 309.165 201.697 308.29 201.697 306.36V301.674H199.766V300.255H201.697V297.664H203.363V300.255H206.003V301.674H203.363V305.98C203.363 307.185 203.941 307.614 204.832 307.614C205.228 307.614 205.574 307.548 205.921 307.383ZM214.853 300.255L210.481 312.185H208.666L209.92 308.884L206.471 300.255H208.27L210.811 306.921L213.17 300.255H214.853ZM223.148 309.165C220.673 309.165 218.858 307.218 218.858 304.627C218.858 302.037 220.673 300.09 223.148 300.09C225.623 300.09 227.438 302.037 227.438 304.627C227.438 307.218 225.623 309.165 223.148 309.165ZM223.148 307.696C224.584 307.696 225.722 306.541 225.722 304.627C225.722 302.713 224.584 301.575 223.148 301.575C221.713 301.575 220.591 302.713 220.591 304.627C220.591 306.541 221.713 307.696 223.148 307.696ZM231.354 309H229.687V301.674H227.757V300.255H229.687V299.611C229.687 297.928 230.595 297.004 232.245 297.004C232.74 297.004 233.136 297.087 233.466 297.219V298.572C233.202 298.456 232.905 298.423 232.608 298.423C231.816 298.423 231.354 298.786 231.354 299.628V300.255H233.796V301.674H231.354V309ZM245.775 300.255L241.402 312.185H239.587L240.841 308.884L237.393 300.255H239.191L241.732 306.921L244.092 300.255H245.775ZM250.347 309.165C247.872 309.165 246.057 307.218 246.057 304.627C246.057 302.037 247.872 300.09 250.347 300.09C252.822 300.09 254.637 302.037 254.637 304.627C254.637 307.218 252.822 309.165 250.347 309.165ZM250.347 307.696C251.783 307.696 252.921 306.541 252.921 304.627C252.921 302.713 251.783 301.575 250.347 301.575C248.912 301.575 247.79 302.713 247.79 304.627C247.79 306.541 248.912 307.696 250.347 307.696ZM261.798 305.403V300.255H263.464V309H261.913V307.614C261.451 308.521 260.428 309.165 259.24 309.165C257.475 309.165 256.254 308.125 256.254 305.881V300.255H257.92V305.551C257.92 307.069 258.679 307.696 259.768 307.696C260.89 307.696 261.798 306.772 261.798 305.403ZM267.445 304.528V309H265.779V300.255H267.33V302.103C267.94 300.898 269.26 300.139 270.696 300.139V301.872C268.815 301.773 267.445 302.598 267.445 304.528ZM282.69 309L280.71 302.499L278.713 309H277.03L274.506 300.255H276.139L277.905 306.624L279.885 300.255H281.535L283.482 306.64L285.247 300.255H286.897L284.356 309H282.69ZM291.726 309.165C289.251 309.165 287.436 307.218 287.436 304.627C287.436 302.037 289.251 300.09 291.726 300.09C294.201 300.09 296.016 302.037 296.016 304.627C296.016 307.218 294.201 309.165 291.726 309.165ZM291.726 307.696C293.162 307.696 294.3 306.541 294.3 304.627C294.3 302.713 293.162 301.575 291.726 301.575C290.291 301.575 289.169 302.713 289.169 304.627C289.169 306.541 290.291 307.696 291.726 307.696ZM299.382 304.528V309H297.715V300.255H299.266V302.103C299.877 300.898 301.197 300.139 302.632 300.139V301.872C300.751 301.773 299.382 302.598 299.382 304.528ZM305.617 309H303.951V297.153H305.617V304.165L309.363 300.255H311.326L307.284 304.495L311.706 309H309.561L305.617 304.858V309ZM315.138 307.812C315.138 308.554 314.627 309.083 313.868 309.083C313.125 309.083 312.597 308.554 312.597 307.812C312.597 307.036 313.125 306.508 313.868 306.508C314.627 306.508 315.138 307.036 315.138 307.812ZM319.424 307.812C319.424 308.554 318.913 309.083 318.154 309.083C317.411 309.083 316.883 308.554 316.883 307.812C316.883 307.036 317.411 306.508 318.154 306.508C318.913 306.508 319.424 307.036 319.424 307.812ZM323.71 307.812C323.71 308.554 323.199 309.083 322.44 309.083C321.697 309.083 321.169 308.554 321.169 307.812C321.169 307.036 321.697 306.508 322.44 306.508C323.199 306.508 323.71 307.036 323.71 307.812ZM327.997 307.812C327.997 308.554 327.485 309.083 326.726 309.083C325.984 309.083 325.456 308.554 325.456 307.812C325.456 307.036 325.984 306.508 326.726 306.508C327.485 306.508 327.997 307.036 327.997 307.812ZM332.283 307.812C332.283 308.554 331.771 309.083 331.012 309.083C330.27 309.083 329.742 308.554 329.742 307.812C329.742 307.036 330.27 306.508 331.012 306.508C331.771 306.508 332.283 307.036 332.283 307.812Z" fill="black" fillOpacity="0.7"/>
<path d="M34.0325 202H30.287V190.153H34.0325C37.811 190.153 39.989 192.562 39.989 196.027C39.989 199.442 37.7285 202 34.0325 202ZM32.102 191.72V200.432H33.95C36.6725 200.432 38.141 198.749 38.141 196.027C38.141 193.354 36.689 191.72 33.95 191.72H32.102ZM45.3536 202.165C42.8291 202.165 41.1296 200.333 41.1296 197.578C41.1296 194.987 42.8951 193.09 45.3041 193.09C47.9111 193.09 49.6436 195.202 49.3466 198.04H42.8291C42.9611 199.822 43.8521 200.861 45.3206 200.861C46.5581 200.861 47.4161 200.185 47.6966 199.046H49.3466C48.9176 200.993 47.4161 202.165 45.3536 202.165ZM45.2711 194.344C43.9346 194.344 43.0271 195.301 42.8456 196.934H47.5811C47.4986 195.317 46.6241 194.344 45.2711 194.344ZM56.4149 202V200.647C55.8704 201.62 54.8969 202.165 53.6099 202.165C51.7949 202.165 50.6069 201.125 50.6069 199.525C50.6069 197.809 51.9764 196.918 54.5834 196.918C55.0949 196.918 55.5074 196.934 56.2169 197.017V196.373C56.2169 195.119 55.5404 194.41 54.3854 194.41C53.1644 194.41 52.4219 195.136 52.3724 196.357H50.8544C50.9369 194.393 52.3394 193.09 54.3854 193.09C56.5469 193.09 57.8009 194.311 57.8009 196.39V202H56.4149ZM52.1909 199.475C52.1909 200.383 52.8674 200.977 53.9399 200.977C55.3424 200.977 56.2169 200.102 56.2169 198.766V198.056C55.5734 197.974 55.1114 197.957 54.6824 197.957C53.0159 197.957 52.1909 198.452 52.1909 199.475ZM61.6955 197.528V202H60.029V193.255H61.58V195.103C62.1905 193.898 63.5105 193.139 64.946 193.139V194.872C63.065 194.773 61.6955 195.598 61.6955 197.528ZM77.7651 202L71.5281 192.743V202H69.8451V190.153H71.8251L77.9136 199.162V190.153H79.5966V202H77.7651ZM84.0532 191.225C84.0532 191.852 83.5582 192.331 82.8487 192.331C82.1392 192.331 81.6277 191.852 81.6277 191.225C81.6277 190.582 82.1392 190.12 82.8487 190.12C83.5582 190.12 84.0532 190.582 84.0532 191.225ZM83.6902 202H82.0237V193.255H83.6902V202ZM87.6701 202H86.0036V190.153H87.6701V197.165L91.4156 193.255H93.3791L89.3366 197.495L93.7586 202H91.6136L87.6701 197.858V202ZM96.9599 191.225C96.9599 191.852 96.4649 192.331 95.7554 192.331C95.0459 192.331 94.5344 191.852 94.5344 191.225C94.5344 190.582 95.0459 190.12 95.7554 190.12C96.4649 190.12 96.9599 190.582 96.9599 191.225ZM96.5969 202H94.9304V193.255H96.5969V202ZM103.844 200.383V201.851C103.332 202.083 102.887 202.165 102.359 202.165C100.742 202.165 99.6199 201.29 99.6199 199.36V194.674H97.6894V193.255H99.6199V190.664H101.286V193.255H103.926V194.674H101.286V198.98C101.286 200.185 101.864 200.614 102.755 200.614C103.151 200.614 103.497 200.548 103.844 200.383ZM107.183 197.066V202H105.517V190.153H107.183V194.657C107.761 193.717 108.652 193.09 109.856 193.09C111.655 193.09 112.843 194.245 112.843 196.34V202H111.176V196.901C111.176 195.4 110.516 194.558 109.279 194.558C108.14 194.558 107.183 195.515 107.183 197.066ZM120.352 202V200.647C119.808 201.62 118.834 202.165 117.547 202.165C115.732 202.165 114.544 201.125 114.544 199.525C114.544 197.809 115.914 196.918 118.521 196.918C119.032 196.918 119.445 196.934 120.154 197.017V196.373C120.154 195.119 119.478 194.41 118.323 194.41C117.102 194.41 116.359 195.136 116.31 196.357H114.792C114.874 194.393 116.277 193.09 118.323 193.09C120.484 193.09 121.738 194.311 121.738 196.39V202H120.352ZM116.128 199.475C116.128 200.383 116.805 200.977 117.877 200.977C119.28 200.977 120.154 200.102 120.154 198.766V198.056C119.511 197.974 119.049 197.957 118.62 197.957C116.953 197.957 116.128 198.452 116.128 199.475ZM126.227 201.29C126.227 202.858 124.99 204.079 123.175 204.112V203.172C124.247 203.139 124.973 202.561 125.072 201.752C124.924 201.802 124.825 201.818 124.709 201.818C124.082 201.818 123.62 201.307 123.62 200.696C123.62 199.987 124.148 199.525 124.825 199.525C125.732 199.525 126.227 200.185 126.227 201.29Z" fill="black" fillOpacity="0.7"/>
<rect x="28" y="335" width="412" height="14" rx="5" fill="#544D49" fillOpacity="0.2"/>
<rect x="29" y="374" width="302" height="14" rx="5" fill="#544D49" fillOpacity="0.2"/>
<rect x="29" y="425" width="99" height="36" rx="5" fill="#8980F5"/>
<path d="M61.152 449L60.112 446.152H55.152L54.096 449H52.32L56.72 437.512H58.656L63.024 449H61.152ZM57.648 439.432L55.68 444.728H59.584L57.648 439.432ZM67.339 449.176C65.019 449.176 63.387 447.352 63.387 444.76C63.387 442.2 65.051 440.36 67.339 440.36C69.435 440.36 70.955 441.752 71.259 443.96H69.563C69.387 442.6 68.539 441.784 67.355 441.784C65.963 441.784 65.051 442.968 65.051 444.76C65.051 446.568 65.963 447.736 67.355 447.736C68.555 447.736 69.387 446.936 69.579 445.56H71.259C70.971 447.8 69.467 449.176 67.339 449.176ZM76.1515 449.176C73.8315 449.176 72.1995 447.352 72.1995 444.76C72.1995 442.2 73.8635 440.36 76.1515 440.36C78.2475 440.36 79.7675 441.752 80.0715 443.96H78.3755C78.1995 442.6 77.3515 441.784 76.1675 441.784C74.7755 441.784 73.8635 442.968 73.8635 444.76C73.8635 446.568 74.7755 447.736 76.1675 447.736C77.3675 447.736 78.1995 446.936 78.3915 445.56H80.0715C79.7835 447.8 78.2795 449.176 76.1515 449.176ZM85.108 449.16C82.66 449.16 81.012 447.384 81.012 444.712C81.012 442.2 82.724 440.36 85.06 440.36C87.588 440.36 89.268 442.408 88.98 445.16H82.66C82.788 446.888 83.652 447.896 85.076 447.896C86.276 447.896 87.108 447.24 87.38 446.136H88.98C88.564 448.024 87.108 449.16 85.108 449.16ZM85.028 441.576C83.732 441.576 82.852 442.504 82.676 444.088H87.268C87.188 442.52 86.34 441.576 85.028 441.576ZM98.7941 444.76C98.7941 447.32 97.3221 449.16 95.0501 449.16C93.8981 449.16 92.9221 448.584 92.3141 447.56V452.088H90.6981V440.52H92.2021V442.072C92.8101 440.984 93.8501 440.36 95.0501 440.36C97.3061 440.36 98.7941 442.2 98.7941 444.76ZM97.1141 444.76C97.1141 442.856 96.1061 441.784 94.7141 441.784C93.3701 441.784 92.3141 442.856 92.3141 444.76C92.3141 446.632 93.3541 447.72 94.7141 447.72C96.1061 447.72 97.1141 446.664 97.1141 444.76ZM105.092 447.432V448.856C104.596 449.08 104.164 449.16 103.652 449.16C102.084 449.16 100.996 448.312 100.996 446.44V441.896H99.1235V440.52H100.996V438.008H102.612V440.52H105.172V441.896H102.612V446.072C102.612 447.24 103.172 447.656 104.036 447.656C104.42 447.656 104.756 447.592 105.092 447.432Z" fill="white"/>
<rect x="151" y="425" width="97" height="36" rx="5" fill="#F58080"/>
<path d="M179.008 449H177.248V437.512H181.536C184.176 437.512 185.76 438.808 185.76 441.096C185.76 442.744 184.72 444.008 182.976 444.424L186.096 449H183.984L181.12 444.68H179.008V449ZM179.008 438.984V443.208H181.424C183.056 443.208 183.984 442.488 183.984 441.096C183.984 439.72 183.056 438.984 181.424 438.984H179.008ZM190.749 449.16C188.301 449.16 186.653 447.384 186.653 444.712C186.653 442.2 188.365 440.36 190.701 440.36C193.229 440.36 194.909 442.408 194.621 445.16H188.301C188.429 446.888 189.293 447.896 190.717 447.896C191.917 447.896 192.749 447.24 193.021 446.136H194.621C194.205 448.024 192.749 449.16 190.749 449.16ZM190.669 441.576C189.373 441.576 188.493 442.504 188.317 444.088H192.909C192.829 442.52 191.981 441.576 190.669 441.576ZM198.307 438.552C198.307 439.16 197.827 439.624 197.139 439.624C196.451 439.624 195.955 439.16 195.955 438.552C195.955 437.928 196.451 437.48 197.139 437.48C197.827 437.48 198.307 437.928 198.307 438.552ZM197.939 440.52V449.416C197.939 451.352 196.883 452.248 195.331 452.248C194.979 452.248 194.579 452.232 194.211 452.088V450.568C194.483 450.696 194.787 450.744 195.139 450.744C195.859 450.744 196.323 450.36 196.323 449.384V440.52H197.939ZM203.671 449.16C201.223 449.16 199.575 447.384 199.575 444.712C199.575 442.2 201.287 440.36 203.623 440.36C206.151 440.36 207.831 442.408 207.543 445.16H201.223C201.351 446.888 202.215 447.896 203.639 447.896C204.839 447.896 205.671 447.24 205.943 446.136H207.543C207.127 448.024 205.671 449.16 203.671 449.16ZM203.591 441.576C202.295 441.576 201.414 442.504 201.239 444.088H205.831C205.751 442.52 204.903 441.576 203.591 441.576ZM212.448 449.176C210.128 449.176 208.496 447.352 208.496 444.76C208.496 442.2 210.16 440.36 212.448 440.36C214.544 440.36 216.064 441.752 216.368 443.96H214.672C214.496 442.6 213.648 441.784 212.464 441.784C211.072 441.784 210.16 442.968 210.16 444.76C210.16 446.568 211.072 447.736 212.464 447.736C213.664 447.736 214.496 446.936 214.688 445.56H216.368C216.08 447.8 214.576 449.176 212.448 449.176ZM222.779 447.432V448.856C222.283 449.08 221.851 449.16 221.339 449.16C219.771 449.16 218.683 448.312 218.683 446.44V441.896H216.811V440.52H218.683V438.008H220.299V440.52H222.859V441.896H220.299V446.072C220.299 447.24 220.859 447.656 221.723 447.656C222.107 447.656 222.443 447.592 222.779 447.432Z" fill="white"/>
<defs>
<linearGradient id="paint0_linear_138_11" x1="58" y1="29" x2="58" y2="89" gradientUnits="userSpaceOnUse">
<stop stop-color="#568EFB"/>
<stop offset="1" stop-color="#FFAD8B"/>
</linearGradient>
</defs>
</svg>
