<svg width="676" height="123" viewBox="0 0 676 123" fill="none" xmlns="http://www.w3.org/2000/svg">
<path d="M35.504 99.28C15.024 99.28 0.816 84.56 0.816 63.568C0.816 43.088 15.664 27.856 35.504 27.856C54.448 27.856 68.528 40.656 70.448 59.856H47.152C46.768 52.304 42.288 47.568 35.632 47.568C27.952 47.568 23.472 53.456 23.472 63.568C23.472 73.936 27.824 79.696 35.632 79.696C42.416 79.696 46.64 75.088 47.152 67.28H70.448C68.528 86.992 55.088 99.28 35.504 99.28ZM109.474 99.28C89.122 99.28 73.506 83.28 73.506 63.568C73.506 43.856 89.122 27.856 109.474 27.856C129.826 27.856 145.442 43.856 145.442 63.568C145.442 83.28 129.826 99.28 109.474 99.28ZM109.474 79.696C116.258 79.696 122.658 74.32 122.658 63.568C122.658 52.816 116.258 47.568 109.474 47.568C102.69 47.568 96.29 52.816 96.29 63.568C96.29 74.32 102.69 79.696 109.474 79.696ZM148.571 63.568C148.571 43.6 160.731 27.856 179.291 27.856C186.459 27.856 192.603 30.416 197.979 35.536V6.09599H219.867V98H199.771V90.192C194.139 96.08 187.355 99.28 179.291 99.28C160.731 99.28 148.571 83.28 148.571 63.568ZM171.355 63.568C171.355 74.32 177.883 79.568 184.539 79.568C191.323 79.568 197.723 74.32 197.723 63.44C197.723 52.432 191.195 47.568 184.539 47.568C177.883 47.568 171.355 52.56 171.355 63.568ZM262.717 99.152C241.469 99.152 227.261 84.816 227.261 63.44C227.261 42.832 242.109 27.856 262.589 27.856C285.373 27.856 300.605 46.416 296.637 69.072H249.917C251.069 77.776 255.165 82.128 262.205 82.128C268.349 82.128 272.445 79.568 274.365 74.576H296.253C292.029 90.32 279.869 99.152 262.717 99.152ZM262.077 43.984C255.549 43.984 251.709 47.696 250.173 55.376H273.213C272.957 48.464 268.605 43.984 262.077 43.984ZM326.566 66.256V98H304.678V29.136H324.774V41.296C330.022 33.232 340.902 28.624 351.91 28.624V51.408C336.422 49.872 326.566 51.024 326.566 66.256ZM418.799 74.576C418.799 89.808 407.535 99.28 386.799 99.28C366.063 99.28 354.799 89.552 353.391 73.68H374.383C374.383 79.44 379.631 83.152 387.183 83.152C392.175 83.152 396.655 82 396.655 78.416C396.655 75.344 394.351 74.064 389.615 73.168L376.047 70.736C364.015 68.56 356.335 61.648 356.335 50.512C356.335 37.2 367.599 27.856 385.647 27.856C403.695 27.856 416.239 37.456 417.519 52.816H396.527C396.015 47.312 391.791 43.984 385.775 43.984C380.655 43.984 377.327 45.392 377.327 48.464C377.327 51.408 379.503 52.304 383.855 53.072L398.447 55.76C411.759 58.192 418.799 64.72 418.799 74.576ZM448.696 61.776V98H426.808V6.09599H448.696V36.56C453.688 31.184 458.68 27.856 467.384 27.856C480.952 27.856 490.552 36.944 490.552 53.712V98H468.664V61.008C468.664 52.304 465.592 47.568 458.936 47.568C453.56 47.568 448.696 51.408 448.696 61.776ZM526.58 13.136C526.58 20.304 520.82 25.552 512.5 25.552C504.18 25.552 498.42 20.304 498.42 13.136C498.42 5.84 504.18 0.591995 512.5 0.591995C520.82 0.591995 526.58 5.84 526.58 13.136ZM523.636 98H501.748V29.136H523.636V98ZM606.734 63.568C606.734 83.536 594.574 99.28 576.014 99.28C568.846 99.28 562.702 96.72 557.326 91.6V122.704H535.438V29.136H555.534V36.944C561.166 31.056 567.95 27.856 576.014 27.856C594.574 27.856 606.734 43.856 606.734 63.568ZM583.95 63.568C583.95 52.816 577.422 47.568 570.766 47.568C563.982 47.568 557.582 52.816 557.582 63.696C557.582 74.704 564.11 79.568 570.766 79.568C577.422 79.568 583.95 74.576 583.95 63.568ZM675.184 74.576C675.184 89.808 663.92 99.28 643.184 99.28C622.448 99.28 611.184 89.552 609.776 73.68H630.768C630.768 79.44 636.016 83.152 643.568 83.152C648.56 83.152 653.04 82 653.04 78.416C653.04 75.344 650.736 74.064 646 73.168L632.432 70.736C620.4 68.56 612.72 61.648 612.72 50.512C612.72 37.2 623.984 27.856 642.032 27.856C660.08 27.856 672.624 37.456 673.904 52.816H652.912C652.4 47.312 648.176 43.984 642.16 43.984C637.04 43.984 633.712 45.392 633.712 48.464C633.712 51.408 635.888 52.304 640.24 53.072L654.832 55.76C668.144 58.192 675.184 64.72 675.184 74.576Z" fill="white" fill-opacity="0.2"/>
</svg>
