<svg width="500" height="508" viewBox="0 0 500 508" fill="none" xmlns="http://www.w3.org/2000/svg">
<rect width="500" height="508" rx="20" fill="white"/>
<path d="M65.912 41.768V52.448C65.912 56.528 63.32 59.36 58.832 59.36C54.272 59.36 51.728 56.528 51.728 52.448V41.768H55.376V52.52C55.376 54.656 56.408 56.096 58.832 56.096C61.232 56.096 62.264 54.656 62.264 52.52V41.768H65.912ZM81.665 52.592C81.665 56.384 79.433 59.24 75.977 59.24C74.465 59.24 73.169 58.592 72.209 57.344V63.632H68.873V46.184H71.945V48.056C72.929 46.688 74.345 45.944 75.977 45.944C79.433 45.944 81.665 48.824 81.665 52.592ZM78.233 52.592C78.233 50.192 76.865 48.896 75.233 48.896C73.601 48.896 72.233 50.168 72.233 52.592C72.233 55.016 73.601 56.264 75.233 56.264C76.865 56.264 78.233 55.04 78.233 52.592ZM88.9627 59.24C85.2667 59.24 82.7227 56.504 82.7227 52.592C82.7227 48.752 85.3627 45.944 88.9627 45.944C92.2987 45.944 94.7707 48.2 95.1787 51.656H91.6747C91.5067 49.952 90.4747 48.896 88.9627 48.896C87.2347 48.896 86.1307 50.312 86.1307 52.592C86.1307 54.896 87.2107 56.288 88.9627 56.288C90.4987 56.288 91.4827 55.28 91.6747 53.528H95.1787C94.7947 57.056 92.3947 59.24 88.9627 59.24ZM102.698 59.24C98.9776 59.24 96.1936 56.312 96.1936 52.592C96.1936 48.848 98.9776 45.944 102.698 45.944C106.418 45.944 109.202 48.848 109.202 52.592C109.202 56.312 106.418 59.24 102.698 59.24ZM102.698 56.288C104.354 56.288 105.77 54.968 105.77 52.592C105.77 50.216 104.354 48.92 102.698 48.92C101.042 48.92 99.6256 50.216 99.6256 52.592C99.6256 54.968 101.042 56.288 102.698 56.288ZM114.427 59H111.091V46.184H114.163V48.008C115.099 46.712 116.299 45.944 118.003 45.944C119.755 45.944 121.099 46.76 121.747 48.224C122.755 46.808 124.051 45.944 125.971 45.944C128.563 45.944 130.315 47.648 130.315 50.72V59H127.003V51.776C127.003 49.976 126.235 48.896 124.771 48.896C123.451 48.896 122.371 49.928 122.371 51.848V59H119.059V51.776C119.059 49.976 118.291 48.896 116.827 48.896C115.483 48.896 114.427 49.928 114.427 51.848V59ZM136.793 43.208C136.793 44.336 135.881 45.176 134.561 45.176C133.265 45.176 132.353 44.336 132.353 43.208C132.353 42.032 133.265 41.192 134.561 41.192C135.881 41.192 136.793 42.032 136.793 43.208ZM136.265 59H132.929V46.184H136.265V59ZM142.329 52.016V59H138.993V46.184H142.065V48.008C143.001 46.736 144.321 45.944 146.001 45.944C148.569 45.944 150.345 47.624 150.345 50.72V59H147.033V51.848C147.033 49.952 146.289 48.896 144.777 48.896C143.457 48.896 142.329 49.952 142.329 52.016ZM158.428 63.872C154.972 63.872 152.668 62 152.524 59.048H155.74C155.884 60.512 156.82 61.28 158.404 61.28C160.252 61.28 161.212 60.296 161.212 58.448V56.576C160.516 57.8 159.196 58.52 157.636 58.52C154.492 58.52 152.14 55.856 152.14 52.232C152.14 48.512 154.348 45.944 157.516 45.944C159.244 45.944 160.54 46.616 161.476 47.936V46.184H164.524V58.4C164.524 61.808 162.22 63.872 158.428 63.872ZM155.476 52.232C155.476 54.32 156.556 55.64 158.284 55.64C160.036 55.64 161.188 54.272 161.188 52.256C161.188 50.168 160.036 48.824 158.284 48.824C156.58 48.824 155.476 50.144 155.476 52.232ZM179.99 59.36C175.142 59.36 171.35 55.424 171.35 50.36C171.35 45.32 175.142 41.408 179.99 41.408C184.526 41.408 188.078 44.432 188.678 48.848H184.814C184.406 46.376 182.486 44.672 180.038 44.672C177.086 44.672 175.094 47 175.094 50.36C175.094 53.744 177.086 56.096 180.038 56.096C182.486 56.096 184.382 54.368 184.814 51.896H188.678C188.078 56.36 184.526 59.36 179.99 59.36ZM196.361 59.24C192.641 59.24 189.857 56.312 189.857 52.592C189.857 48.848 192.641 45.944 196.361 45.944C200.081 45.944 202.865 48.848 202.865 52.592C202.865 56.312 200.081 59.24 196.361 59.24ZM196.361 56.288C198.017 56.288 199.433 54.968 199.433 52.592C199.433 50.216 198.017 48.92 196.361 48.92C194.705 48.92 193.289 50.216 193.289 52.592C193.289 54.968 194.705 56.288 196.361 56.288ZM203.914 52.592C203.914 48.8 206.146 45.944 209.602 45.944C211.138 45.944 212.434 46.616 213.394 47.84V41.768H216.706V59H213.658V57.152C212.65 58.496 211.258 59.24 209.602 59.24C206.146 59.24 203.914 56.336 203.914 52.592ZM207.346 52.592C207.346 54.992 208.714 56.264 210.346 56.264C212.002 56.264 213.37 54.968 213.37 52.544C213.37 50.12 211.978 48.896 210.346 48.896C208.714 48.896 207.346 50.144 207.346 52.592ZM225.012 59.216C221.172 59.216 218.604 56.552 218.604 52.544C218.604 48.728 221.268 45.944 224.964 45.944C229.02 45.944 231.708 49.232 231.108 53.408H222.012C222.228 55.496 223.236 56.648 224.94 56.648C226.404 56.648 227.388 55.928 227.772 54.656H231.084C230.364 57.56 228.132 59.216 225.012 59.216ZM224.892 48.392C223.332 48.392 222.348 49.4 222.06 51.296H227.58C227.484 49.52 226.476 48.392 224.892 48.392ZM241.814 59H238.166V41.768H244.91C249.254 41.768 251.774 43.784 251.774 47.36C251.774 49.688 250.334 51.536 247.886 52.352L252.326 59H247.982L244.094 52.904H241.814V59ZM241.814 44.792V49.904H244.742C246.95 49.904 248.126 49.04 248.126 47.36C248.126 45.656 246.95 44.792 244.742 44.792H241.814ZM259.097 59.216C255.257 59.216 252.689 56.552 252.689 52.544C252.689 48.728 255.353 45.944 259.049 45.944C263.105 45.944 265.793 49.232 265.193 53.408H256.097C256.313 55.496 257.321 56.648 259.025 56.648C260.489 56.648 261.473 55.928 261.857 54.656H265.169C264.449 57.56 262.217 59.216 259.097 59.216ZM258.977 48.392C257.417 48.392 256.433 49.4 256.145 51.296H261.665C261.569 49.52 260.561 48.392 258.977 48.392ZM278.286 46.184L273.582 59H269.934L265.206 46.184H268.806L271.854 55.208L274.926 46.184H278.286ZM283.374 43.208C283.374 44.336 282.462 45.176 281.142 45.176C279.846 45.176 278.934 44.336 278.934 43.208C278.934 42.032 279.846 41.192 281.142 41.192C282.462 41.192 283.374 42.032 283.374 43.208ZM282.846 59H279.51V46.184H282.846V59ZM291.142 59.216C287.302 59.216 284.734 56.552 284.734 52.544C284.734 48.728 287.398 45.944 291.094 45.944C295.15 45.944 297.838 49.232 297.238 53.408H288.142C288.358 55.496 289.366 56.648 291.07 56.648C292.534 56.648 293.518 55.928 293.902 54.656H297.214C296.494 57.56 294.262 59.216 291.142 59.216ZM291.022 48.392C289.462 48.392 288.478 49.4 288.19 51.296H293.71C293.614 49.52 292.606 48.392 291.022 48.392ZM309.417 59L306.993 50.672L304.593 59H301.257L297.609 46.184H300.849L303.033 54.296L305.385 46.184H308.673L310.953 54.296L313.113 46.184H316.401L312.729 59H309.417ZM336.124 53.648C336.124 56.936 333.484 59.24 329.164 59.24C324.82 59.24 322.108 56.912 321.844 53.264H325.54C325.636 55.16 326.86 56.384 329.092 56.384C330.94 56.384 332.26 55.568 332.26 54.176C332.26 53.096 331.42 52.448 329.956 52.16L327.124 51.608C324.508 51.104 322.492 49.688 322.492 46.832C322.492 43.76 325.204 41.552 328.924 41.552C332.788 41.552 335.62 43.808 335.86 47.408H332.164C332.044 45.608 330.796 44.384 328.972 44.384C327.196 44.384 326.188 45.392 326.188 46.592C326.188 47.768 327.268 48.272 328.516 48.512L331.468 49.112C334.492 49.712 336.124 51.104 336.124 53.648ZM343.854 59.216C340.014 59.216 337.446 56.552 337.446 52.544C337.446 48.728 340.11 45.944 343.806 45.944C347.862 45.944 350.55 49.232 349.95 53.408H340.854C341.07 55.496 342.078 56.648 343.782 56.648C345.246 56.648 346.23 55.928 346.614 54.656H349.926C349.206 57.56 346.974 59.216 343.854 59.216ZM343.734 48.392C342.174 48.392 341.19 49.4 340.902 51.296H346.422C346.326 49.52 345.318 48.392 343.734 48.392ZM362.769 54.896C362.769 57.584 360.729 59.24 357.081 59.24C353.433 59.24 351.393 57.488 351.129 54.632H354.321C354.345 55.952 355.473 56.792 357.129 56.792C358.425 56.792 359.409 56.384 359.409 55.472C359.409 54.656 358.881 54.32 357.657 54.08L355.353 53.648C353.049 53.24 351.657 51.968 351.657 49.976C351.657 47.6 353.697 45.944 356.889 45.944C360.105 45.944 362.313 47.648 362.553 50.408H359.361C359.241 49.16 358.305 48.392 356.889 48.392C355.665 48.392 354.849 48.848 354.849 49.664C354.849 50.432 355.377 50.744 356.529 50.96L359.001 51.416C361.497 51.896 362.769 53.048 362.769 54.896ZM375.63 54.896C375.63 57.584 373.59 59.24 369.942 59.24C366.294 59.24 364.254 57.488 363.99 54.632H367.182C367.206 55.952 368.334 56.792 369.99 56.792C371.286 56.792 372.27 56.384 372.27 55.472C372.27 54.656 371.742 54.32 370.518 54.08L368.214 53.648C365.91 53.24 364.518 51.968 364.518 49.976C364.518 47.6 366.558 45.944 369.75 45.944C372.966 45.944 375.174 47.648 375.414 50.408H372.222C372.102 49.16 371.166 48.392 369.75 48.392C368.526 48.392 367.71 48.848 367.71 49.664C367.71 50.432 368.238 50.744 369.39 50.96L371.862 51.416C374.358 51.896 375.63 53.048 375.63 54.896ZM381.532 43.208C381.532 44.336 380.62 45.176 379.3 45.176C378.004 45.176 377.092 44.336 377.092 43.208C377.092 42.032 378.004 41.192 379.3 41.192C380.62 41.192 381.532 42.032 381.532 43.208ZM381.004 59H377.668V46.184H381.004V59ZM389.396 59.24C385.676 59.24 382.892 56.312 382.892 52.592C382.892 48.848 385.676 45.944 389.396 45.944C393.116 45.944 395.9 48.848 395.9 52.592C395.9 56.312 393.116 59.24 389.396 59.24ZM389.396 56.288C391.052 56.288 392.468 54.968 392.468 52.592C392.468 50.216 391.052 48.92 389.396 48.92C387.74 48.92 386.324 50.216 386.324 52.592C386.324 54.968 387.74 56.288 389.396 56.288ZM401.125 52.016V59H397.789V46.184H400.861V48.008C401.797 46.736 403.117 45.944 404.797 45.944C407.365 45.944 409.141 47.624 409.141 50.72V59H405.829V51.848C405.829 49.952 405.085 48.896 403.573 48.896C402.253 48.896 401.125 49.952 401.125 52.016ZM422.6 54.896C422.6 57.584 420.56 59.24 416.912 59.24C413.264 59.24 411.224 57.488 410.96 54.632H414.152C414.176 55.952 415.304 56.792 416.96 56.792C418.256 56.792 419.24 56.384 419.24 55.472C419.24 54.656 418.712 54.32 417.488 54.08L415.184 53.648C412.88 53.24 411.488 51.968 411.488 49.976C411.488 47.6 413.528 45.944 416.72 45.944C419.936 45.944 422.144 47.648 422.384 50.408H419.192C419.072 49.16 418.136 48.392 416.72 48.392C415.496 48.392 414.68 48.848 414.68 49.664C414.68 50.432 415.208 50.744 416.36 50.96L418.832 51.416C421.328 51.896 422.6 53.048 422.6 54.896Z" fill="#544D49"/>
<path d="M55.02 230H52.98V218.24H50.36V216.48H55.02V230ZM66.3816 228.2V230H57.6416V228.84L61.8616 224.28C63.4616 222.54 64.0816 221.6 64.0816 220.38C64.0816 219.04 63.1416 218.1 61.7616 218.1C60.2616 218.1 59.2616 219.08 59.2616 220.58H57.2816C57.2816 218.08 59.1616 216.28 61.8416 216.28C64.3616 216.28 66.2016 217.92 66.2016 220.14C66.2016 221.68 65.6216 222.76 63.4016 225.12L60.6816 228.2H66.3816ZM74.6456 228.04V229.82C74.0256 230.1 73.4856 230.2 72.8456 230.2C70.8856 230.2 69.5256 229.14 69.5256 226.8V221.12H67.1856V219.4H69.5256V216.26H71.5456V219.4H74.7456V221.12H71.5456V226.34C71.5456 227.8 72.2456 228.32 73.3256 228.32C73.8056 228.32 74.2256 228.24 74.6456 228.04ZM78.6934 224.02V230H76.6734V215.64H78.6934V221.1C79.3934 219.96 80.4734 219.2 81.9334 219.2C84.1134 219.2 85.5534 220.6 85.5534 223.14V230H83.5334V223.82C83.5334 222 82.7334 220.98 81.2334 220.98C79.8534 220.98 78.6934 222.14 78.6934 224.02ZM99.1356 230L94.5956 219.02V230H92.5756V215.64H95.2756L100.096 227.3L104.896 215.64H107.616V230H105.576V219L101.016 230H99.1356ZM116.98 230V228.36C116.32 229.54 115.14 230.2 113.58 230.2C111.38 230.2 109.94 228.94 109.94 227C109.94 224.92 111.6 223.84 114.76 223.84C115.38 223.84 115.88 223.86 116.74 223.96V223.18C116.74 221.66 115.92 220.8 114.52 220.8C113.04 220.8 112.14 221.68 112.08 223.16H110.24C110.34 220.78 112.04 219.2 114.52 219.2C117.14 219.2 118.66 220.68 118.66 223.2V230H116.98ZM111.86 226.94C111.86 228.04 112.68 228.76 113.98 228.76C115.68 228.76 116.74 227.7 116.74 226.08V225.22C115.96 225.12 115.4 225.1 114.88 225.1C112.86 225.1 111.86 225.7 111.86 226.94ZM129.829 219.4L124.529 233.86H122.329L123.849 229.86L119.669 219.4H121.849L124.929 227.48L127.789 219.4H129.829ZM132.695 229.14C132.695 231.04 131.195 232.52 128.995 232.56V231.42C130.295 231.38 131.175 230.68 131.295 229.7C131.115 229.76 130.995 229.78 130.855 229.78C130.095 229.78 129.535 229.16 129.535 228.42C129.535 227.56 130.175 227 130.995 227C132.095 227 132.695 227.8 132.695 229.14ZM147.71 228.2V230H138.97V228.84L143.19 224.28C144.79 222.54 145.41 221.6 145.41 220.38C145.41 219.04 144.47 218.1 143.09 218.1C141.59 218.1 140.59 219.08 140.59 220.58H138.61C138.61 218.08 140.49 216.28 143.17 216.28C145.69 216.28 147.53 217.92 147.53 220.14C147.53 221.68 146.95 222.76 144.73 225.12L142.01 228.2H147.71ZM149.574 223.26C149.574 218.78 151.354 216.28 154.554 216.28C157.754 216.28 159.554 218.78 159.554 223.26C159.554 227.74 157.794 230.2 154.554 230.2C151.314 230.2 149.574 227.74 149.574 223.26ZM151.654 223.26C151.654 226.6 152.654 228.38 154.554 228.38C156.454 228.38 157.474 226.62 157.474 223.26C157.474 219.88 156.454 218.1 154.554 218.1C152.694 218.1 151.654 219.88 151.654 223.26ZM170.307 228.2V230H161.567V228.84L165.787 224.28C167.387 222.54 168.007 221.6 168.007 220.38C168.007 219.04 167.067 218.1 165.687 218.1C164.187 218.1 163.187 219.08 163.187 220.58H161.207C161.207 218.08 163.087 216.28 165.767 216.28C168.287 216.28 170.127 217.92 170.127 220.14C170.127 221.68 169.547 222.76 167.327 225.12L164.607 228.2H170.307ZM181.66 227.02H179.82V230H177.8V227.02H171.3V225.6L178.26 216.48H179.82V225.26H181.66V227.02ZM173.56 225.26H177.8V219.54L173.56 225.26ZM325.333 230H323.293V218.24H320.673V216.48H325.333V230ZM336.694 228.2V230H327.954V228.84L332.174 224.28C333.774 222.54 334.394 221.6 334.394 220.38C334.394 219.04 333.454 218.1 332.074 218.1C330.574 218.1 329.574 219.08 329.574 220.58H327.594C327.594 218.08 329.474 216.28 332.154 216.28C334.674 216.28 336.514 217.92 336.514 220.14C336.514 221.68 335.934 222.76 333.714 225.12L330.994 228.2H336.694ZM341.718 220.92C341.718 221.82 341.098 222.46 340.178 222.46C339.278 222.46 338.638 221.82 338.638 220.92C338.638 220 339.278 219.36 340.178 219.36C341.098 219.36 341.718 220 341.718 220.92ZM341.718 228.56C341.718 229.46 341.098 230.1 340.178 230.1C339.278 230.1 338.638 229.46 338.638 228.56C338.638 227.62 339.278 226.98 340.178 226.98C341.098 226.98 341.718 227.62 341.718 228.56ZM343.753 223.26C343.753 218.78 345.533 216.28 348.733 216.28C351.933 216.28 353.733 218.78 353.733 223.26C353.733 227.74 351.973 230.2 348.733 230.2C345.493 230.2 343.753 227.74 343.753 223.26ZM345.833 223.26C345.833 226.6 346.833 228.38 348.733 228.38C350.633 228.38 351.653 226.62 351.653 223.26C351.653 219.88 350.633 218.1 348.733 218.1C346.873 218.1 345.833 219.88 345.833 223.26ZM355.687 223.26C355.687 218.78 357.467 216.28 360.667 216.28C363.867 216.28 365.667 218.78 365.667 223.26C365.667 227.74 363.907 230.2 360.667 230.2C357.427 230.2 355.687 227.74 355.687 223.26ZM357.767 223.26C357.767 226.6 358.767 228.38 360.667 228.38C362.567 228.38 363.587 226.62 363.587 223.26C363.587 219.88 362.567 218.1 360.667 218.1C358.807 218.1 357.767 219.88 357.767 223.26ZM377.36 225H374.58V230H372.38V215.64H377.36C380.58 215.64 382.66 217.28 382.66 220.28C382.66 223.3 380.58 225 377.36 225ZM377.34 217.5H374.58V223.14H377.34C379.28 223.14 380.46 222.08 380.46 220.3C380.46 218.52 379.28 217.5 377.34 217.5ZM391.421 230L386.881 219.02V230H384.861V215.64H387.561L392.381 227.3L397.181 215.64H399.901V230H397.861V219L393.301 230H391.421ZM409.385 230H407.185V215.64H409.385V230ZM422.998 225.8C422.998 228.3 420.998 230.2 417.518 230.2C414.058 230.2 411.958 228.3 411.778 225.44H414.018C414.118 227.26 415.278 228.44 417.478 228.44C419.298 228.44 420.658 227.58 420.658 226.1C420.658 224.9 419.878 224.3 418.218 223.94L416.138 223.54C414.118 223.14 412.278 222.12 412.278 219.68C412.278 217.26 414.398 215.44 417.378 215.44C420.358 215.44 422.618 217.26 422.798 220.12H420.558C420.438 218.4 419.198 217.2 417.398 217.2C415.538 217.2 414.518 218.3 414.518 219.54C414.518 220.9 415.698 221.38 417.038 221.66L419.158 222.08C421.618 222.58 422.998 223.66 422.998 225.8ZM430.737 230H428.537V217.62H423.857V215.64H435.417V217.62H430.737V230Z" fill="black" fill-opacity="0.75"/>
<path d="M60.296 286L59.126 282.796H53.546L52.358 286H50.36L55.31 273.076H57.488L62.402 286H60.296ZM56.354 275.236L54.14 281.194H58.532L56.354 275.236ZM71.563 286.198C68.953 286.198 67.117 284.146 67.117 281.23C67.117 278.35 68.989 276.28 71.563 276.28C73.921 276.28 75.631 277.846 75.973 280.33H74.065C73.867 278.8 72.913 277.882 71.581 277.882C70.015 277.882 68.989 279.214 68.989 281.23C68.989 283.264 70.015 284.578 71.581 284.578C72.931 284.578 73.867 283.678 74.083 282.13H75.973C75.649 284.65 73.957 286.198 71.563 286.198ZM81.7111 286.18C79.0111 286.18 77.0311 284.056 77.0311 281.23C77.0311 278.404 79.0111 276.28 81.7111 276.28C84.4111 276.28 86.3911 278.404 86.3911 281.23C86.3911 284.056 84.4111 286.18 81.7111 286.18ZM81.7111 284.578C83.2771 284.578 84.5191 283.318 84.5191 281.23C84.5191 279.142 83.2771 277.9 81.7111 277.9C80.1451 277.9 78.9211 279.142 78.9211 281.23C78.9211 283.318 80.1451 284.578 81.7111 284.578ZM87.5604 281.23C87.5604 278.332 89.2164 276.28 91.7904 276.28C93.0684 276.28 94.1844 276.928 94.8504 278.098V273.076H96.6684V286H94.9764V284.29C94.2924 285.496 93.1404 286.18 91.7904 286.18C89.2164 286.18 87.5604 284.092 87.5604 281.23ZM89.4504 281.23C89.4504 283.354 90.5664 284.56 92.1504 284.56C93.6984 284.56 94.8504 283.3 94.8504 281.194C94.8504 279.052 93.6624 277.882 92.1504 277.882C90.5664 277.882 89.4504 279.07 89.4504 281.23ZM103.12 286.18C100.366 286.18 98.5115 284.182 98.5115 281.176C98.5115 278.35 100.438 276.28 103.066 276.28C105.91 276.28 107.8 278.584 107.476 281.68H100.366C100.51 283.624 101.482 284.758 103.084 284.758C104.434 284.758 105.37 284.02 105.676 282.778H107.476C107.008 284.902 105.37 286.18 103.12 286.18ZM103.03 277.648C101.572 277.648 100.582 278.692 100.384 280.474H105.55C105.46 278.71 104.506 277.648 103.03 277.648ZM114.988 281.122V286H113.17V276.46H114.862V278.476C115.528 277.162 116.968 276.334 118.534 276.334V278.224C116.482 278.116 114.988 279.016 114.988 281.122ZM123.862 286.18C121.108 286.18 119.254 284.182 119.254 281.176C119.254 278.35 121.18 276.28 123.808 276.28C126.652 276.28 128.542 278.584 128.218 281.68H121.108C121.252 283.624 122.224 284.758 123.826 284.758C125.176 284.758 126.112 284.02 126.418 282.778H128.218C127.75 284.902 126.112 286.18 123.862 286.18ZM123.772 277.648C122.314 277.648 121.324 278.692 121.126 280.474H126.292C126.202 278.71 125.248 277.648 123.772 277.648ZM137.772 276.46L134.19 286H132.21L128.628 276.46H130.59L133.236 283.912L135.918 276.46H137.772ZM141.277 274.246C141.277 274.93 140.737 275.452 139.963 275.452C139.189 275.452 138.631 274.93 138.631 274.246C138.631 273.544 139.189 273.04 139.963 273.04C140.737 273.04 141.277 273.544 141.277 274.246ZM140.881 286H139.063V276.46H140.881V286ZM147.329 286.18C144.575 286.18 142.721 284.182 142.721 281.176C142.721 278.35 144.647 276.28 147.275 276.28C150.119 276.28 152.009 278.584 151.685 281.68H144.575C144.719 283.624 145.691 284.758 147.293 284.758C148.643 284.758 149.579 284.02 149.885 282.778H151.685C151.217 284.902 149.579 286.18 147.329 286.18ZM147.239 277.648C145.781 277.648 144.791 278.692 144.593 280.474H149.759C149.669 278.71 148.715 277.648 147.239 277.648ZM161.29 286L159.13 278.908L156.952 286H155.116L152.362 276.46H154.144L156.07 283.408L158.23 276.46H160.03L162.154 283.426L164.08 276.46H165.88L163.108 286H161.29ZM178.685 283.156C178.685 285.028 177.227 286.18 174.689 286.18C172.169 286.18 170.675 284.938 170.495 282.886H172.241C172.313 284.074 173.267 284.812 174.725 284.812C176.003 284.812 176.849 284.362 176.849 283.462C176.849 282.67 176.363 282.328 175.175 282.094L173.627 281.806C171.863 281.464 170.873 280.564 170.873 279.124C170.873 277.45 172.331 276.28 174.545 276.28C176.831 276.28 178.379 277.504 178.541 279.466H176.795C176.687 278.314 175.841 277.648 174.563 277.648C173.411 277.648 172.637 278.134 172.637 278.962C172.637 279.736 173.123 280.096 174.275 280.312L175.895 280.618C177.785 280.96 178.685 281.788 178.685 283.156ZM184.594 286.18C181.84 286.18 179.986 284.182 179.986 281.176C179.986 278.35 181.912 276.28 184.54 276.28C187.384 276.28 189.274 278.584 188.95 281.68H181.84C181.984 283.624 182.956 284.758 184.558 284.758C185.908 284.758 186.844 284.02 187.15 282.778H188.95C188.482 284.902 186.844 286.18 184.594 286.18ZM184.504 277.648C183.046 277.648 182.056 278.692 181.858 280.474H187.024C186.934 278.71 185.98 277.648 184.504 277.648ZM198.443 283.156C198.443 285.028 196.985 286.18 194.447 286.18C191.927 286.18 190.433 284.938 190.253 282.886H191.999C192.071 284.074 193.025 284.812 194.483 284.812C195.761 284.812 196.607 284.362 196.607 283.462C196.607 282.67 196.121 282.328 194.933 282.094L193.385 281.806C191.621 281.464 190.631 280.564 190.631 279.124C190.631 277.45 192.089 276.28 194.303 276.28C196.589 276.28 198.137 277.504 198.299 279.466H196.553C196.445 278.314 195.599 277.648 194.321 277.648C193.169 277.648 192.395 278.134 192.395 278.962C192.395 279.736 192.881 280.096 194.033 280.312L195.653 280.618C197.543 280.96 198.443 281.788 198.443 283.156ZM207.988 283.156C207.988 285.028 206.53 286.18 203.992 286.18C201.472 286.18 199.978 284.938 199.798 282.886H201.544C201.616 284.074 202.57 284.812 204.028 284.812C205.306 284.812 206.152 284.362 206.152 283.462C206.152 282.67 205.666 282.328 204.478 282.094L202.93 281.806C201.166 281.464 200.176 280.564 200.176 279.124C200.176 277.45 201.634 276.28 203.848 276.28C206.134 276.28 207.682 277.504 207.844 279.466H206.098C205.99 278.314 205.144 277.648 203.866 277.648C202.714 277.648 201.94 278.134 201.94 278.962C201.94 279.736 202.426 280.096 203.578 280.312L205.198 280.618C207.088 280.96 207.988 281.788 207.988 283.156ZM212.187 274.246C212.187 274.93 211.647 275.452 210.873 275.452C210.099 275.452 209.541 274.93 209.541 274.246C209.541 273.544 210.099 273.04 210.873 273.04C211.647 273.04 212.187 273.544 212.187 274.246ZM211.791 286H209.973V276.46H211.791V286ZM218.311 286.18C215.611 286.18 213.631 284.056 213.631 281.23C213.631 278.404 215.611 276.28 218.311 276.28C221.011 276.28 222.991 278.404 222.991 281.23C222.991 284.056 221.011 286.18 218.311 286.18ZM218.311 284.578C219.877 284.578 221.119 283.318 221.119 281.23C221.119 279.142 219.877 277.9 218.311 277.9C216.745 277.9 215.521 279.142 215.521 281.23C215.521 283.318 216.745 284.578 218.311 284.578ZM226.662 280.618V286H224.844V276.46H226.536V278.044C227.184 276.982 228.264 276.28 229.578 276.28C231.54 276.28 232.836 277.54 232.836 279.826V286H231.018V280.438C231.018 278.8 230.298 277.882 228.948 277.882C227.706 277.882 226.662 278.926 226.662 280.618ZM240.83 280.618V286H239.012V273.076H240.83V277.99C241.46 276.964 242.432 276.28 243.746 276.28C245.708 276.28 247.004 277.54 247.004 279.826V286H245.186V280.438C245.186 278.8 244.466 277.882 243.116 277.882C241.874 277.882 240.83 278.926 240.83 280.618ZM255.196 286V284.524C254.602 285.586 253.54 286.18 252.136 286.18C250.156 286.18 248.86 285.046 248.86 283.3C248.86 281.428 250.354 280.456 253.198 280.456C253.756 280.456 254.206 280.474 254.98 280.564V279.862C254.98 278.494 254.242 277.72 252.982 277.72C251.65 277.72 250.84 278.512 250.786 279.844H249.13C249.22 277.702 250.75 276.28 252.982 276.28C255.34 276.28 256.708 277.612 256.708 279.88V286H255.196ZM250.588 283.246C250.588 284.236 251.326 284.884 252.496 284.884C254.026 284.884 254.98 283.93 254.98 282.472V281.698C254.278 281.608 253.774 281.59 253.306 281.59C251.488 281.59 250.588 282.13 250.588 283.246ZM266.699 283.156C266.699 285.028 265.241 286.18 262.703 286.18C260.183 286.18 258.689 284.938 258.509 282.886H260.255C260.327 284.074 261.281 284.812 262.739 284.812C264.017 284.812 264.863 284.362 264.863 283.462C264.863 282.67 264.377 282.328 263.189 282.094L261.641 281.806C259.877 281.464 258.887 280.564 258.887 279.124C258.887 277.45 260.345 276.28 262.559 276.28C264.845 276.28 266.393 277.504 266.555 279.466H264.809C264.701 278.314 263.855 277.648 262.577 277.648C261.425 277.648 260.651 278.134 260.651 278.962C260.651 279.736 261.137 280.096 262.289 280.312L263.909 280.618C265.799 280.96 266.699 281.788 266.699 283.156ZM281.554 281.23C281.554 284.092 279.898 286.18 277.324 286.18C275.974 286.18 274.822 285.496 274.138 284.29V286H272.446V273.076H274.264V278.098C274.93 276.928 276.028 276.28 277.324 276.28C279.88 276.28 281.554 278.332 281.554 281.23ZM279.664 281.23C279.664 279.07 278.53 277.882 276.964 277.882C275.452 277.882 274.264 279.052 274.264 281.194C274.264 283.3 275.416 284.56 276.964 284.56C278.53 284.56 279.664 283.354 279.664 281.23ZM287.321 286.18C284.567 286.18 282.713 284.182 282.713 281.176C282.713 278.35 284.639 276.28 287.267 276.28C290.111 276.28 292.001 278.584 291.677 281.68H284.567C284.711 283.624 285.683 284.758 287.285 284.758C288.635 284.758 289.571 284.02 289.877 282.778H291.677C291.209 284.902 289.571 286.18 287.321 286.18ZM287.231 277.648C285.773 277.648 284.783 278.692 284.585 280.474H289.751C289.661 278.71 288.707 277.648 287.231 277.648ZM297.358 286.18C294.604 286.18 292.75 284.182 292.75 281.176C292.75 278.35 294.676 276.28 297.304 276.28C300.148 276.28 302.038 278.584 301.714 281.68H294.604C294.748 283.624 295.72 284.758 297.322 284.758C298.672 284.758 299.608 284.02 299.914 282.778H301.714C301.246 284.902 299.608 286.18 297.358 286.18ZM297.268 277.648C295.81 277.648 294.82 278.692 294.622 280.474H299.788C299.698 278.71 298.744 277.648 297.268 277.648ZM305.465 280.618V286H303.647V276.46H305.339V278.044C305.987 276.982 307.067 276.28 308.381 276.28C310.343 276.28 311.639 277.54 311.639 279.826V286H309.821V280.438C309.821 278.8 309.101 277.882 307.751 277.882C306.509 277.882 305.465 278.926 305.465 280.618ZM325.375 283.156C325.375 285.028 323.917 286.18 321.379 286.18C318.859 286.18 317.365 284.938 317.185 282.886H318.931C319.003 284.074 319.957 284.812 321.415 284.812C322.693 284.812 323.539 284.362 323.539 283.462C323.539 282.67 323.053 282.328 321.865 282.094L320.317 281.806C318.553 281.464 317.563 280.564 317.563 279.124C317.563 277.45 319.021 276.28 321.235 276.28C323.521 276.28 325.069 277.504 325.231 279.466H323.485C323.377 278.314 322.531 277.648 321.253 277.648C320.101 277.648 319.327 278.134 319.327 278.962C319.327 279.736 319.813 280.096 320.965 280.312L322.585 280.618C324.475 280.96 325.375 281.788 325.375 283.156ZM331.122 286.198C328.512 286.198 326.676 284.146 326.676 281.23C326.676 278.35 328.548 276.28 331.122 276.28C333.48 276.28 335.19 277.846 335.532 280.33H333.624C333.426 278.8 332.472 277.882 331.14 277.882C329.574 277.882 328.548 279.214 328.548 281.23C328.548 283.264 329.574 284.578 331.14 284.578C332.49 284.578 333.426 283.678 333.642 282.13H335.532C335.208 284.65 333.516 286.198 331.122 286.198ZM339.18 280.618V286H337.362V273.076H339.18V277.99C339.81 276.964 340.782 276.28 342.096 276.28C344.058 276.28 345.354 277.54 345.354 279.826V286H343.536V280.438C343.536 278.8 342.816 277.882 341.466 277.882C340.224 277.882 339.18 278.926 339.18 280.618ZM351.692 286.18C348.938 286.18 347.084 284.182 347.084 281.176C347.084 278.35 349.01 276.28 351.638 276.28C354.482 276.28 356.372 278.584 356.048 281.68H348.938C349.082 283.624 350.054 284.758 351.656 284.758C353.006 284.758 353.942 284.02 354.248 282.778H356.048C355.58 284.902 353.942 286.18 351.692 286.18ZM351.602 277.648C350.144 277.648 349.154 278.692 348.956 280.474H354.122C354.032 278.71 353.078 277.648 351.602 277.648ZM357.121 281.23C357.121 278.332 358.777 276.28 361.351 276.28C362.629 276.28 363.745 276.928 364.411 278.098V273.076H366.229V286H364.537V284.29C363.853 285.496 362.701 286.18 361.351 286.18C358.777 286.18 357.121 284.092 357.121 281.23ZM359.011 281.23C359.011 283.354 360.127 284.56 361.711 284.56C363.259 284.56 364.411 283.3 364.411 281.194C364.411 279.052 363.223 277.882 361.711 277.882C360.127 277.882 359.011 279.07 359.011 281.23ZM374.714 282.076V276.46H376.532V286H374.84V284.488C374.336 285.478 373.22 286.18 371.924 286.18C369.998 286.18 368.666 285.046 368.666 282.598V276.46H370.484V282.238C370.484 283.894 371.312 284.578 372.5 284.578C373.724 284.578 374.714 283.57 374.714 282.076ZM380.893 286H379.057V273.076H380.893V286ZM387.34 286.18C384.586 286.18 382.732 284.182 382.732 281.176C382.732 278.35 384.658 276.28 387.286 276.28C390.13 276.28 392.02 278.584 391.696 281.68H384.586C384.73 283.624 385.702 284.758 387.304 284.758C388.654 284.758 389.59 284.02 389.896 282.778H391.696C391.228 284.902 389.59 286.18 387.34 286.18ZM387.25 277.648C385.792 277.648 384.802 278.692 384.604 280.474H389.77C389.68 278.71 388.726 277.648 387.25 277.648ZM392.769 281.23C392.769 278.332 394.425 276.28 396.999 276.28C398.277 276.28 399.393 276.928 400.059 278.098V273.076H401.877V286H400.185V284.29C399.501 285.496 398.349 286.18 396.999 286.18C394.425 286.18 392.769 284.092 392.769 281.23ZM394.659 281.23C394.659 283.354 395.775 284.56 397.359 284.56C398.907 284.56 400.059 283.3 400.059 281.194C400.059 279.052 398.871 277.882 397.359 277.882C395.775 277.882 394.659 279.07 394.659 281.23ZM416.05 286L413.89 278.908L411.712 286H409.876L407.122 276.46H408.904L410.83 283.408L412.99 276.46H414.79L416.914 283.426L418.84 276.46H420.64L417.868 286H416.05ZM424.337 274.246C424.337 274.93 423.797 275.452 423.023 275.452C422.249 275.452 421.691 274.93 421.691 274.246C421.691 273.544 422.249 273.04 423.023 273.04C423.797 273.04 424.337 273.544 424.337 274.246ZM423.941 286H422.123V276.46H423.941V286ZM431.847 284.236V285.838C431.289 286.09 430.803 286.18 430.227 286.18C428.463 286.18 427.239 285.226 427.239 283.12V278.008H425.133V276.46H427.239V273.634H429.057V276.46H431.937V278.008H429.057V282.706C429.057 284.02 429.687 284.488 430.659 284.488C431.091 284.488 431.469 284.416 431.847 284.236ZM435.49 280.618V286H433.672V273.076H435.49V277.99C436.12 276.964 437.092 276.28 438.406 276.28C440.368 276.28 441.664 277.54 441.664 279.826V286H439.846V280.438C439.846 278.8 439.126 277.882 437.776 277.882C436.534 277.882 435.49 278.926 435.49 280.618Z" fill="black" fill-opacity="0.7"/>
<rect x="50" y="88" width="385" height="49" rx="20" fill="#C5EBFF" fill-opacity="0.5"/>
<rect x="51" y="159" width="385" height="19" rx="9.5" fill="#C5EBFF" fill-opacity="0.5"/>
<rect x="51" y="308" width="385" height="18" rx="5" fill="#C5EBFF" fill-opacity="0.5"/>
<rect x="51" y="343" width="240" height="18" rx="5" fill="#C5EBFF" fill-opacity="0.5"/>
<path d="M55.575 413H52.17V402.23H55.575C59.01 402.23 60.99 404.42 60.99 407.57C60.99 410.675 58.935 413 55.575 413ZM53.82 403.655V411.575H55.5C57.975 411.575 59.31 410.045 59.31 407.57C59.31 405.14 57.99 403.655 55.5 403.655H53.82ZM69.6919 411.56V413H62.8669V402.23H69.5869V403.67H64.5169V406.73H69.1369V408.17H64.5169V411.56H69.6919ZM80.5666 402.23L76.6066 413H74.7916L70.8316 402.23H72.6016L75.7366 411.08L78.9166 402.23H80.5666ZM88.947 411.56V413H82.122V402.23H88.842V403.67H83.772V406.73H88.392V408.17H83.772V411.56H88.947ZM97.5567 413H91.0317V402.23H92.6817V411.515H97.5567V413ZM103.278 413.225C100.158 413.225 97.8027 410.78 97.8027 407.6C97.8027 404.42 100.158 402.005 103.278 402.005C106.398 402.005 108.753 404.42 108.753 407.6C108.753 410.78 106.398 413.225 103.278 413.225ZM103.278 411.74C105.558 411.74 107.043 409.91 107.043 407.6C107.043 405.29 105.558 403.49 103.278 403.49C100.998 403.49 99.5127 405.29 99.5127 407.6C99.5127 409.91 100.998 411.74 103.278 411.74ZM114.344 409.25H112.259V413H110.609V402.23H114.344C116.759 402.23 118.319 403.46 118.319 405.71C118.319 407.975 116.759 409.25 114.344 409.25ZM114.329 403.625H112.259V407.855H114.329C115.784 407.855 116.669 407.06 116.669 405.725C116.669 404.39 115.784 403.625 114.329 403.625ZM126.944 411.56V413H120.119V402.23H126.839V403.67H121.769V406.73H126.389V408.17H121.769V411.56H126.944ZM130.679 413H129.029V402.23H133.049C135.524 402.23 137.009 403.445 137.009 405.59C137.009 407.135 136.034 408.32 134.399 408.71L137.324 413H135.344L132.659 408.95H130.679V413ZM130.679 403.61V407.57H132.944C134.474 407.57 135.344 406.895 135.344 405.59C135.344 404.3 134.474 403.61 132.944 403.61H130.679ZM146.087 409.25H144.002V413H142.352V402.23H146.087C148.502 402.23 150.062 403.46 150.062 405.71C150.062 407.975 148.502 409.25 146.087 409.25ZM146.072 403.625H144.002V407.855H146.072C147.527 407.855 148.412 407.06 148.412 405.725C148.412 404.39 147.527 403.625 146.072 403.625ZM153.512 413H151.862V402.23H155.882C158.357 402.23 159.842 403.445 159.842 405.59C159.842 407.135 158.867 408.32 157.232 408.71L160.157 413H158.177L155.492 408.95H153.512V413ZM153.512 403.61V407.57H155.777C157.307 407.57 158.177 406.895 158.177 405.59C158.177 404.3 157.307 403.61 155.777 403.61H153.512ZM166.628 413.225C163.508 413.225 161.153 410.78 161.153 407.6C161.153 404.42 163.508 402.005 166.628 402.005C169.748 402.005 172.103 404.42 172.103 407.6C172.103 410.78 169.748 413.225 166.628 413.225ZM166.628 411.74C168.908 411.74 170.393 409.91 170.393 407.6C170.393 405.29 168.908 403.49 166.628 403.49C164.348 403.49 162.863 405.29 162.863 407.6C162.863 409.91 164.348 411.74 166.628 411.74ZM175.609 413H173.959V402.23H180.499V403.67H175.609V407.18H179.779V408.62H175.609V413ZM183.918 413H182.268V402.23H183.918V413ZM192.927 413H186.402V402.23H188.052V411.515H192.927V413ZM201.522 411.56V413H194.697V402.23H201.417V403.67H196.347V406.73H200.967V408.17H196.347V411.56H201.522ZM205.542 406.19C205.542 406.865 205.077 407.345 204.387 407.345C203.712 407.345 203.232 406.865 203.232 406.19C203.232 405.5 203.712 405.02 204.387 405.02C205.077 405.02 205.542 405.5 205.542 406.19ZM205.542 411.92C205.542 412.595 205.077 413.075 204.387 413.075C203.712 413.075 203.232 412.595 203.232 411.92C203.232 411.215 203.712 410.735 204.387 410.735C205.077 410.735 205.542 411.215 205.542 411.92Z" fill="#3065EE"/>
<path d="M61.854 449.22C61.854 451.47 60.054 453.18 56.922 453.18C53.808 453.18 51.918 451.47 51.756 448.896H53.772C53.862 450.534 54.906 451.596 56.886 451.596C58.524 451.596 59.748 450.822 59.748 449.49C59.748 448.41 59.046 447.87 57.552 447.546L55.68 447.186C53.862 446.826 52.206 445.908 52.206 443.712C52.206 441.534 54.114 439.896 56.796 439.896C59.478 439.896 61.512 441.534 61.674 444.108H59.658C59.55 442.56 58.434 441.48 56.814 441.48C55.14 441.48 54.222 442.47 54.222 443.586C54.222 444.81 55.284 445.242 56.49 445.494L58.398 445.872C60.612 446.322 61.854 447.294 61.854 449.22ZM68.2322 453H64.1462V440.076H68.2322C72.3542 440.076 74.7302 442.704 74.7302 446.484C74.7302 450.21 72.2642 453 68.2322 453ZM66.1262 441.786V451.29H68.1422C71.1122 451.29 72.7142 449.454 72.7142 446.484C72.7142 443.568 71.1302 441.786 68.1422 441.786H66.1262ZM84.9924 451.272V453H76.8024V440.076H84.8664V441.804H78.7824V445.476H84.3264V447.204H78.7824V451.272H84.9924ZM91.9582 448.86H86.3602V447.222H91.9582V448.86ZM100.495 451.38V453H92.6294V451.956L96.4274 447.852C97.8674 446.286 98.4254 445.44 98.4254 444.342C98.4254 443.136 97.5794 442.29 96.3374 442.29C94.9874 442.29 94.0874 443.172 94.0874 444.522H92.3054C92.3054 442.272 93.9974 440.652 96.4094 440.652C98.6774 440.652 100.333 442.128 100.333 444.126C100.333 445.512 99.8114 446.484 97.8134 448.608L95.3654 451.38H100.495ZM112.091 453V451.524C111.497 452.586 110.435 453.18 109.031 453.18C107.051 453.18 105.755 452.046 105.755 450.3C105.755 448.428 107.249 447.456 110.093 447.456C110.651 447.456 111.101 447.474 111.875 447.564V446.862C111.875 445.494 111.137 444.72 109.877 444.72C108.545 444.72 107.735 445.512 107.681 446.844H106.025C106.115 444.702 107.645 443.28 109.877 443.28C112.235 443.28 113.603 444.612 113.603 446.88V453H112.091ZM107.483 450.246C107.483 451.236 108.221 451.884 109.391 451.884C110.921 451.884 111.875 450.93 111.875 449.472V448.698C111.173 448.608 110.669 448.59 110.201 448.59C108.383 448.59 107.483 449.13 107.483 450.246ZM121.328 451.236V452.838C120.77 453.09 120.284 453.18 119.708 453.18C117.944 453.18 116.72 452.226 116.72 450.12V445.008H114.614V443.46H116.72V440.634H118.538V443.46H121.418V445.008H118.538V449.706C118.538 451.02 119.168 451.488 120.14 451.488C120.572 451.488 120.95 451.416 121.328 451.236ZM129.038 453H127.058V440.076H134.906V441.804H129.038V446.016H134.042V447.744H129.038V453ZM138.541 453H136.705V440.076H138.541V453ZM143.279 441.246C143.279 441.93 142.739 442.452 141.965 442.452C141.191 442.452 140.633 441.93 140.633 441.246C140.633 440.544 141.191 440.04 141.965 440.04C142.739 440.04 143.279 440.544 143.279 441.246ZM142.883 453H141.065V443.46H142.883V453ZM154.514 448.23C154.514 451.11 152.858 453.18 150.302 453.18C149.006 453.18 147.908 452.532 147.224 451.38V456.474H145.406V443.46H147.098V445.206C147.782 443.982 148.952 443.28 150.302 443.28C152.84 443.28 154.514 445.35 154.514 448.23ZM152.624 448.23C152.624 446.088 151.49 444.882 149.924 444.882C148.412 444.882 147.224 446.088 147.224 448.23C147.224 450.336 148.394 451.56 149.924 451.56C151.49 451.56 152.624 450.372 152.624 448.23ZM158.176 453H156.358V440.076H158.176V447.726L162.262 443.46H164.404L159.994 448.086L164.818 453H162.478L158.176 448.482V453ZM171.61 453V451.524C171.016 452.586 169.954 453.18 168.55 453.18C166.57 453.18 165.274 452.046 165.274 450.3C165.274 448.428 166.768 447.456 169.612 447.456C170.17 447.456 170.62 447.474 171.394 447.564V446.862C171.394 445.494 170.656 444.72 169.396 444.72C168.064 444.72 167.254 445.512 167.2 446.844H165.544C165.634 444.702 167.164 443.28 169.396 443.28C171.754 443.28 173.122 444.612 173.122 446.88V453H171.61ZM167.002 450.246C167.002 451.236 167.74 451.884 168.91 451.884C170.44 451.884 171.394 450.93 171.394 449.472V448.698C170.692 448.608 170.188 448.59 169.72 448.59C167.902 448.59 167.002 449.13 167.002 450.246ZM177.371 448.122V453H175.553V443.46H177.245V445.476C177.911 444.162 179.351 443.334 180.917 443.334V445.224C178.865 445.116 177.371 446.016 177.371 448.122ZM188.318 451.236V452.838C187.76 453.09 187.274 453.18 186.698 453.18C184.934 453.18 183.71 452.226 183.71 450.12V445.008H181.604V443.46H183.71V440.634H185.528V443.46H188.408V445.008H185.528V449.706C185.528 451.02 186.158 451.488 187.13 451.488C187.562 451.488 187.94 451.416 188.318 451.236Z" fill="black" fill-opacity="0.7"/>
</svg>
