<svg width="500" height="500" viewBox="0 0 500 500" fill="none" xmlns="http://www.w3.org/2000/svg">
<rect width="500" height="500" rx="20" fill="white"/>
<path d="M70.576 117H58.48V71.048H77.296C89.712 71.048 96.816 76.616 96.816 86.408C96.816 92.296 93.296 97.16 87.088 99.784L98.352 117H83.952L74.544 101.704H70.576V117ZM70.576 81.032V91.72H76.784C82.16 91.72 84.656 90.056 84.656 86.408C84.656 82.76 82.16 81.032 76.784 81.032H70.576ZM137.584 106.504V117H105.072V71.048H137.137V81.544H117.168V88.136H135.281V98.632H117.168V106.504H137.584ZM157.886 117H145.79V71.048H177.086V81.544H157.886V90.056H173.95V100.552H157.886V117ZM217.269 106.504V117H184.757V71.048H216.821V81.544H196.853V88.136H214.965V98.632H196.853V106.504H217.269ZM237.571 117H225.475V71.048H244.291C256.707 71.048 263.811 76.616 263.811 86.408C263.811 92.296 260.291 97.16 254.083 99.784L265.347 117H250.947L241.539 101.704H237.571V117ZM237.571 81.032V91.72H243.779C249.155 91.72 251.651 90.056 251.651 86.408C251.651 82.76 249.155 81.032 243.779 81.032H237.571ZM284.163 117H272.067V71.048H290.883C303.299 71.048 310.403 76.616 310.403 86.408C310.403 92.296 306.883 97.16 300.675 99.784L311.939 117H297.539L288.131 101.704H284.163V117ZM284.163 81.032V91.72H290.371C295.747 91.72 298.243 90.056 298.243 86.408C298.243 82.76 295.747 81.032 290.371 81.032H284.163ZM348.612 117L345.796 108.488H329.668L326.788 117H314.564L331.588 71.048H344.836L361.668 117H348.612ZM337.86 84.36L332.932 98.952H342.66L337.86 84.36ZM399.239 117H367.815V71.048H379.911V106.056H399.239V117ZM443.707 101.96C443.707 111.432 436.155 117.64 424.187 117.64C412.219 117.64 404.539 111.304 403.707 101.128H415.931C416.059 105.48 418.939 108.232 423.931 108.232C428.091 108.232 430.843 106.632 430.843 103.752C430.843 101.768 428.859 100.296 426.171 99.784L417.787 98.184C410.427 96.776 405.563 92.488 405.563 85.064C405.563 76.488 413.115 70.472 423.419 70.472C434.363 70.472 442.235 76.744 442.939 86.664H430.715C430.395 82.504 427.579 79.816 423.547 79.816C419.963 79.816 417.787 81.736 417.787 84.232C417.787 86.28 419.835 87.496 422.267 87.944L431.163 89.672C439.355 91.272 443.707 95.304 443.707 101.96Z" fill="#693EE0"/>
<mask id="path-3-outside-1_0_1" maskUnits="userSpaceOnUse" x="58" y="165" width="388" height="50" fill="black">
<rect fill="white" x="58" y="165" width="388" height="50"/>
<path d="M71.576 213H59.48V167.048H78.296C90.712 167.048 97.816 172.616 97.816 182.408C97.816 188.296 94.296 193.16 88.088 195.784L99.352 213H84.952L75.544 197.704H71.576V213ZM71.576 177.032V187.72H77.784C83.16 187.72 85.656 186.056 85.656 182.408C85.656 178.76 83.16 177.032 77.784 177.032H71.576ZM138.584 202.504V213H106.072V167.048H138.137V177.544H118.168V184.136H136.281V194.632H118.168V202.504H138.584ZM158.886 213H146.79V167.048H178.086V177.544H158.886V186.056H174.95V196.552H158.886V213ZM218.269 202.504V213H185.757V167.048H217.821V177.544H197.853V184.136H215.965V194.632H197.853V202.504H218.269ZM238.571 213H226.475V167.048H245.291C257.707 167.048 264.811 172.616 264.811 182.408C264.811 188.296 261.291 193.16 255.083 195.784L266.347 213H251.947L242.539 197.704H238.571V213ZM238.571 177.032V187.72H244.779C250.155 187.72 252.651 186.056 252.651 182.408C252.651 178.76 250.155 177.032 244.779 177.032H238.571ZM285.163 213H273.067V167.048H291.883C304.299 167.048 311.403 172.616 311.403 182.408C311.403 188.296 307.883 193.16 301.675 195.784L312.939 213H298.539L289.131 197.704H285.163V213ZM285.163 177.032V187.72H291.371C296.747 187.72 299.243 186.056 299.243 182.408C299.243 178.76 296.747 177.032 291.371 177.032H285.163ZM349.612 213L346.796 204.488H330.668L327.788 213H315.564L332.588 167.048H345.836L362.668 213H349.612ZM338.86 180.36L333.932 194.952H343.66L338.86 180.36ZM400.239 213H368.815V167.048H380.911V202.056H400.239V213ZM444.707 197.96C444.707 207.432 437.155 213.64 425.187 213.64C413.219 213.64 405.539 207.304 404.707 197.128H416.931C417.059 201.48 419.939 204.232 424.931 204.232C429.091 204.232 431.843 202.632 431.843 199.752C431.843 197.768 429.859 196.296 427.171 195.784L418.787 194.184C411.427 192.776 406.563 188.488 406.563 181.064C406.563 172.488 414.115 166.472 424.419 166.472C435.363 166.472 443.235 172.744 443.939 182.664H431.715C431.395 178.504 428.579 175.816 424.547 175.816C420.963 175.816 418.787 177.736 418.787 180.232C418.787 182.28 420.835 183.496 423.267 183.944L432.163 185.672C440.355 187.272 444.707 191.304 444.707 197.96Z"/>
</mask>
<path d="M71.576 213H59.48V167.048H78.296C90.712 167.048 97.816 172.616 97.816 182.408C97.816 188.296 94.296 193.16 88.088 195.784L99.352 213H84.952L75.544 197.704H71.576V213ZM71.576 177.032V187.72H77.784C83.16 187.72 85.656 186.056 85.656 182.408C85.656 178.76 83.16 177.032 77.784 177.032H71.576ZM138.584 202.504V213H106.072V167.048H138.137V177.544H118.168V184.136H136.281V194.632H118.168V202.504H138.584ZM158.886 213H146.79V167.048H178.086V177.544H158.886V186.056H174.95V196.552H158.886V213ZM218.269 202.504V213H185.757V167.048H217.821V177.544H197.853V184.136H215.965V194.632H197.853V202.504H218.269ZM238.571 213H226.475V167.048H245.291C257.707 167.048 264.811 172.616 264.811 182.408C264.811 188.296 261.291 193.16 255.083 195.784L266.347 213H251.947L242.539 197.704H238.571V213ZM238.571 177.032V187.72H244.779C250.155 187.72 252.651 186.056 252.651 182.408C252.651 178.76 250.155 177.032 244.779 177.032H238.571ZM285.163 213H273.067V167.048H291.883C304.299 167.048 311.403 172.616 311.403 182.408C311.403 188.296 307.883 193.16 301.675 195.784L312.939 213H298.539L289.131 197.704H285.163V213ZM285.163 177.032V187.72H291.371C296.747 187.72 299.243 186.056 299.243 182.408C299.243 178.76 296.747 177.032 291.371 177.032H285.163ZM349.612 213L346.796 204.488H330.668L327.788 213H315.564L332.588 167.048H345.836L362.668 213H349.612ZM338.86 180.36L333.932 194.952H343.66L338.86 180.36ZM400.239 213H368.815V167.048H380.911V202.056H400.239V213ZM444.707 197.96C444.707 207.432 437.155 213.64 425.187 213.64C413.219 213.64 405.539 207.304 404.707 197.128H416.931C417.059 201.48 419.939 204.232 424.931 204.232C429.091 204.232 431.843 202.632 431.843 199.752C431.843 197.768 429.859 196.296 427.171 195.784L418.787 194.184C411.427 192.776 406.563 188.488 406.563 181.064C406.563 172.488 414.115 166.472 424.419 166.472C435.363 166.472 443.235 172.744 443.939 182.664H431.715C431.395 178.504 428.579 175.816 424.547 175.816C420.963 175.816 418.787 177.736 418.787 180.232C418.787 182.28 420.835 183.496 423.267 183.944L432.163 185.672C440.355 187.272 444.707 191.304 444.707 197.96Z" fill="white"/>
<path d="M71.576 213V214H72.576V213H71.576ZM59.48 213H58.48V214H59.48V213ZM59.48 167.048V166.048H58.48V167.048H59.48ZM88.088 195.784L87.6987 194.863L86.5954 195.329L87.2512 196.332L88.088 195.784ZM99.352 213V214H101.201L100.189 212.452L99.352 213ZM84.952 213L84.1002 213.524L84.3931 214H84.952V213ZM75.544 197.704L76.3958 197.18L76.1029 196.704H75.544V197.704ZM71.576 197.704V196.704H70.576V197.704H71.576ZM71.576 177.032V176.032H70.576V177.032H71.576ZM71.576 187.72H70.576V188.72H71.576V187.72ZM71.576 212H59.48V214H71.576V212ZM60.48 213V167.048H58.48V213H60.48ZM59.48 168.048H78.296V166.048H59.48V168.048ZM78.296 168.048C84.3722 168.048 89.0032 169.413 92.094 171.842C95.1502 174.244 96.816 177.778 96.816 182.408H98.816C98.816 177.246 96.9298 173.1 93.33 170.27C89.7648 167.467 84.6358 166.048 78.296 166.048V168.048ZM96.816 182.408C96.816 187.828 93.6015 192.368 87.6987 194.863L88.4773 196.705C94.9905 193.952 98.816 188.764 98.816 182.408H96.816ZM87.2512 196.332L98.5152 213.548L100.189 212.452L88.9248 195.236L87.2512 196.332ZM99.352 212H84.952V214H99.352V212ZM85.8038 212.476L76.3958 197.18L74.6922 198.228L84.1002 213.524L85.8038 212.476ZM75.544 196.704H71.576V198.704H75.544V196.704ZM70.576 197.704V213H72.576V197.704H70.576ZM70.576 177.032V187.72H72.576V177.032H70.576ZM71.576 188.72H77.784V186.72H71.576V188.72ZM77.784 188.72C80.5374 188.72 82.7494 188.301 84.2942 187.262C85.921 186.167 86.656 184.493 86.656 182.408H84.656C84.656 183.971 84.143 184.953 83.1778 185.602C82.1306 186.307 80.4066 186.72 77.784 186.72V188.72ZM86.656 182.408C86.656 180.324 85.9226 178.638 84.3012 177.527C82.7564 176.469 80.5431 176.032 77.784 176.032V178.032C80.4009 178.032 82.1236 178.459 83.1708 179.177C84.1414 179.842 84.656 180.844 84.656 182.408H86.656ZM77.784 176.032H71.576V178.032H77.784V176.032ZM138.585 202.504H139.585V201.504H138.585V202.504ZM138.585 213V214H139.585V213H138.585ZM106.072 213H105.072V214H106.072V213ZM106.072 167.048V166.048H105.072V167.048H106.072ZM138.137 167.048H139.137V166.048H138.137V167.048ZM138.137 177.544V178.544H139.137V177.544H138.137ZM118.168 177.544V176.544H117.168V177.544H118.168ZM118.168 184.136H117.168V185.136H118.168V184.136ZM136.281 184.136H137.281V183.136H136.281V184.136ZM136.281 194.632V195.632H137.281V194.632H136.281ZM118.168 194.632V193.632H117.168V194.632H118.168ZM118.168 202.504H117.168V203.504H118.168V202.504ZM137.585 202.504V213H139.585V202.504H137.585ZM138.585 212H106.072V214H138.585V212ZM107.072 213V167.048H105.072V213H107.072ZM106.072 168.048H138.137V166.048H106.072V168.048ZM137.137 167.048V177.544H139.137V167.048H137.137ZM138.137 176.544H118.168V178.544H138.137V176.544ZM117.168 177.544V184.136H119.169V177.544H117.168ZM118.168 185.136H136.281V183.136H118.168V185.136ZM135.281 184.136V194.632H137.281V184.136H135.281ZM136.281 193.632H118.168V195.632H136.281V193.632ZM117.168 194.632V202.504H119.169V194.632H117.168ZM118.168 203.504H138.585V201.504H118.168V203.504ZM158.886 213V214H159.886V213H158.886ZM146.79 213H145.79V214H146.79V213ZM146.79 167.048V166.048H145.79V167.048H146.79ZM178.086 167.048H179.086V166.048H178.086V167.048ZM178.086 177.544V178.544H179.086V177.544H178.086ZM158.886 177.544V176.544H157.886V177.544H158.886ZM158.886 186.056H157.886V187.056H158.886V186.056ZM174.95 186.056H175.95V185.056H174.95V186.056ZM174.95 196.552V197.552H175.95V196.552H174.95ZM158.886 196.552V195.552H157.886V196.552H158.886ZM158.886 212H146.79V214H158.886V212ZM147.79 213V167.048H145.79V213H147.79ZM146.79 168.048H178.086V166.048H146.79V168.048ZM177.086 167.048V177.544H179.086V167.048H177.086ZM178.086 176.544H158.886V178.544H178.086V176.544ZM157.886 177.544V186.056H159.886V177.544H157.886ZM158.886 187.056H174.95V185.056H158.886V187.056ZM173.95 186.056V196.552H175.95V186.056H173.95ZM174.95 195.552H158.886V197.552H174.95V195.552ZM157.886 196.552V213H159.886V196.552H157.886ZM218.27 202.504H219.27V201.504H218.27V202.504ZM218.27 213V214H219.27V213H218.27ZM185.757 213H184.757V214H185.757V213ZM185.757 167.048V166.048H184.757V167.048H185.757ZM217.822 167.048H218.822V166.048H217.822V167.048ZM217.822 177.544V178.544H218.822V177.544H217.822ZM197.854 177.544V176.544H196.854V177.544H197.854ZM197.854 184.136H196.854V185.136H197.854V184.136ZM215.965 184.136H216.965V183.136H215.965V184.136ZM215.965 194.632V195.632H216.965V194.632H215.965ZM197.854 194.632V193.632H196.854V194.632H197.854ZM197.854 202.504H196.854V203.504H197.854V202.504ZM217.27 202.504V213H219.27V202.504H217.27ZM218.27 212H185.757V214H218.27V212ZM186.757 213V167.048H184.757V213H186.757ZM185.757 168.048H217.822V166.048H185.757V168.048ZM216.822 167.048V177.544H218.822V167.048H216.822ZM217.822 176.544H197.854V178.544H217.822V176.544ZM196.854 177.544V184.136H198.854V177.544H196.854ZM197.854 185.136H215.965V183.136H197.854V185.136ZM214.965 184.136V194.632H216.965V184.136H214.965ZM215.965 193.632H197.854V195.632H215.965V193.632ZM196.854 194.632V202.504H198.854V194.632H196.854ZM197.854 203.504H218.27V201.504H197.854V203.504ZM238.571 213V214H239.571V213H238.571ZM226.475 213H225.475V214H226.475V213ZM226.475 167.048V166.048H225.475V167.048H226.475ZM255.083 195.784L254.694 194.863L253.59 195.329L254.246 196.332L255.083 195.784ZM266.347 213V214H268.196L267.184 212.452L266.347 213ZM251.947 213L251.095 213.524L251.388 214H251.947V213ZM242.539 197.704L243.391 197.18L243.098 196.704H242.539V197.704ZM238.571 197.704V196.704H237.571V197.704H238.571ZM238.571 177.032V176.032H237.571V177.032H238.571ZM238.571 187.72H237.571V188.72H238.571V187.72ZM238.571 212H226.475V214H238.571V212ZM227.475 213V167.048H225.475V213H227.475ZM226.475 168.048H245.291V166.048H226.475V168.048ZM245.291 168.048C251.367 168.048 255.998 169.413 259.089 171.842C262.145 174.244 263.811 177.778 263.811 182.408H265.811C265.811 177.246 263.925 173.1 260.325 170.27C256.76 167.467 251.631 166.048 245.291 166.048V168.048ZM263.811 182.408C263.811 187.828 260.596 192.368 254.694 194.863L255.472 196.705C261.986 193.952 265.811 188.764 265.811 182.408H263.811ZM254.246 196.332L265.51 213.548L267.184 212.452L255.92 195.236L254.246 196.332ZM266.347 212H251.947V214H266.347V212ZM252.799 212.476L243.391 197.18L241.687 198.228L251.095 213.524L252.799 212.476ZM242.539 196.704H238.571V198.704H242.539V196.704ZM237.571 197.704V213H239.571V197.704H237.571ZM237.571 177.032V187.72H239.571V177.032H237.571ZM238.571 188.72H244.779V186.72H238.571V188.72ZM244.779 188.72C247.532 188.72 249.744 188.301 251.289 187.262C252.916 186.167 253.651 184.493 253.651 182.408H251.651C251.651 183.971 251.138 184.953 250.173 185.602C249.126 186.307 247.402 186.72 244.779 186.72V188.72ZM253.651 182.408C253.651 180.324 252.918 178.638 251.296 177.527C249.751 176.469 247.538 176.032 244.779 176.032V178.032C247.396 178.032 249.119 178.459 250.166 179.177C251.136 179.842 251.651 180.844 251.651 182.408H253.651ZM244.779 176.032H238.571V178.032H244.779V176.032ZM285.163 213V214H286.163V213H285.163ZM273.067 213H272.067V214H273.067V213ZM273.067 167.048V166.048H272.067V167.048H273.067ZM301.675 195.784L301.286 194.863L300.183 195.329L300.839 196.332L301.675 195.784ZM312.939 213V214H314.789L313.776 212.452L312.939 213ZM298.539 213L297.688 213.524L297.981 214H298.539V213ZM289.132 197.704L289.983 197.18L289.69 196.704H289.132V197.704ZM285.163 197.704V196.704H284.163V197.704H285.163ZM285.163 177.032V176.032H284.163V177.032H285.163ZM285.163 187.72H284.163V188.72H285.163V187.72ZM285.163 212H273.067V214H285.163V212ZM274.067 213V167.048H272.067V213H274.067ZM273.067 168.048H291.883V166.048H273.067V168.048ZM291.883 168.048C297.96 168.048 302.591 169.413 305.682 171.842C308.738 174.244 310.404 177.778 310.404 182.408H312.404C312.404 177.246 310.517 173.1 306.917 170.27C303.352 167.467 298.223 166.048 291.883 166.048V168.048ZM310.404 182.408C310.404 187.828 307.189 192.368 301.286 194.863L302.065 196.705C308.578 193.952 312.404 188.764 312.404 182.408H310.404ZM300.839 196.332L312.103 213.548L313.776 212.452L302.512 195.236L300.839 196.332ZM312.939 212H298.539V214H312.939V212ZM299.391 212.476L289.983 197.18L288.28 198.228L297.688 213.524L299.391 212.476ZM289.132 196.704H285.163V198.704H289.132V196.704ZM284.163 197.704V213H286.163V197.704H284.163ZM284.163 177.032V187.72H286.163V177.032H284.163ZM285.163 188.72H291.371V186.72H285.163V188.72ZM291.371 188.72C294.125 188.72 296.337 188.301 297.882 187.262C299.509 186.167 300.243 184.493 300.243 182.408H298.243C298.243 183.971 297.73 184.953 296.765 185.602C295.718 186.307 293.994 186.72 291.371 186.72V188.72ZM300.243 182.408C300.243 180.324 299.51 178.638 297.889 177.527C296.344 176.469 294.131 176.032 291.371 176.032V178.032C293.988 178.032 295.711 178.459 296.758 179.177C297.729 179.842 298.243 180.844 298.243 182.408H300.243ZM291.371 176.032H285.163V178.032H291.371V176.032ZM349.612 213L348.663 213.314L348.89 214H349.612V213ZM346.796 204.488L347.745 204.174L347.518 203.488H346.796V204.488ZM330.668 204.488V203.488H329.951L329.721 204.168L330.668 204.488ZM327.788 213V214H328.505L328.735 213.32L327.788 213ZM315.564 213L314.626 212.653L314.127 214H315.564V213ZM332.588 167.048V166.048H331.892L331.65 166.701L332.588 167.048ZM345.836 167.048L346.775 166.704L346.535 166.048H345.836V167.048ZM362.668 213V214H364.099L363.607 212.656L362.668 213ZM338.86 180.36L339.81 180.048L338.872 177.198L337.913 180.04L338.86 180.36ZM333.932 194.952L332.985 194.632L332.539 195.952H333.932V194.952ZM343.66 194.952V195.952H345.042L344.61 194.64L343.66 194.952ZM350.561 212.686L347.745 204.174L345.847 204.802L348.663 213.314L350.561 212.686ZM346.796 203.488H330.668V205.488H346.796V203.488ZM329.721 204.168L326.841 212.68L328.735 213.32L331.615 204.808L329.721 204.168ZM327.788 212H315.564V214H327.788V212ZM316.502 213.347L333.526 167.395L331.65 166.701L314.626 212.653L316.502 213.347ZM332.588 168.048H345.836V166.048H332.588V168.048ZM344.897 167.392L361.729 213.344L363.607 212.656L346.775 166.704L344.897 167.392ZM362.668 212H349.612V214H362.668V212ZM337.913 180.04L332.985 194.632L334.879 195.272L339.807 180.68L337.913 180.04ZM333.932 195.952H343.66V193.952H333.932V195.952ZM344.61 194.64L339.81 180.048L337.91 180.672L342.71 195.264L344.61 194.64ZM400.239 213V214H401.239V213H400.239ZM368.815 213H367.815V214H368.815V213ZM368.815 167.048V166.048H367.815V167.048H368.815ZM380.911 167.048H381.911V166.048H380.911V167.048ZM380.911 202.056H379.911V203.056H380.911V202.056ZM400.239 202.056H401.239V201.056H400.239V202.056ZM400.239 212H368.815V214H400.239V212ZM369.815 213V167.048H367.815V213H369.815ZM368.815 168.048H380.911V166.048H368.815V168.048ZM379.911 167.048V202.056H381.911V167.048H379.911ZM380.911 203.056H400.239V201.056H380.911V203.056ZM399.239 202.056V213H401.239V202.056H399.239ZM404.707 197.128V196.128H403.622L403.711 197.209L404.707 197.128ZM416.931 197.128L417.931 197.099L417.902 196.128H416.931V197.128ZM427.171 195.784L426.984 196.766L426.984 196.766L427.171 195.784ZM418.787 194.184L418.6 195.166L418.6 195.166L418.787 194.184ZM443.939 182.664V183.664H445.013L444.937 182.593L443.939 182.664ZM431.715 182.664L430.718 182.741L430.789 183.664H431.715V182.664ZM423.267 183.944L423.458 182.962L423.449 182.961L423.267 183.944ZM432.163 185.672L432.355 184.691L432.354 184.69L432.163 185.672ZM443.707 197.96C443.707 202.406 441.947 206.036 438.807 208.574C435.646 211.13 431.008 212.64 425.188 212.64V214.64C431.335 214.64 436.457 213.046 440.064 210.13C443.692 207.196 445.707 202.986 445.707 197.96H443.707ZM425.188 212.64C419.375 212.64 414.703 211.102 411.402 208.423C408.112 205.755 406.1 201.888 405.704 197.047L403.711 197.209C404.147 202.544 406.391 206.933 410.141 209.977C413.88 213.01 419.032 214.64 425.188 214.64V212.64ZM404.707 198.128H416.931V196.128H404.707V198.128ZM415.932 197.157C416.002 199.554 416.84 201.607 418.436 203.053C420.025 204.492 422.255 205.232 424.931 205.232V203.232C422.616 203.232 420.91 202.596 419.779 201.571C418.655 200.553 417.989 199.054 417.931 197.099L415.932 197.157ZM424.931 205.232C427.119 205.232 429.056 204.815 430.48 203.918C431.949 202.994 432.844 201.569 432.844 199.752H430.844C430.844 200.815 430.362 201.63 429.415 202.226C428.423 202.849 426.904 203.232 424.931 203.232V205.232ZM432.844 199.752C432.844 198.391 432.153 197.263 431.148 196.442C430.155 195.63 428.819 195.08 427.359 194.802L426.984 196.766C428.212 197 429.212 197.442 429.883 197.99C430.542 198.529 430.844 199.129 430.844 199.752H432.844ZM427.359 194.802L418.975 193.202L418.6 195.166L426.984 196.766L427.359 194.802ZM418.975 193.202C415.43 192.524 412.582 191.169 410.629 189.179C408.694 187.208 407.563 184.539 407.563 181.064H405.563C405.563 185.013 406.865 188.2 409.202 190.581C411.521 192.943 414.785 194.436 418.6 195.166L418.975 193.202ZM407.563 181.064C407.563 173.226 414.462 167.472 424.419 167.472V165.472C413.769 165.472 405.563 171.75 405.563 181.064H407.563ZM424.419 167.472C429.704 167.472 434.171 168.985 437.385 171.621C440.589 174.248 442.609 178.039 442.942 182.735L444.937 182.593C444.566 177.369 442.298 173.064 438.654 170.075C435.02 167.095 430.079 165.472 424.419 165.472V167.472ZM443.939 181.664H431.715V183.664H443.939V181.664ZM432.713 182.587C432.536 180.297 431.665 178.342 430.214 176.957C428.761 175.569 426.793 174.816 424.547 174.816V176.816C426.334 176.816 427.79 177.407 428.833 178.403C429.878 179.402 430.575 180.871 430.718 182.741L432.713 182.587ZM424.547 174.816C422.584 174.816 420.907 175.342 419.7 176.307C418.478 177.282 417.787 178.67 417.787 180.232H419.787C419.787 179.298 420.185 178.478 420.947 177.869C421.724 177.25 422.927 176.816 424.547 176.816V174.816ZM417.787 180.232C417.787 181.641 418.509 182.728 419.513 183.486C420.494 184.227 421.778 184.686 423.086 184.927L423.449 182.961C422.325 182.754 421.369 182.381 420.718 181.89C420.09 181.416 419.787 180.871 419.787 180.232H417.787ZM423.077 184.926L431.973 186.654L432.354 184.69L423.458 182.962L423.077 184.926ZM431.972 186.653C435.96 187.432 438.889 188.782 440.813 190.639C442.709 192.471 443.707 194.873 443.707 197.96H445.707C445.707 194.391 444.53 191.449 442.202 189.201C439.902 186.978 436.559 185.512 432.355 184.691L431.972 186.653Z" fill="#693EE0" mask="url(#path-3-outside-1_0_1)"/>
<path d="M71.576 309H59.48V263.048H78.296C90.712 263.048 97.816 268.616 97.816 278.408C97.816 284.296 94.296 289.16 88.088 291.784L99.352 309H84.952L75.544 293.704H71.576V309ZM71.576 273.032V283.72H77.784C83.16 283.72 85.656 282.056 85.656 278.408C85.656 274.76 83.16 273.032 77.784 273.032H71.576ZM138.584 298.504V309H106.072V263.048H138.137V273.544H118.168V280.136H136.281V290.632H118.168V298.504H138.584ZM158.886 309H146.79V263.048H178.086V273.544H158.886V282.056H174.95V292.552H158.886V309ZM218.269 298.504V309H185.757V263.048H217.821V273.544H197.853V280.136H215.965V290.632H197.853V298.504H218.269ZM238.571 309H226.475V263.048H245.291C257.707 263.048 264.811 268.616 264.811 278.408C264.811 284.296 261.291 289.16 255.083 291.784L266.347 309H251.947L242.539 293.704H238.571V309ZM238.571 273.032V283.72H244.779C250.155 283.72 252.651 282.056 252.651 278.408C252.651 274.76 250.155 273.032 244.779 273.032H238.571ZM285.163 309H273.067V263.048H291.883C304.299 263.048 311.403 268.616 311.403 278.408C311.403 284.296 307.883 289.16 301.675 291.784L312.939 309H298.539L289.131 293.704H285.163V309ZM285.163 273.032V283.72H291.371C296.747 283.72 299.243 282.056 299.243 278.408C299.243 274.76 296.747 273.032 291.371 273.032H285.163ZM349.612 309L346.796 300.488H330.668L327.788 309H315.564L332.588 263.048H345.836L362.668 309H349.612ZM338.86 276.36L333.932 290.952H343.66L338.86 276.36ZM400.239 309H368.815V263.048H380.911V298.056H400.239V309ZM444.707 293.96C444.707 303.432 437.155 309.64 425.187 309.64C413.219 309.64 405.539 303.304 404.707 293.128H416.931C417.059 297.48 419.939 300.232 424.931 300.232C429.091 300.232 431.843 298.632 431.843 295.752C431.843 293.768 429.859 292.296 427.171 291.784L418.787 290.184C411.427 288.776 406.563 284.488 406.563 277.064C406.563 268.488 414.115 262.472 424.419 262.472C435.363 262.472 443.235 268.744 443.939 278.664H431.715C431.395 274.504 428.579 271.816 424.547 271.816C420.963 271.816 418.787 273.736 418.787 276.232C418.787 278.28 420.835 279.496 423.267 279.944L432.163 281.672C440.355 283.272 444.707 287.304 444.707 293.96Z" fill="#693EE0"/>
<mask id="path-6-outside-2_0_1" maskUnits="userSpaceOnUse" x="59" y="357" width="388" height="50" fill="black">
<rect fill="white" x="59" y="357" width="388" height="50"/>
<path d="M72.576 405H60.48V359.048H79.296C91.712 359.048 98.816 364.616 98.816 374.408C98.816 380.296 95.296 385.16 89.088 387.784L100.352 405H85.952L76.544 389.704H72.576V405ZM72.576 369.032V379.72H78.784C84.16 379.72 86.656 378.056 86.656 374.408C86.656 370.76 84.16 369.032 78.784 369.032H72.576ZM139.584 394.504V405H107.072V359.048H139.137V369.544H119.168V376.136H137.281V386.632H119.168V394.504H139.584ZM159.886 405H147.79V359.048H179.086V369.544H159.886V378.056H175.95V388.552H159.886V405ZM219.269 394.504V405H186.757V359.048H218.821V369.544H198.853V376.136H216.965V386.632H198.853V394.504H219.269ZM239.571 405H227.475V359.048H246.291C258.707 359.048 265.811 364.616 265.811 374.408C265.811 380.296 262.291 385.16 256.083 387.784L267.347 405H252.947L243.539 389.704H239.571V405ZM239.571 369.032V379.72H245.779C251.155 379.72 253.651 378.056 253.651 374.408C253.651 370.76 251.155 369.032 245.779 369.032H239.571ZM286.163 405H274.067V359.048H292.883C305.299 359.048 312.403 364.616 312.403 374.408C312.403 380.296 308.883 385.16 302.675 387.784L313.939 405H299.539L290.131 389.704H286.163V405ZM286.163 369.032V379.72H292.371C297.747 379.72 300.243 378.056 300.243 374.408C300.243 370.76 297.747 369.032 292.371 369.032H286.163ZM350.612 405L347.796 396.488H331.668L328.788 405H316.564L333.588 359.048H346.836L363.668 405H350.612ZM339.86 372.36L334.932 386.952H344.66L339.86 372.36ZM401.239 405H369.815V359.048H381.911V394.056H401.239V405ZM445.707 389.96C445.707 399.432 438.155 405.64 426.187 405.64C414.219 405.64 406.539 399.304 405.707 389.128H417.931C418.059 393.48 420.939 396.232 425.931 396.232C430.091 396.232 432.843 394.632 432.843 391.752C432.843 389.768 430.859 388.296 428.171 387.784L419.787 386.184C412.427 384.776 407.563 380.488 407.563 373.064C407.563 364.488 415.115 358.472 425.419 358.472C436.363 358.472 444.235 364.744 444.939 374.664H432.715C432.395 370.504 429.579 367.816 425.547 367.816C421.963 367.816 419.787 369.736 419.787 372.232C419.787 374.28 421.835 375.496 424.267 375.944L433.163 377.672C441.355 379.272 445.707 383.304 445.707 389.96Z"/>
</mask>
<path d="M72.576 405H60.48V359.048H79.296C91.712 359.048 98.816 364.616 98.816 374.408C98.816 380.296 95.296 385.16 89.088 387.784L100.352 405H85.952L76.544 389.704H72.576V405ZM72.576 369.032V379.72H78.784C84.16 379.72 86.656 378.056 86.656 374.408C86.656 370.76 84.16 369.032 78.784 369.032H72.576ZM139.584 394.504V405H107.072V359.048H139.137V369.544H119.168V376.136H137.281V386.632H119.168V394.504H139.584ZM159.886 405H147.79V359.048H179.086V369.544H159.886V378.056H175.95V388.552H159.886V405ZM219.269 394.504V405H186.757V359.048H218.821V369.544H198.853V376.136H216.965V386.632H198.853V394.504H219.269ZM239.571 405H227.475V359.048H246.291C258.707 359.048 265.811 364.616 265.811 374.408C265.811 380.296 262.291 385.16 256.083 387.784L267.347 405H252.947L243.539 389.704H239.571V405ZM239.571 369.032V379.72H245.779C251.155 379.72 253.651 378.056 253.651 374.408C253.651 370.76 251.155 369.032 245.779 369.032H239.571ZM286.163 405H274.067V359.048H292.883C305.299 359.048 312.403 364.616 312.403 374.408C312.403 380.296 308.883 385.16 302.675 387.784L313.939 405H299.539L290.131 389.704H286.163V405ZM286.163 369.032V379.72H292.371C297.747 379.72 300.243 378.056 300.243 374.408C300.243 370.76 297.747 369.032 292.371 369.032H286.163ZM350.612 405L347.796 396.488H331.668L328.788 405H316.564L333.588 359.048H346.836L363.668 405H350.612ZM339.86 372.36L334.932 386.952H344.66L339.86 372.36ZM401.239 405H369.815V359.048H381.911V394.056H401.239V405ZM445.707 389.96C445.707 399.432 438.155 405.64 426.187 405.64C414.219 405.64 406.539 399.304 405.707 389.128H417.931C418.059 393.48 420.939 396.232 425.931 396.232C430.091 396.232 432.843 394.632 432.843 391.752C432.843 389.768 430.859 388.296 428.171 387.784L419.787 386.184C412.427 384.776 407.563 380.488 407.563 373.064C407.563 364.488 415.115 358.472 425.419 358.472C436.363 358.472 444.235 364.744 444.939 374.664H432.715C432.395 370.504 429.579 367.816 425.547 367.816C421.963 367.816 419.787 369.736 419.787 372.232C419.787 374.28 421.835 375.496 424.267 375.944L433.163 377.672C441.355 379.272 445.707 383.304 445.707 389.96Z" fill="white"/>
<path d="M72.576 405V406H73.576V405H72.576ZM60.48 405H59.48V406H60.48V405ZM60.48 359.048V358.048H59.48V359.048H60.48ZM89.088 387.784L88.6987 386.863L87.5954 387.329L88.2512 388.332L89.088 387.784ZM100.352 405V406H102.201L101.189 404.452L100.352 405ZM85.952 405L85.1002 405.524L85.3931 406H85.952V405ZM76.544 389.704L77.3958 389.18L77.1029 388.704H76.544V389.704ZM72.576 389.704V388.704H71.576V389.704H72.576ZM72.576 369.032V368.032H71.576V369.032H72.576ZM72.576 379.72H71.576V380.72H72.576V379.72ZM72.576 404H60.48V406H72.576V404ZM61.48 405V359.048H59.48V405H61.48ZM60.48 360.048H79.296V358.048H60.48V360.048ZM79.296 360.048C85.3722 360.048 90.0032 361.413 93.094 363.842C96.1502 366.244 97.816 369.778 97.816 374.408H99.816C99.816 369.246 97.9298 365.1 94.33 362.27C90.7648 359.467 85.6358 358.048 79.296 358.048V360.048ZM97.816 374.408C97.816 379.828 94.6015 384.368 88.6987 386.863L89.4773 388.705C95.9905 385.952 99.816 380.764 99.816 374.408H97.816ZM88.2512 388.332L99.5152 405.548L101.189 404.452L89.9248 387.236L88.2512 388.332ZM100.352 404H85.952V406H100.352V404ZM86.8038 404.476L77.3958 389.18L75.6922 390.228L85.1002 405.524L86.8038 404.476ZM76.544 388.704H72.576V390.704H76.544V388.704ZM71.576 389.704V405H73.576V389.704H71.576ZM71.576 369.032V379.72H73.576V369.032H71.576ZM72.576 380.72H78.784V378.72H72.576V380.72ZM78.784 380.72C81.5374 380.72 83.7494 380.301 85.2942 379.262C86.921 378.167 87.656 376.493 87.656 374.408H85.656C85.656 375.971 85.143 376.953 84.1778 377.602C83.1306 378.307 81.4066 378.72 78.784 378.72V380.72ZM87.656 374.408C87.656 372.324 86.9226 370.638 85.3012 369.527C83.7564 368.469 81.5431 368.032 78.784 368.032V370.032C81.4009 370.032 83.1236 370.459 84.1708 371.177C85.1414 371.842 85.656 372.844 85.656 374.408H87.656ZM78.784 368.032H72.576V370.032H78.784V368.032ZM139.585 394.504H140.585V393.504H139.585V394.504ZM139.585 405V406H140.585V405H139.585ZM107.072 405H106.072V406H107.072V405ZM107.072 359.048V358.048H106.072V359.048H107.072ZM139.137 359.048H140.137V358.048H139.137V359.048ZM139.137 369.544V370.544H140.137V369.544H139.137ZM119.168 369.544V368.544H118.168V369.544H119.168ZM119.168 376.136H118.168V377.136H119.168V376.136ZM137.281 376.136H138.281V375.136H137.281V376.136ZM137.281 386.632V387.632H138.281V386.632H137.281ZM119.168 386.632V385.632H118.168V386.632H119.168ZM119.168 394.504H118.168V395.504H119.168V394.504ZM138.585 394.504V405H140.585V394.504H138.585ZM139.585 404H107.072V406H139.585V404ZM108.072 405V359.048H106.072V405H108.072ZM107.072 360.048H139.137V358.048H107.072V360.048ZM138.137 359.048V369.544H140.137V359.048H138.137ZM139.137 368.544H119.168V370.544H139.137V368.544ZM118.168 369.544V376.136H120.169V369.544H118.168ZM119.168 377.136H137.281V375.136H119.168V377.136ZM136.281 376.136V386.632H138.281V376.136H136.281ZM137.281 385.632H119.168V387.632H137.281V385.632ZM118.168 386.632V394.504H120.169V386.632H118.168ZM119.168 395.504H139.585V393.504H119.168V395.504ZM159.886 405V406H160.886V405H159.886ZM147.79 405H146.79V406H147.79V405ZM147.79 359.048V358.048H146.79V359.048H147.79ZM179.086 359.048H180.086V358.048H179.086V359.048ZM179.086 369.544V370.544H180.086V369.544H179.086ZM159.886 369.544V368.544H158.886V369.544H159.886ZM159.886 378.056H158.886V379.056H159.886V378.056ZM175.95 378.056H176.95V377.056H175.95V378.056ZM175.95 388.552V389.552H176.95V388.552H175.95ZM159.886 388.552V387.552H158.886V388.552H159.886ZM159.886 404H147.79V406H159.886V404ZM148.79 405V359.048H146.79V405H148.79ZM147.79 360.048H179.086V358.048H147.79V360.048ZM178.086 359.048V369.544H180.086V359.048H178.086ZM179.086 368.544H159.886V370.544H179.086V368.544ZM158.886 369.544V378.056H160.886V369.544H158.886ZM159.886 379.056H175.95V377.056H159.886V379.056ZM174.95 378.056V388.552H176.95V378.056H174.95ZM175.95 387.552H159.886V389.552H175.95V387.552ZM158.886 388.552V405H160.886V388.552H158.886ZM219.27 394.504H220.27V393.504H219.27V394.504ZM219.27 405V406H220.27V405H219.27ZM186.757 405H185.757V406H186.757V405ZM186.757 359.048V358.048H185.757V359.048H186.757ZM218.822 359.048H219.822V358.048H218.822V359.048ZM218.822 369.544V370.544H219.822V369.544H218.822ZM198.854 369.544V368.544H197.854V369.544H198.854ZM198.854 376.136H197.854V377.136H198.854V376.136ZM216.965 376.136H217.965V375.136H216.965V376.136ZM216.965 386.632V387.632H217.965V386.632H216.965ZM198.854 386.632V385.632H197.854V386.632H198.854ZM198.854 394.504H197.854V395.504H198.854V394.504ZM218.27 394.504V405H220.27V394.504H218.27ZM219.27 404H186.757V406H219.27V404ZM187.757 405V359.048H185.757V405H187.757ZM186.757 360.048H218.822V358.048H186.757V360.048ZM217.822 359.048V369.544H219.822V359.048H217.822ZM218.822 368.544H198.854V370.544H218.822V368.544ZM197.854 369.544V376.136H199.854V369.544H197.854ZM198.854 377.136H216.965V375.136H198.854V377.136ZM215.965 376.136V386.632H217.965V376.136H215.965ZM216.965 385.632H198.854V387.632H216.965V385.632ZM197.854 386.632V394.504H199.854V386.632H197.854ZM198.854 395.504H219.27V393.504H198.854V395.504ZM239.571 405V406H240.571V405H239.571ZM227.475 405H226.475V406H227.475V405ZM227.475 359.048V358.048H226.475V359.048H227.475ZM256.083 387.784L255.694 386.863L254.59 387.329L255.246 388.332L256.083 387.784ZM267.347 405V406H269.196L268.184 404.452L267.347 405ZM252.947 405L252.095 405.524L252.388 406H252.947V405ZM243.539 389.704L244.391 389.18L244.098 388.704H243.539V389.704ZM239.571 389.704V388.704H238.571V389.704H239.571ZM239.571 369.032V368.032H238.571V369.032H239.571ZM239.571 379.72H238.571V380.72H239.571V379.72ZM239.571 404H227.475V406H239.571V404ZM228.475 405V359.048H226.475V405H228.475ZM227.475 360.048H246.291V358.048H227.475V360.048ZM246.291 360.048C252.367 360.048 256.998 361.413 260.089 363.842C263.145 366.244 264.811 369.778 264.811 374.408H266.811C266.811 369.246 264.925 365.1 261.325 362.27C257.76 359.467 252.631 358.048 246.291 358.048V360.048ZM264.811 374.408C264.811 379.828 261.596 384.368 255.694 386.863L256.472 388.705C262.986 385.952 266.811 380.764 266.811 374.408H264.811ZM255.246 388.332L266.51 405.548L268.184 404.452L256.92 387.236L255.246 388.332ZM267.347 404H252.947V406H267.347V404ZM253.799 404.476L244.391 389.18L242.687 390.228L252.095 405.524L253.799 404.476ZM243.539 388.704H239.571V390.704H243.539V388.704ZM238.571 389.704V405H240.571V389.704H238.571ZM238.571 369.032V379.72H240.571V369.032H238.571ZM239.571 380.72H245.779V378.72H239.571V380.72ZM245.779 380.72C248.532 380.72 250.744 380.301 252.289 379.262C253.916 378.167 254.651 376.493 254.651 374.408H252.651C252.651 375.971 252.138 376.953 251.173 377.602C250.126 378.307 248.402 378.72 245.779 378.72V380.72ZM254.651 374.408C254.651 372.324 253.918 370.638 252.296 369.527C250.751 368.469 248.538 368.032 245.779 368.032V370.032C248.396 370.032 250.119 370.459 251.166 371.177C252.136 371.842 252.651 372.844 252.651 374.408H254.651ZM245.779 368.032H239.571V370.032H245.779V368.032ZM286.163 405V406H287.163V405H286.163ZM274.067 405H273.067V406H274.067V405ZM274.067 359.048V358.048H273.067V359.048H274.067ZM302.675 387.784L302.286 386.863L301.183 387.329L301.839 388.332L302.675 387.784ZM313.939 405V406H315.789L314.776 404.452L313.939 405ZM299.539 405L298.688 405.524L298.981 406H299.539V405ZM290.132 389.704L290.983 389.18L290.69 388.704H290.132V389.704ZM286.163 389.704V388.704H285.163V389.704H286.163ZM286.163 369.032V368.032H285.163V369.032H286.163ZM286.163 379.72H285.163V380.72H286.163V379.72ZM286.163 404H274.067V406H286.163V404ZM275.067 405V359.048H273.067V405H275.067ZM274.067 360.048H292.883V358.048H274.067V360.048ZM292.883 360.048C298.96 360.048 303.591 361.413 306.682 363.842C309.738 366.244 311.404 369.778 311.404 374.408H313.404C313.404 369.246 311.517 365.1 307.917 362.27C304.352 359.467 299.223 358.048 292.883 358.048V360.048ZM311.404 374.408C311.404 379.828 308.189 384.368 302.286 386.863L303.065 388.705C309.578 385.952 313.404 380.764 313.404 374.408H311.404ZM301.839 388.332L313.103 405.548L314.776 404.452L303.512 387.236L301.839 388.332ZM313.939 404H299.539V406H313.939V404ZM300.391 404.476L290.983 389.18L289.28 390.228L298.688 405.524L300.391 404.476ZM290.132 388.704H286.163V390.704H290.132V388.704ZM285.163 389.704V405H287.163V389.704H285.163ZM285.163 369.032V379.72H287.163V369.032H285.163ZM286.163 380.72H292.371V378.72H286.163V380.72ZM292.371 380.72C295.125 380.72 297.337 380.301 298.882 379.262C300.509 378.167 301.243 376.493 301.243 374.408H299.243C299.243 375.971 298.73 376.953 297.765 377.602C296.718 378.307 294.994 378.72 292.371 378.72V380.72ZM301.243 374.408C301.243 372.324 300.51 370.638 298.889 369.527C297.344 368.469 295.131 368.032 292.371 368.032V370.032C294.988 370.032 296.711 370.459 297.758 371.177C298.729 371.842 299.243 372.844 299.243 374.408H301.243ZM292.371 368.032H286.163V370.032H292.371V368.032ZM350.612 405L349.663 405.314L349.89 406H350.612V405ZM347.796 396.488L348.745 396.174L348.518 395.488H347.796V396.488ZM331.668 396.488V395.488H330.951L330.721 396.168L331.668 396.488ZM328.788 405V406H329.505L329.735 405.32L328.788 405ZM316.564 405L315.626 404.653L315.127 406H316.564V405ZM333.588 359.048V358.048H332.892L332.65 358.701L333.588 359.048ZM346.836 359.048L347.775 358.704L347.535 358.048H346.836V359.048ZM363.668 405V406H365.099L364.607 404.656L363.668 405ZM339.86 372.36L340.81 372.048L339.872 369.198L338.913 372.04L339.86 372.36ZM334.932 386.952L333.985 386.632L333.539 387.952H334.932V386.952ZM344.66 386.952V387.952H346.042L345.61 386.64L344.66 386.952ZM351.561 404.686L348.745 396.174L346.847 396.802L349.663 405.314L351.561 404.686ZM347.796 395.488H331.668V397.488H347.796V395.488ZM330.721 396.168L327.841 404.68L329.735 405.32L332.615 396.808L330.721 396.168ZM328.788 404H316.564V406H328.788V404ZM317.502 405.347L334.526 359.395L332.65 358.701L315.626 404.653L317.502 405.347ZM333.588 360.048H346.836V358.048H333.588V360.048ZM345.897 359.392L362.729 405.344L364.607 404.656L347.775 358.704L345.897 359.392ZM363.668 404H350.612V406H363.668V404ZM338.913 372.04L333.985 386.632L335.879 387.272L340.807 372.68L338.913 372.04ZM334.932 387.952H344.66V385.952H334.932V387.952ZM345.61 386.64L340.81 372.048L338.91 372.672L343.71 387.264L345.61 386.64ZM401.239 405V406H402.239V405H401.239ZM369.815 405H368.815V406H369.815V405ZM369.815 359.048V358.048H368.815V359.048H369.815ZM381.911 359.048H382.911V358.048H381.911V359.048ZM381.911 394.056H380.911V395.056H381.911V394.056ZM401.239 394.056H402.239V393.056H401.239V394.056ZM401.239 404H369.815V406H401.239V404ZM370.815 405V359.048H368.815V405H370.815ZM369.815 360.048H381.911V358.048H369.815V360.048ZM380.911 359.048V394.056H382.911V359.048H380.911ZM381.911 395.056H401.239V393.056H381.911V395.056ZM400.239 394.056V405H402.239V394.056H400.239ZM405.707 389.128V388.128H404.622L404.711 389.209L405.707 389.128ZM417.931 389.128L418.931 389.099L418.902 388.128H417.931V389.128ZM428.171 387.784L427.984 388.766L427.984 388.766L428.171 387.784ZM419.787 386.184L419.6 387.166L419.6 387.166L419.787 386.184ZM444.939 374.664V375.664H446.013L445.937 374.593L444.939 374.664ZM432.715 374.664L431.718 374.741L431.789 375.664H432.715V374.664ZM424.267 375.944L424.458 374.962L424.449 374.961L424.267 375.944ZM433.163 377.672L433.355 376.691L433.354 376.69L433.163 377.672ZM444.707 389.96C444.707 394.406 442.947 398.036 439.807 400.574C436.646 403.13 432.008 404.64 426.188 404.64V406.64C432.335 406.64 437.457 405.046 441.064 402.13C444.692 399.196 446.707 394.986 446.707 389.96H444.707ZM426.188 404.64C420.375 404.64 415.703 403.102 412.402 400.423C409.112 397.755 407.1 393.888 406.704 389.047L404.711 389.209C405.147 394.544 407.391 398.933 411.141 401.977C414.88 405.01 420.032 406.64 426.188 406.64V404.64ZM405.707 390.128H417.931V388.128H405.707V390.128ZM416.932 389.157C417.002 391.554 417.84 393.607 419.436 395.053C421.025 396.492 423.255 397.232 425.931 397.232V395.232C423.616 395.232 421.91 394.596 420.779 393.571C419.655 392.553 418.989 391.054 418.931 389.099L416.932 389.157ZM425.931 397.232C428.119 397.232 430.056 396.815 431.48 395.918C432.949 394.994 433.844 393.569 433.844 391.752H431.844C431.844 392.815 431.362 393.63 430.415 394.226C429.423 394.849 427.904 395.232 425.931 395.232V397.232ZM433.844 391.752C433.844 390.391 433.153 389.263 432.148 388.442C431.155 387.63 429.819 387.08 428.359 386.802L427.984 388.766C429.212 389 430.212 389.442 430.883 389.99C431.542 390.529 431.844 391.129 431.844 391.752H433.844ZM428.359 386.802L419.975 385.202L419.6 387.166L427.984 388.766L428.359 386.802ZM419.975 385.202C416.43 384.524 413.582 383.169 411.629 381.179C409.694 379.208 408.563 376.539 408.563 373.064H406.563C406.563 377.013 407.865 380.2 410.202 382.581C412.521 384.943 415.785 386.436 419.6 387.166L419.975 385.202ZM408.563 373.064C408.563 365.226 415.462 359.472 425.419 359.472V357.472C414.769 357.472 406.563 363.75 406.563 373.064H408.563ZM425.419 359.472C430.704 359.472 435.171 360.985 438.385 363.621C441.589 366.248 443.609 370.039 443.942 374.735L445.937 374.593C445.566 369.369 443.298 365.064 439.654 362.075C436.02 359.095 431.079 357.472 425.419 357.472V359.472ZM444.939 373.664H432.715V375.664H444.939V373.664ZM433.713 374.587C433.536 372.297 432.665 370.342 431.214 368.957C429.761 367.569 427.793 366.816 425.547 366.816V368.816C427.334 368.816 428.79 369.407 429.833 370.403C430.878 371.402 431.575 372.871 431.718 374.741L433.713 374.587ZM425.547 366.816C423.584 366.816 421.907 367.342 420.7 368.307C419.478 369.282 418.787 370.67 418.787 372.232H420.787C420.787 371.298 421.185 370.478 421.947 369.869C422.724 369.25 423.927 368.816 425.547 368.816V366.816ZM418.787 372.232C418.787 373.641 419.509 374.728 420.513 375.486C421.494 376.227 422.778 376.686 424.086 376.927L424.449 374.961C423.325 374.754 422.369 374.381 421.718 373.89C421.09 373.416 420.787 372.871 420.787 372.232H418.787ZM424.077 376.926L432.973 378.654L433.354 376.69L424.458 374.962L424.077 376.926ZM432.972 378.653C436.96 379.432 439.889 380.782 441.813 382.639C443.709 384.471 444.707 386.873 444.707 389.96H446.707C446.707 386.391 445.53 383.449 443.202 381.201C440.902 378.978 437.559 377.512 433.355 376.691L432.972 378.653Z" fill="#693EE0" mask="url(#path-6-outside-2_0_1)"/>
</svg>
